<?xml version="1.0" standalone="no"?>
<!DOCTYPE svg PUBLIC "-//W3C//DTD SVG 1.1//EN" "http://www.w3.org/Graphics/SVG/1.1/DTD/svg11.dtd" >
<svg>
<metadata>
Created by FontForge 20090914 at Fri Feb  5 04:19:54 2016
 By www-data
Copyright (c) 2014 by Chanok Samiti. All rights reserved.
</metadata>
<defs>
<font id="CSChatThaiUI" horiz-adv-x="0" >
  <font-face 
    font-family="CS ChatThaiUI"
    font-weight="400"
    font-stretch="normal"
    units-per-em="2560"
    panose-1="2 0 5 3 0 0 0 0 0 0"
    ascent="2048"
    descent="-512"
    x-height="1352"
    cap-height="1820"
    bbox="-1376 -677 2260 2896"
    underline-thickness="156"
    underline-position="-6"
    unicode-range="U+0020-U+EE4B"
  />
<missing-glyph horiz-adv-x="1280" 
d="M128 0v1365h1024v-1365h-1024zM256 128h768v1110h-768v-1110z" />
    <glyph glyph-name=".notdef" horiz-adv-x="1280" 
d="M128 0v1365h1024v-1365h-1024zM256 128h768v1110h-768v-1110z" />
    <glyph glyph-name="space" unicode=" " horiz-adv-x="767" 
 />
    <glyph glyph-name="exclam" unicode="!" horiz-adv-x="673" 
d="M200 136c0 -46.667 12.166 -84.001 36.499 -112.001s57.5 -42 99.5 -42c42.667 0 76.334 14 101.001 42s37 65.333 37 112c0 30.667 -5.66699 57.334 -17 80.001s-27.333 40.167 -48 52.5s-45 18.5 -73 18.5c-42 0 -75.167 -13.5 -99.5 -40.5s-36.5 -63.833 -36.5 -110.5
zM454.999 590.999v1232h-236v-1232h236z" />
    <glyph glyph-name="quotedbl" unicode="&#x22;" horiz-adv-x="911" 
d="M386 1820v-338l-64 -312h-101l-61 312v338h226zM751 1820v-338l-64 -312h-101l-61 312v338h226z" />
    <glyph glyph-name="numbersign" unicode="#" horiz-adv-x="1595" 
d="M790 0l100 512h-319l-100 -512h-189l100 512h-294v176h330l84 434h-320v178h356l102 520h189l-103 -520h319l103 520h188l-102 -520h248v-178h-282l-85 -434h274v-176h-309l-100 -512h-190zM691 1122l-85 -434h319l85 434h-319z" />
    <glyph glyph-name="dollar" unicode="$" horiz-adv-x="1491" 
d="M878 2120l0.000976562 -283.005c118 -19.333 215.5 -65.166 292.5 -137.499s125.5 -159.833 145.5 -262.5l-177 -82c-34.667 161.333 -121.667 259.333 -261 294v-663c147.333 -49.333 259.166 -118.166 335.499 -206.499s114.5 -194.5 114.5 -318.5
c0 -133.333 -42 -241.666 -126 -324.999s-192 -134.666 -324 -153.999v-240h-227v240c-126 16.667 -230.333 60 -313 130s-135.667 160.667 -159 272l205 70c10 -73.333 38.5 -134.666 85.5 -183.999s107.5 -83 181.5 -101v680c-290.667 101.333 -436 268 -436 500
c0 130.667 40.833 239.667 122.5 327s186.167 141.333 313.5 162v282h227zM1106 458.995v1c0 82 -19.5 147.667 -58.5 197s-95.5 89 -169.5 119v-607c70 17.333 125.5 50.5 166.5 99.5s61.5 112.5 61.5 190.5zM437.001 1352c0 -72 18.667 -130.833 56 -176.5
s90 -83.167 158 -112.5v587c-68 -17.333 -120.667 -51.333 -158 -102s-56 -116 -56 -196z" />
    <glyph glyph-name="percent" unicode="%" horiz-adv-x="1872" 
d="M130 1374l0.000976562 96c0 108 34 197.333 102 268c68.667 72 160 108 274 108c113.333 0 204.666 -36 273.999 -108c68 -70 102 -159.333 102 -268v-96c0 -107.333 -34 -196 -102 -266c-68.667 -72 -159 -108 -271 -108c-114.667 0 -207 36 -277 108
c-68 70 -102 158.667 -102 266zM312.001 1470v-96c0 -62 16.667 -114.667 50 -158c34.667 -42.667 83.667 -64 147 -64c59.333 0 106.333 21.333 141 64c33.333 41.333 50 94 50 158v96c0 61.333 -17 114 -51 158s-81.667 66 -143 66c-62 0 -110 -22 -144 -66
c-33.333 -43.333 -50 -96 -50 -158zM1011 349v96.999c0 106.667 34.333 195.334 103 266.001c69.333 72.667 160.666 109 273.999 109c112 0 202.667 -36.333 272 -109c69.333 -71.333 104 -160 104 -266v-97c0 -108 -34.333 -197.333 -103 -268
c-69.333 -71.333 -159.666 -107 -270.999 -107c-114.667 0 -206.667 35.667 -276 107c-68.667 70.667 -103 160 -103 268zM1194 445.999l-0.00195312 -97c0 -62.667 16.667 -115.667 50 -159c34.667 -42.667 83.334 -64 146.001 -64c59.333 0 106.333 21.333 141 64
c33.333 43.333 50 96.333 50 159v97c0 61.333 -17 114 -51 158c-33.333 43.333 -80.666 65 -141.999 65c-62.667 0 -110.667 -21.667 -144 -65s-50 -96 -50 -158zM1461 1560l-889 -1422l-136 83l889 1423z" />
    <glyph glyph-name="ampersand" unicode="&#x26;" horiz-adv-x="1595" 
d="M80 490c0 48.667 6.83105 94.502 20.498 137.502s30.334 80 50.001 111s46.5 62.667 80.5 95s65 58.666 93 78.999s63.667 44.833 107 73.5l-43.5 55l-37.5 50.5c-19.333 26.333 -32 45.166 -38 56.499l-28 54c-12.667 24.667 -21.167 46 -25.5 64
s-8.66602 39.333 -12.999 64s-6.5 50 -6.5 76c0 140 40.5 248.333 121.5 325s192.833 115 335.5 115c123.333 0 228.333 -36.333 315 -109s130 -165.334 130 -278.001c0 -31.333 -3.66699 -61.666 -11 -90.999s-16.5 -55.5 -27.5 -78.5s-25.667 -46.167 -44 -69.5
s-36 -43.333 -53 -60s-38 -35 -63 -55s-46.833 -36.333 -65.5 -49l-68.5 -47l-63.5 -45l425 -512c64.667 102 100.667 218.333 108 349l211 -105c-22.667 -158 -82.667 -295 -180 -411l231 -279l-2 -6h-287l-106 128c-137.333 -102.667 -295 -154 -473 -154
c-112.667 0 -213.5 20.167 -302.5 60.5s-159.5 100 -211.5 179s-78 171.167 -78 276.5zM671.998 166.002c120 0 234.333 39.667 343 119l-451 544l-51.5 -38.5c-9.66699 -7 -25.334 -19.5 -47.001 -37.5s-37.167 -32.333 -46.5 -43s-21.333 -25.334 -36 -44.001
s-25.167 -36 -31.5 -52s-12.166 -34.833 -17.499 -56.5s-8 -44.167 -8 -67.5c0 -99.333 31.333 -178.166 94 -236.499s146.667 -87.5 252 -87.5zM484.998 1409c0 -82.667 44.998 -181 134.998 -295l62.5 41.5c33 21.667 56.333 37.5 70 47.5s33.334 26.167 59.001 48.5
s44.334 42.333 56.001 60s22.5 39.667 32.5 66s15 53.5 15 81.5c0 54.667 -21.5 100.5 -64.5 137.5s-94.5 55.5 -154.5 55.5c-65.333 0 -116.833 -23 -154.5 -69s-56.5 -104 -56.5 -174z" />
    <glyph glyph-name="quotesingle" unicode="'" horiz-adv-x="547" 
d="M387 1820v-338l-64 -312h-101l-62 312v338h227z" />
    <glyph glyph-name="parenleft" unicode="(" horiz-adv-x="848" 
d="M165 728v10.999c0 186.667 27.333 369.5 82 548.5s128.834 334.833 222.501 467.5s197.5 229.334 311.5 290.001l8 -1l47 -145c-132 -103.333 -235.833 -258.333 -311.5 -465s-113.5 -437.667 -113.5 -693v-16c0 -256.667 37.667 -488 113 -694
s179.333 -364.333 312 -475l-47 -135h-8c-114 60.667 -217.833 157.5 -311.5 290.5s-167.834 289 -222.501 468s-82 361.833 -82 548.5z" />
    <glyph glyph-name="parenright" unicode=")" horiz-adv-x="858" 
d="M679 739v-11.001c0 -186.667 -27.333 -369.5 -82 -548.5s-129 -334.833 -223 -467.5s-198 -229.667 -312 -291h-7l-47 135c131.333 102.667 234.833 259.334 310.5 470.001s113.5 443.667 113.5 699v16c0 248 -38.833 478 -116.5 690s-180.167 371.667 -307.5 479l47 135
h7c85.333 -46 165.833 -113.5 241.5 -202.5s141.167 -190.667 196.5 -305s99 -241 131 -380s48 -278.5 48 -418.5z" />
    <glyph glyph-name="asterisk" unicode="*" horiz-adv-x="1105" 
d="M208 612l197 258l-295 84l61 192l295 -112l-12 317h201l-13 -325l292 112l60 -196l-303 -84l191 -250l-164 -120l-176 272l-168 -262z" />
    <glyph glyph-name="plus" unicode="+" horiz-adv-x="1452" 
d="M846 1508v-529h499v-223h-499v-574h-246v574h-502v223h502v529h246z" />
    <glyph glyph-name="comma" unicode="," horiz-adv-x="505" 
d="M394 276v-86l-198 -512h-136l88 524v74h246z" />
    <glyph glyph-name="hyphen" unicode="-" horiz-adv-x="1153" 
d="M946 865v-193h-737v193h737z" />
    <glyph glyph-name="period" unicode="." horiz-adv-x="675" 
d="M438 242v-242h-237v242h237z" />
    <glyph glyph-name="slash" unicode="/" horiz-adv-x="1062" 
d="M989 1820l-759 -1976h-210l760 1976h209z" />
    <glyph glyph-name="zero" unicode="0" horiz-adv-x="1441" 
d="M1300 1178l-0.00390625 -536.001c0 -129.333 -22 -243.833 -66 -343.5s-110.167 -178.667 -198.5 -237s-193.166 -87.5 -314.499 -87.5s-226.166 29 -314.499 87s-154.666 137 -198.999 237s-66.5 214.667 -66.5 344v536c0 96 12.833 184.667 38.5 266
s62.667 151.833 111 211.5s109.166 106.334 182.499 140.001s155.333 50.5 246 50.5c120.667 0 225.334 -29.167 314.001 -87.5s155.334 -137.5 200.001 -237.5s67 -214.333 67 -343zM1064 591.999v636.999c0 84 -12 157.833 -36 221.5s-62.5 114.834 -115.5 153.501
s-117.5 58 -193.5 58c-112.667 0 -197.667 -39.833 -255 -119.5s-86 -184.167 -86 -313.5v-637c0 -84 12 -158 36 -222s62.167 -115.667 114.5 -155s116.5 -59 192.5 -59c113.333 0 198.833 40 256.5 120s86.5 185.333 86.5 316z" />
    <glyph glyph-name="one" unicode="1" horiz-adv-x="1441" 
d="M888 1846v-1846h-238v1431l10 195l-376 -199l-39 178l435 241h208z" />
    <glyph glyph-name="two" unicode="2" horiz-adv-x="1441" 
d="M742 1663c-96 0 -178.667 -28.668 -248 -86.001s-109.333 -128.333 -120 -213l-187 87c20.667 119.333 82.334 215.5 185.001 288.5s226 108.833 370 107.5c156 0 282.333 -43.667 379 -131s145 -205 145 -353c0 -33.333 -2.66699 -65.666 -8 -96.999
s-11.833 -60 -19.5 -86s-18.5 -53.167 -32.5 -81.5s-27.333 -53 -40 -74s-29.334 -45.333 -50.001 -73l-53 -69l-59 -73l-59 -73.5l-459 -537l3 -7h829v-191h-1130v183l581 657l53 64.5l50.5 62.5l43 57c18.333 24.667 31.666 44.667 39.999 60s18.333 35 30 59
s20 46.333 25 67s9.5 44.5 13.5 71.5s6 54.833 6 83.5c0 88 -26.167 159.5 -78.5 214.5s-122.166 82.5 -209.499 82.5z" />
    <glyph glyph-name="three" unicode="3" horiz-adv-x="1441" 
d="M730 1662l0.99707 -0.00292969c-95.333 0 -177.166 -29 -245.499 -87s-107.833 -129.667 -118.5 -215l-187 87c20.667 118.667 81.834 214.667 183.501 288s223.834 110.333 366.501 111c170.667 0 303.5 -41.167 398.5 -123.5s142.5 -202.833 142.5 -361.5
c0 -89.333 -22.167 -170.666 -66.5 -243.999s-106.5 -130.666 -186.5 -171.999c92 -38.667 161.833 -96.834 209.5 -174.501s71.5 -171.834 71.5 -282.501c0 -158 -52.333 -283.167 -157 -375.5s-242 -138.5 -412 -138.5h-1c-144 0 -267.333 36.5 -370 109.5
s-164.334 168.833 -185.001 287.5l187 87c10.667 -85.333 50.834 -157.166 120.501 -215.499s152.5 -87.166 248.5 -86.499c101.333 0 182 30 242 90s90 138.667 90 236c0 123.333 -27.5 215.333 -82.5 276s-140.167 91 -255.5 91h-183v181h183c110 0 189.333 28.333 238 85
s73 140.334 73 251.001c0 91.333 -26.167 163.5 -78.5 216.5s-127.833 79.5 -226.5 79.5z" />
    <glyph glyph-name="four" unicode="4" horiz-adv-x="1441" 
d="M1116 1820v-1208h250v-182h-250v-430h-235v430h-791v129l766 1261h260zM840 1415l-496 -803h537v874l-7 2z" />
    <glyph glyph-name="five" unicode="5" horiz-adv-x="1441" 
d="M418 798l-200.001 52l102 970h911v-209h-714l-59 -533c92 66.667 193 100.334 303 101.001c170.667 0.666992 303.167 -53.5 397.5 -162.5s141.5 -254.5 141.5 -436.5c0 -186 -50.333 -333.5 -151 -442.5s-242 -163.5 -424 -163.5
c-145.333 0 -264.166 31.833 -356.499 95.5s-148.5 154.5 -168.5 272.5l187 87c10.667 -84.667 45.667 -151.334 105 -200.001s137 -73 233 -73c110.667 0 194.834 38.833 252.501 116.5s86.5 179.5 86.5 305.5c0 116.667 -29.667 212.167 -89 286.5
s-142.666 111.5 -249.999 111.5c-90.667 0 -158.834 -13.333 -204.501 -40s-79.834 -72.667 -102.501 -138z" />
    <glyph glyph-name="six" unicode="6" horiz-adv-x="1441" 
d="M801 1846c67.333 0 136.83 -7.16699 208.497 -21.5s131.167 -32.166 178.5 -53.499l-53 -179c-108 46.667 -219.333 70 -334 70c-82.667 0 -154.667 -26.833 -216 -80.5s-106.5 -121.834 -135.5 -204.501s-43.5 -173 -43.5 -271v-111
c52.667 51.333 114.834 91.5 186.501 120.5s147.834 43.5 228.501 43.5c104.667 0 195.834 -25 273.501 -75s136.334 -117.833 176.001 -203.5s59.5 -183.167 59.5 -292.5c0 -183.333 -50.5 -331.5 -151.5 -444.5s-239.167 -169.5 -414.5 -169.5
c-121.333 0 -227.5 32.333 -318.5 97s-159.5 150.667 -205.5 258s-69 227.666 -69 360.999v389c0 82 9.5 161.167 28.5 237.5s47 146.5 84 210.5s80.667 119.833 131 167.5s108.666 84.834 174.999 111.501s136.833 40 211.5 40zM741.997 985
c-78 0 -145.668 -17.166 -203.001 -51.499s-101.666 -81.5 -132.999 -141.5v-126c0 -90 12.833 -172.833 38.5 -248.5s66.167 -138.167 121.5 -187.5s121.333 -74 198 -74c72.667 0 134.5 20.167 185.5 60.5s87.833 92.166 110.5 155.499s34 135.333 34 216
c0 120 -30.5 216.167 -91.5 288.5s-147.833 108.5 -260.5 108.5z" />
    <glyph glyph-name="seven" unicode="7" horiz-adv-x="1441" 
d="M1329 1820v-194l-628 -1626h-236l641 1636h-985v184h1208z" />
    <glyph glyph-name="eight" unicode="8" horiz-adv-x="1444" 
d="M1264 1355c0 -98.667 -27.5029 -183.666 -82.5029 -254.999s-124.833 -124 -209.5 -158c98.667 -34 180.334 -89.167 245.001 -165.5s97 -168.5 97 -276.5c0 -164 -53.5 -292.667 -160.5 -386s-246.167 -140 -417.5 -140c-87.333 0 -167.666 11.5 -240.999 34.5
s-137.166 56 -191.499 99s-96.833 98.167 -127.5 165.5s-46 143 -46 227c0 109.333 33.333 202.333 100 279s151 131.667 253 165c-94 35.333 -167.833 89.166 -221.5 161.499s-80.5 155.5 -80.5 249.5c0 105.333 23.667 195.333 71 270s112.166 130.167 194.499 166.5
s177.833 54.5 286.5 54.5c158.667 0 286.834 -43.333 384.501 -130s146.5 -207 146.5 -361zM1080 505.001c0 99.333 -33.167 182.667 -99.5 250s-148.833 101 -247.5 101c-104.667 0 -192 -33 -262 -99s-105 -150 -105 -252c0 -105.333 34.667 -189.833 104 -253.5
s158 -95.5 266 -95.5c99.333 0 181.5 33 246.5 99s97.5 149.333 97.5 250zM1028 1351c0 88.667 -27.667 162.668 -83 222.001s-126 89 -212 89c-92.667 0 -168.5 -28.667 -227.5 -86s-88.5 -132.333 -88.5 -225c0 -94 29.833 -171 89.5 -231s136.167 -90 229.5 -90
c86 0 156.167 30.667 210.5 92s81.5 137.666 81.5 228.999z" />
    <glyph glyph-name="nine" unicode="9" horiz-adv-x="1441" 
d="M626 156c126 0 223.497 46.002 292.497 138.002s103.5 212.667 103.5 362v135c-39.333 -58.667 -88.666 -103.334 -147.999 -134.001s-124.666 -46 -195.999 -46c-178.667 0 -317 54.833 -415 164.5s-147 258.5 -147 446.5c0 114 22.833 218.333 68.5 313
s110.834 170.167 195.501 226.5s180.667 84.5 288 84.5c188.667 0 336.167 -58.333 442.5 -175s159.5 -273.334 159.5 -470.001v-532c0 -210 -58.333 -378.333 -175 -505s-273 -190 -469 -190c-138.667 0 -267 26 -385 78l38 178c54.667 -26.667 108.5 -45.667 161.5 -57
s114.833 -17 185.5 -17zM677.997 794.002c82.667 0 153.667 18.834 213 56.501s103 88.167 131 151.5v236c0 135.333 -30.333 239.833 -91 313.5s-146 110.5 -256 110.5c-67.333 0 -126 -21.333 -176 -64s-87 -96.667 -111 -162s-36 -136.666 -36 -213.999
c0 -59.333 6.66699 -114.333 20 -165s33 -95.834 59 -135.501s60.167 -70.834 102.5 -93.501s90.5 -34 144.5 -34z" />
    <glyph glyph-name="colon" unicode=":" horiz-adv-x="627" 
d="M427 242v-242h-227v242h227zM427 1348v-243h-227v243h227z" />
    <glyph glyph-name="semicolon" unicode=";" horiz-adv-x="657" 
d="M448 1348v-243h-235v243h235zM457 265v-205l-187 -382h-135l87 394v193h235z" />
    <glyph glyph-name="less" unicode="&#x3c;" horiz-adv-x="1300" 
d="M1109 1035l-805 -334v-7l805 -329v-231l-1020 474v186l1020 472v-231z" />
    <glyph glyph-name="equal" unicode="=" horiz-adv-x="1441" 
d="M1232 1224v-185h-1042v185h1042zM1232 704v-185h-1042v185h1042z" />
    <glyph glyph-name="greater" unicode="&#x3e;" horiz-adv-x="1340" 
d="M170 1018v223l1070 -472v-187l-1070 -473v225l854 338v8z" />
    <glyph glyph-name="question" unicode="?" horiz-adv-x="1217" 
d="M438 126c0 44.667 11.833 80.667 35.5 108s55.5 41 95.5 41c40.667 0 73 -13.5 97 -40.5s36 -63.167 36 -108.5c0 -44.667 -12 -80.167 -36 -106.5s-56.333 -39.5 -97 -39.5s-72.667 13 -96 39s-35 61.667 -35 107zM690 512l-225.998 0.00292969
c0.666992 94.667 11 172 31 232c17.333 45.333 42.833 89.666 76.5 132.999s67.5 81.666 101.5 114.999s67 68 99 104s58.167 76.667 78.5 122s30.5 94 30.5 146c0 94.667 -25.167 167.5 -75.5 218.5s-122.5 76.5 -216.5 76.5c-54.667 0 -104.667 -10 -150 -30
s-82.5 -50.5 -111.5 -91.5s-43.5 -88.5 -43.5 -142.5l-208 56c0 67.333 22.833 131.333 68.5 192s108.334 109.667 188.001 147s165.167 56 256.5 56c160 0 286.5 -41.333 379.5 -124s139.5 -200 139.5 -352c0 -48 -6.33301 -93.167 -19 -135.5
s-29.334 -79.5 -50.001 -111.5s-43.834 -62.5 -69.501 -91.5s-52.167 -56.833 -79.5 -83.5l-77.5 -79c-24.333 -26 -46.333 -55.333 -66 -88s-33.834 -66.334 -42.501 -101.001c-9.33301 -37.333 -14 -93.333 -14 -168z" />
    <glyph glyph-name="at" unicode="@" horiz-adv-x="2291" 
d="M2165 628c-2.66699 -90 -16.501 -173.835 -41.501 -251.502s-60.167 -146.834 -105.5 -207.501s-103.833 -108.334 -175.5 -143.001s-152.5 -52 -242.5 -52c-60.667 0 -113 17.333 -157 52s-75.667 83.334 -95 146.001c-82.667 -132 -203.667 -198 -363 -198
c-58.667 0 -109.834 15.5 -153.501 46.5s-77.167 72.5 -100.5 124.5s-39.5 110 -48.5 174s-10.167 131 -3.5 201c6 71.333 17.167 140.333 33.5 207s38.833 131.167 67.5 193.5s62.334 116.5 101.001 162.5s85.5 82.833 140.5 110.5s114.5 41.5 178.5 41.5
c88 0 157.333 -9.83301 208 -29.5s109.667 -54.167 177 -103.5l-5 -4h8l-64 -732c-6.66699 -76.667 -0.5 -136 18.5 -178s55.5 -63 109.5 -63c56.667 0 107.334 14.5 152.001 43.5s80.667 67.833 108 116.5s48.5 102 63.5 160s23.5 119 25.5 183
c4.66699 122.667 -1.5 235.334 -18.5 338.001s-45.833 195.834 -86.5 279.501s-92.5 154.5 -155.5 212.5s-140 102.667 -231 134s-193.833 47 -308.5 47c-108.667 0 -209.167 -18.167 -301.5 -54.5s-172.166 -86.5 -239.499 -150.5s-125.333 -139.833 -174 -227.5
s-85.834 -182.667 -111.501 -285s-40.834 -210.166 -45.501 -323.499c0 -119.333 9.5 -229.666 28.5 -330.999s49 -194.5 90 -279.5s92 -157.333 153 -217s135.5 -106.167 223.5 -139.5s186.333 -50 295 -50c72 0 146.667 9.33301 224 28s140.333 42 189 70l48 -134
c-52 -32.667 -121.833 -59.334 -209.5 -80.001s-173.167 -31 -256.5 -31c-161.333 0 -304.333 28.333 -429 85s-226.334 136.834 -305.001 240.501s-138 226 -178 367s-60 298.167 -60 471.5c0 163.333 24.833 317.166 74.5 461.499s119.5 270.5 209.5 378.5
s202.333 193.5 337 256.5s282.334 94.5 443.001 94.5s303.5 -28.5 428.5 -85.5s226.833 -137.167 305.5 -240.5s137.167 -225.5 175.501 -366.5c38.333 -141 54.833 -297.167 49.5 -468.5zM899.999 519.998c-9.33301 -118 -0.5 -207.833 26.5 -269.5s71.5 -92.5 133.5 -92.5
c56 0 105.833 10.667 149.5 32s83.167 57.333 118.5 108c-1.33301 28 -0.666016 50.667 2.00098 68l59 673c-46.667 21.333 -94.334 32 -143.001 32c-103.333 0 -182.5 -45 -237.5 -135s-91.167 -228.667 -108.5 -416z" />
    <glyph glyph-name="A" unicode="A" horiz-adv-x="1620" 
d="M1313 0l-160 479h-684l-163 -479h-251l631 1820h250l629 -1820h-252zM804 1509l-274 -824h563l-271 824h-18z" />
    <glyph glyph-name="B" unicode="B" horiz-adv-x="1614" 
d="M205 0v1820h595c396.667 0 595 -161.667 595 -485c0 -90 -26 -166.667 -78 -230s-119.333 -112.333 -202 -147c100 -26.667 179.833 -77.334 239.5 -152.001s89.5 -168.334 89.5 -281.001c0 -172 -54.167 -302.5 -162.5 -391.5s-254.833 -133.5 -439.5 -133.5h-637z
M440 857.002l0.000976562 -675h402c112 0 201.833 29.833 269.5 89.5s101.5 143.167 101.5 250.5c0 111.333 -30.833 195 -92.5 251s-150.834 84 -267.501 84h-413zM440.001 1039h368c106 0 191.833 25.5 257.5 76.5s98.5 124.5 98.5 220.5c0 106 -31 182.5 -93 229.5
s-152.333 70.5 -271 70.5h-360v-597z" />
    <glyph glyph-name="C" unicode="C" horiz-adv-x="1603" 
d="M846 156c73.333 0 137 6.66406 191 19.9971s99.167 33.833 135.5 61.5s66 59.667 89 96s42.5 80.5 58.5 132.5l183 -87c-32 -130 -106.5 -230.667 -223.5 -302s-261.167 -105.666 -432.5 -102.999c-138.667 0 -261.334 31.833 -368.001 95.5
s-188.167 149.334 -244.5 257.001s-84.5 228.167 -84.5 361.5v443c0 132.667 28.333 253 85 361s138.334 194 245.001 258s229 96 367 96c169.333 0 312.5 -36 429.5 -108s191.167 -172.667 222.5 -302l-183 -87c-16 52 -35.333 96.333 -58 133s-52.167 69 -88.5 97
s-81.166 48.833 -134.499 62.5s-116.333 20.5 -189 20.5s-138.667 -14.5 -198 -43.5s-107.833 -68 -145.5 -117s-66.667 -105 -87 -168s-30.5 -129.5 -30.5 -199.5v-446c0 -70.667 10 -137.5 30 -200.5s48.833 -119.167 86.5 -168.5s86.167 -88.666 145.5 -117.999
s125.666 -44.333 198.999 -45z" />
    <glyph glyph-name="D" unicode="D" horiz-adv-x="1693" 
d="M205 0v1820h534c122 0 232.5 -18 331.5 -54s182 -86.333 249 -151s118.5 -142.5 154.5 -233.5s54 -190.833 54 -299.5v-347c0 -224.667 -72 -403.334 -216 -536.001s-342 -199 -594 -199h-513zM442 1636l-0.000976562 -1454h276c188 0 331 49.667 429 149
s147 234 147 404v351c0 168.667 -46.667 302.5 -140 401.5s-231.666 148.5 -414.999 148.5h-297z" />
    <glyph glyph-name="E" unicode="E" horiz-adv-x="1406" 
d="M1199 1033v-184h-758v-667h885v-182h-1121v1820h1107v-184h-871v-603h758z" />
    <glyph glyph-name="F" unicode="F" horiz-adv-x="1406" 
d="M1219 999v-184h-778v-815h-236v1820h1141v-184h-905v-637h778z" />
    <glyph glyph-name="G" unicode="G" horiz-adv-x="1730" 
d="M851 1846c169.333 0 312.5 -36.1709 429.5 -108.504s191.167 -173.166 222.5 -302.499l-183 -87c-16 52 -35.333 96.333 -58 133s-52.167 69 -88.5 97s-81.166 49 -134.499 63s-116 21 -188 21c-96.667 0 -180.834 -24 -252.501 -72s-125 -111 -160 -189
s-52.5 -165 -52.5 -261v-478c0 -92 19.667 -176.167 59 -252.5s96.833 -137.666 172.5 -183.999s162.5 -69.5 260.5 -69.5c192.667 0 328 60.667 406 182v380h-403v182h639v-615c-53.333 -95.333 -137 -171 -251 -227s-244.333 -84 -391 -84c-140 0 -265.5 29.667 -376.5 89
s-197.333 141.333 -259 246s-92.5 222.334 -92.5 353.001v476c0 101.333 16.667 195.5 50 282.5s80.166 161.833 140.499 224.5s134.333 111.834 222 147.501s183.834 53.5 288.501 53.5z" />
    <glyph glyph-name="H" unicode="H" horiz-adv-x="1797" 
d="M1587 1820v-1820h-237v824h-903v-824h-237v1820h237v-812h903v812h237z" />
    <glyph glyph-name="I" unicode="I" horiz-adv-x="727" 
d="M482 1820v-1820h-237v1820h237z" />
    <glyph glyph-name="J" unicode="J" horiz-adv-x="1391" 
d="M626 -26l-1.00098 0.000976562c-145.333 0 -264.166 31.833 -356.499 95.5s-148.5 154.5 -168.5 272.5l187 87c10.667 -84.667 45.667 -151.334 105 -200.001s137.333 -73 234 -73c97.333 0 174.833 34.333 232.5 103s86.5 155 86.5 259v1302h236v-1302
c0 -163.333 -51 -294.833 -153 -394.5s-236 -149.5 -402 -149.5z" />
    <glyph glyph-name="K" unicode="K" horiz-adv-x="1622" 
d="M1304 0l-623 871l-239 -262v-609h-237v1820h237v-912l820 912h282l-1 -10l-725 -788l779 -1016v-6h-293z" />
    <glyph glyph-name="L" unicode="L" horiz-adv-x="1384" 
d="M446 1820v-1638h878v-182h-1114v1820h236z" />
    <glyph glyph-name="M" unicode="M" horiz-adv-x="2207" 
d="M529 1820l571 -1499h22l574 1499h306v-1820h-236v1440h-7l-36 -120l-506 -1300h-211l-517 1298l-40 122h-8v-1440h-236v1820h324z" />
    <glyph glyph-name="N" unicode="N" horiz-adv-x="1797" 
d="M1587 1820v-1820h-247l-846 1342l-40 88h-7v-1430h-237v1820h247l850 -1348l36 -81h7v1429h237z" />
    <glyph glyph-name="O" unicode="O" horiz-adv-x="1741" 
d="M1601 1131l0.00195312 -442.998c0 -100.667 -18.333 -194.834 -55 -282.501s-87.167 -163.167 -151.5 -226.5s-142.833 -113.333 -235.5 -150s-193 -55 -301 -55c-140.667 0 -265.834 31.667 -375.501 95s-194.167 149 -253.5 257s-89 228.667 -89 362v443
c0 132.667 29.667 253.167 89 361.5s144 194.333 254 258s235 95.5 375 95.5c144 0 272.667 -31.333 386 -94s201.166 -148.334 263.499 -257.001s93.5 -230 93.5 -364zM1365 688.002l-0.000976562 446c0 99.333 -19.833 188.5 -59.5 267.5s-98.334 142.167 -176.001 189.5
s-168.167 71 -271.5 71c-100 0 -187 -24.167 -261 -72.5s-129.167 -111.833 -165.5 -190.5s-54.5 -167 -54.5 -265v-446c0 -98.667 18.167 -187.667 54.5 -267s91.333 -143.166 165 -191.499s160.834 -72.5 261.501 -72.5c104.667 0 195.834 23.667 273.501 71
s136 110.666 175 189.999s58.5 169.333 58.5 270z" />
    <glyph glyph-name="P" unicode="P" horiz-adv-x="1621" 
d="M901 730h-460v-730h-236v1820h696c121.333 0 228 -21 320 -63s164.167 -104.5 216.5 -187.5s78.5 -181.167 78.5 -294.5c0 -114 -26.167 -212.5 -78.5 -295.5s-124.5 -145.333 -216.5 -187s-198.667 -62.5 -320 -62.5zM441 1636v-724h460c120.667 0 215.5 32 284.5 96
s103.5 152 103.5 264c0 111.333 -34.667 199.833 -104 265.5s-164 98.5 -284 98.5h-460z" />
    <glyph glyph-name="Q" unicode="Q" horiz-adv-x="1766" 
d="M1676 -87l-126 -134.998l-305 290c-114.667 -62.667 -243.667 -94 -387 -94c-140.667 0 -265.834 31.667 -375.501 95s-194.167 149 -253.5 257s-89 228.667 -89 362v443c0 132.667 29.667 253.167 89 361.5s144 194.333 254 258s235 95.5 375 95.5
c144 0 272.667 -31.333 386 -94s201.166 -148.334 263.499 -257.001s93.5 -230 93.5 -364v-443c0 -66.667 -8.16699 -131 -24.5 -193s-39.666 -119.333 -69.999 -172s-67.166 -100.334 -110.499 -143.001zM1365 688.002v446c0 99.333 -19.833 188.5 -59.5 267.5
s-98.334 142.167 -176.001 189.5s-168.167 71 -271.5 71c-100 0 -187 -24.167 -261 -72.5s-129.167 -111.833 -165.5 -190.5s-54.5 -167 -54.5 -265v-446c0 -98.667 18.167 -187.667 54.5 -267s91.333 -143.166 165 -191.499s160.834 -72.5 261.501 -72.5
c18 0 35.667 0.666992 53 2s34.166 3.5 50.499 6.5s32.333 6.66699 48 11s30.834 9.16602 45.501 14.499s28.667 11.333 42 18l-114 108l127 135l134 -128c80.667 96.667 121 218 121 364z" />
    <glyph glyph-name="R" unicode="R" horiz-adv-x="1627" 
d="M441 1636v-664.001h400c126 0 224.833 29.333 296.5 88s107.5 139.334 107.5 242.001s-36.167 184 -108.5 244s-170.833 90 -295.5 90h-400zM999 802.999l-1 -12.001l539 -785l-2 -6h-271l-513 790h-310v-790h-236v1820h636c124 0 233.333 -19.833 328 -59.5
s168.834 -98.667 222.501 -177s80.5 -171.166 80.5 -278.499c0 -68.667 -11.167 -131.667 -33.5 -189s-54.333 -107 -96 -149s-91.334 -76.833 -149.001 -104.5s-122.5 -47.5 -194.5 -59.5z" />
    <glyph glyph-name="S" unicode="S" horiz-adv-x="1577" 
d="M1195 459l0.00390625 1.00293c0 44 -7.33301 83.667 -22 119s-33.5 65 -56.5 89s-53.167 45.833 -90.5 65.5s-74.333 35.667 -111 48s-80.334 24.5 -131.001 36.5c-189.333 46 -334.833 113.5 -436.5 202.5s-152.5 198.5 -152.5 328.5c0 100 27.833 188.333 83.5 265
s128.834 134.667 219.501 174s190.667 59 300 59c167.333 0 306.166 -38.333 416.499 -115s178.5 -175 204.5 -295l-187 -82c-24.667 104.667 -74.5 182.167 -149.5 232.5s-169.833 75.5 -284.5 75.5c-111.333 0 -200.166 -26.833 -266.499 -80.5s-99.5 -130.5 -99.5 -230.5
c0 -30.667 4.5 -59.167 13.5 -85.5s20.333 -49.333 34 -69s32.167 -38.334 55.5 -56.001s46.333 -32.5 69 -44.5s50.334 -24 83.001 -36s62 -21.833 88 -29.5s57.333 -16.167 94 -25.5c184 -47.333 323.833 -116.833 419.5 -208.5s143.5 -203.834 143.5 -336.501
c0 -77.333 -16.833 -147.333 -50.5 -210s-79.334 -113.834 -137.001 -153.501s-123.834 -70.167 -198.501 -91.5s-154.334 -32 -239.001 -32c-172.667 0 -317 36.333 -433 109s-189 173 -219 301l218 70c13.333 -92 60.166 -164.667 140.499 -218s178.166 -80 293.499 -80
c113.333 0 206.333 26 279 78s109 127 109 225z" />
    <glyph glyph-name="T" unicode="T" horiz-adv-x="1539" 
d="M1469 1820v-184h-585v-1636h-236v1636h-578v184h1399z" />
    <glyph glyph-name="U" unicode="U" horiz-adv-x="1707" 
d="M1522 1820l0.000976562 -1262c0 -176 -62 -317.167 -186 -423.5s-285.667 -159.5 -485 -159.5c-202.667 0 -364.334 52.333 -485.001 157s-181 246.667 -181 426v1262h236v-1262c0 -122 37.833 -219.5 113.5 -292.5s181.167 -109.5 316.5 -109.5
c138 0 245 36.333 321 109s114 170.334 114 293.001v1262h236z" />
    <glyph glyph-name="V" unicode="V" horiz-adv-x="1623" 
d="M297 1820l484 -1422l24 -103h14l24 101l484 1424h266l-666 -1820h-231l-666 1820h267z" />
    <glyph glyph-name="W" unicode="W" horiz-adv-x="2213" 
d="M316 1820l270 -1274l25 -166l11 -1l32 165l331 1246h241l332 -1244l34 -170h12l25 170l266 1274h258l-430 -1820h-233l-343 1303l-36 163h-13l-36 -163l-343 -1303h-230l-429 1820h256z" />
    <glyph glyph-name="X" unicode="X" horiz-adv-x="1650" 
d="M384 1820l349 -579l92 -164l92 165l350 578h280l-579 -892l602 -928h-280l-363 584l-102 187l-102 -188l-363 -583h-280l603 928l-579 892h280z" />
    <glyph glyph-name="Y" unicode="Y" horiz-adv-x="1619" 
d="M329 1820l437 -837l42 -108h6l38 108l438 837h279l-638 -1151v-669h-245v674l-636 1146h279z" />
    <glyph glyph-name="Z" unicode="Z" horiz-adv-x="1535" 
d="M1374 1644l-986 -1437v-25h1027v-182h-1295v182l983 1428v26h-969v184h1240v-176z" />
    <glyph glyph-name="bracketleft" unicode="[" horiz-adv-x="690" 
d="M660 2060v-174h-235v-2082h235v-174h-461v2430h461z" />
    <glyph glyph-name="backslash" unicode="\" horiz-adv-x="1057" 
d="M819 -156l-760 1976h212l760 -1976h-212z" />
    <glyph glyph-name="bracketright" unicode="]" horiz-adv-x="690" 
d="M29 1886v174h462v-2430h-462v174h236v2082h-236z" />
    <glyph glyph-name="asciicircum" unicode="^" horiz-adv-x="1070" 
d="M295 911h-219l374 909h168l372 -909h-216l-223 621h-37z" />
    <glyph glyph-name="underscore" unicode="_" horiz-adv-x="1163" 
d="M1159 -20v-172h-1154v172h1154z" />
    <glyph glyph-name="grave" unicode="`" horiz-adv-x="777" 
d="M389 1898l198 -333h-177l-273 325l4 8h248z" />
    <glyph glyph-name="a" unicode="a" horiz-adv-x="1372" 
d="M599 170c81.333 0 158.168 19.334 230.501 58.001s119.166 84.667 140.499 138v300h-266c-46 0 -89.333 -5.33301 -130 -16s-77.5 -26.667 -110.5 -48s-59 -49.833 -78 -85.5s-28.5 -76.167 -28.5 -121.5c0 -70.667 20.667 -125.834 62 -165.501s101.333 -59.5 180 -59.5
zM697.002 1378c150.667 0 271.667 -39.5029 363 -118.503s137 -190.833 137 -335.5v-652c0 -104.667 18.333 -195.334 55 -272.001h-214c-36.667 65.333 -59.334 122.666 -68.001 171.999c-44 -55.333 -101.667 -102.166 -173 -140.499s-149.333 -57.5 -234 -57.5
c-139.333 0 -246.333 37.333 -321 112s-112 179.334 -112 314.001c0 62 10 117.333 30 166s47.167 88.834 81.5 120.501s75.666 57.834 123.999 78.501s99.333 35.334 153 44.001s111.834 13 174.501 13h277v104c0 83.333 -25.167 148.833 -75.5 196.5
s-120.833 71.5 -211.5 71.5c-162.667 0 -293 -44.667 -391 -134l-86 150c114.667 112 278.334 168 491.001 168z" />
    <glyph glyph-name="b" unicode="b" horiz-adv-x="1445" 
d="M1325 751l0.000976562 -166c0 -85.333 -11.333 -164.833 -34 -238.5s-55.5 -138.334 -98.5 -194.001s-98.333 -99.334 -166 -131.001s-144.167 -47.5 -229.5 -47.5c-178.667 0 -311.334 70 -398.001 210l-20 -184h-199v1910h236v-718c88 124 214.333 186 379 186
c88.667 0 167.5 -16.833 236.5 -50.5s124.5 -79.667 166.5 -138s73.667 -124.666 95 -198.999s32 -154.166 32 -239.499zM1089 585l-0.00195312 165.999c0 58.667 -6.5 113.167 -19.5 163.5s-33 96.5 -60 138.5s-64.167 75 -111.5 99s-102.666 36 -165.999 36
c-143.333 0 -248.666 -68.667 -315.999 -206v-606c67.333 -141.333 173.666 -212 318.999 -212c61.333 0 115 10.833 161 32.5s82.833 51.834 110.5 90.501s48.334 83 62.001 133s20.5 105 20.5 165z" />
    <glyph glyph-name="c" unicode="c" horiz-adv-x="1318" 
d="M715 156l1.00098 -0.0136719c84.667 0.666992 156.834 23.5 216.501 68.5s96.167 104.833 109.5 179.5l15 6l160 -80c-9.33301 -45.333 -26.666 -88.666 -51.999 -129.999s-58.333 -79.166 -99 -113.499s-91.334 -61.666 -152.001 -81.999s-127 -30.5 -199 -30.5
c-93.333 0 -177.833 15.833 -253.5 47.5s-138.167 75.334 -187.5 131.001s-87.333 120.834 -114 195.501s-40 155.334 -40 242.001v172c0 86.667 13.5 167.334 40.5 242.001s65.333 139.834 115 195.501s112.167 99.334 187.5 131.001s159.333 47.5 252 47.5h3
c71.333 0 137.166 -10.167 197.499 -30.5s110.833 -47.666 151.5 -81.999s73.667 -72.166 99 -113.499s42.666 -84.666 51.999 -129.999l-160 -80l-15 6c-13.333 74 -50 133.333 -110 178s-132.667 67.334 -218 68.001c-62 0 -116.5 -11.667 -163.5 -35
s-84.333 -55.333 -112 -96s-48.167 -86.167 -61.5 -136.5s-20 -105.166 -20 -164.499v-172c0 -60 6.5 -115.333 19.5 -166s33.167 -96.5 60.5 -137.5s64.5 -73 111.5 -96s102.167 -34.5 165.5 -34.5z" />
    <glyph glyph-name="d" unicode="d" horiz-adv-x="1445" 
d="M120 751l-0.000976562 -166c0 -85.333 11.333 -164.833 34 -238.5s55.5 -138.334 98.5 -194.001s98.333 -99.334 166 -131.001s144.167 -47.5 229.5 -47.5c178.667 0 311.334 70 398.001 210l19 -184h200v1910h-236v-718c-88 124 -214.333 186 -379 186
c-88.667 0 -167.5 -16.833 -236.5 -50.5s-124.5 -79.667 -166.5 -138s-73.667 -124.666 -95 -198.999s-32 -154.166 -32 -239.499zM355.999 585l0.00195312 165.999c0 58.667 6.5 113.167 19.5 163.5s33 96.5 60 138.5s64.167 75 111.5 99s102.666 36 165.999 36
c143.333 0 248.666 -68.667 315.999 -206v-606c-67.333 -141.333 -173.666 -212 -318.999 -212c-61.333 0 -115 10.833 -161 32.5s-82.833 51.834 -110.5 90.501s-48.334 83 -62.001 133s-20.5 105 -20.5 165z" />
    <glyph glyph-name="e" unicode="e" horiz-adv-x="1341" 
d="M738 -26c-96 0 -183.331 15.9971 -261.998 47.9971s-143.667 75.833 -195 131.5s-91 120.834 -119 195.501s-42 155 -42 241v165c0 110.667 24 213.334 72 308.001s116.667 170.834 206 228.501s189.666 86.5 300.999 86.5c361.333 0 542 -212.667 542 -638v-120h-868
v-76c0 -52 7.16699 -100.667 21.5 -146s35.666 -86.333 63.999 -123s66.5 -65.667 114.5 -87s103 -32 165 -32c162.667 0 293 44.667 391 134l86 -150c-113.333 -110.667 -272.333 -166 -477 -166zM699.002 1194c-92.667 0 -167.167 -30.333 -223.5 -91
s-90.5 -135 -102.5 -223v-76h632v80c0 94 -26 169.167 -78 225.5s-128 84.5 -228 84.5z" />
    <glyph glyph-name="f" unicode="f" horiz-adv-x="875" 
d="M489 0h-236.001v1180h-213v152l213 20v152c0 80.667 10 150.834 30 210.501s49 107.167 87 142.5s82.167 61.5 132.5 78.5s107.833 25.833 172.5 26.5c60.667 0.666992 127.334 -6.66602 200.001 -21.999l-14 -178c-61.333 9.33301 -111.333 13.666 -150 12.999
c-36 -0.666992 -67.167 -5.33398 -93.5 -14.001s-49.333 -23 -69 -43s-34.5 -47.833 -44.5 -83.5s-15 -79.167 -15 -130.5v-152h305v-172h-305v-1180z" />
    <glyph glyph-name="g" unicode="g" horiz-adv-x="1450" 
d="M135 545l-0.00195312 185.999c0 70 6.5 136.667 19.5 200s33.5 122.333 61.5 177s62.333 102 103 142s90.5 71.333 149.5 94s124.167 34 195.5 34c168 0 298 -67.333 390 -202l10 176h206v-1410c0 -157.333 -49.667 -278 -149 -362s-242.333 -126 -429 -126
c-65.333 0 -135.666 9 -210.999 27s-141.666 42.333 -198.999 73l38 181c48 -25.333 105.5 -45.666 172.5 -60.999s132.833 -23 197.5 -23c119.333 0 206.5 23.667 261.5 71s82.5 120.666 82.5 219.999v204c-89.333 -114.667 -213.666 -172 -372.999 -172
c-85.333 0 -161.833 14.667 -229.5 44s-122.834 70 -165.501 122s-75.167 112.333 -97.5 181s-33.5 143.334 -33.5 224.001zM370.998 730.999l0.00195312 -186c0 -114.667 28.833 -206.834 86.5 -276.501s146.5 -104.5 266.5 -104.5c138.667 0 242 64.667 310 194v642
c-70 125.333 -172.667 188 -308 188c-52 0 -98.333 -8.33301 -139 -25s-74.334 -39 -101.001 -67s-48.834 -61.833 -66.501 -101.5s-30.167 -81.167 -37.5 -124.5s-11 -89.666 -11 -138.999z" />
    <glyph glyph-name="h" unicode="h" horiz-adv-x="1456" 
d="M426 1910v-739c48 66 105.833 117 173.5 153s142.167 54 223.5 54c147.333 0 260.5 -40.833 339.5 -122.5s118.5 -204.167 118.5 -367.5v-888h-236v890c0 101.333 -24.5 176.333 -73.5 225s-123.167 73 -222.5 73c-146 0 -253.667 -54.667 -323 -164v-1024h-236v1910h236
z" />
    <glyph glyph-name="i" unicode="i" horiz-adv-x="646" 
d="M191 1770c0 44.667 11.667 80.666 35 107.999s55.333 41 96 41s73 -13.5 97 -40.5s36 -63.167 36 -108.5c0 -29.333 -5.33301 -55.166 -16 -77.499s-26.167 -39.333 -46.5 -51s-43.833 -17.5 -70.5 -17.5c-40.667 0 -72.667 13.167 -96 39.5s-35 61.833 -35 106.5z
M441 1352v-1352h-236v1352h236z" />
    <glyph glyph-name="j" unicode="j" horiz-adv-x="653" 
d="M198 1770c0 44.667 11.667 80.666 35 107.999s55.333 41 96 41s73 -13.5 97 -40.5s36 -63.167 36 -108.5c0 -29.333 -5.33301 -55.166 -16 -77.499s-26.167 -39.333 -46.5 -51s-43.833 -17.5 -70.5 -17.5c-40.667 0 -72.667 13.167 -96 39.5s-35 61.833 -35 106.5z
M216 1352l236 -0.000976562v-1423c0 -114 -24.5 -209 -73.5 -285s-116.667 -128.167 -203 -156.5s-185.5 -32.166 -297.5 -11.499v184c116 -16.667 201.333 -6 256 32s82 113.667 82 227v1433z" />
    <glyph glyph-name="k" unicode="k" horiz-adv-x="1312" 
d="M1013 0l-447 663l-150 -139v-524h-236v1910h236v-1135l48 61l483 516h294l-536 -563l582 -789h-274z" />
    <glyph glyph-name="l" unicode="l" horiz-adv-x="636" 
d="M436 1910v-1910h-236v1910h236z" />
    <glyph glyph-name="m" unicode="m" horiz-adv-x="2230" 
d="M180 1352l220 0.000976562l7 -197c93.333 148.667 228.333 223 405 223c88.667 0 164.334 -21 227.001 -63s109.667 -104.333 141 -187c44 79.333 101 140.833 171 184.5s150.667 65.5 242 65.5c137.333 0 244.5 -42.333 321.5 -127s115.5 -208.667 115.5 -372v-879h-237
v881c0 102.667 -20.333 179.5 -61 230.5s-111.334 76.5 -212.001 76.5c-84.667 0 -153.167 -23.833 -205.5 -71.5s-82.833 -106.834 -91.5 -177.501v-10v-929h-237v881c0 204.667 -91.333 307 -274 307c-143.333 0 -242 -65.667 -296 -197v-991h-236v1352z" />
    <glyph glyph-name="n" unicode="n" horiz-adv-x="1447" 
d="M180 1352l220.001 0.000976562l7 -221c45.333 79.333 102.166 140.333 170.499 183s145.5 64 231.5 64c148 0 261.333 -38.5 340 -115.5s118 -193.167 118 -348.5v-914h-236v909c0 99.333 -23.833 170.666 -71.5 213.999s-122.5 65 -224.5 65
c-148.667 0 -255 -64.667 -319 -194v-994h-236v1352z" />
    <glyph glyph-name="o" unicode="o" horiz-adv-x="1451" 
d="M120 581l0.00195312 188.001c0 114 23.667 216.833 71 308.5s117.166 164.667 209.499 219s200.166 81.5 323.499 81.5c94 0 179.5 -15.667 256.5 -47s140.833 -74.333 191.5 -129s89.834 -119 117.501 -193s41.5 -154 41.5 -240v-188c0 -86 -13.667 -165.833 -41 -239.5
s-66.333 -137.834 -117 -192.501s-114.334 -97.5 -191.001 -128.5s-161.667 -46.5 -255 -46.5c-94 0 -179.333 15.5 -256 46.5s-140.5 73.667 -191.5 128s-90.333 118.5 -118 192.5s-41.5 154 -41.5 240zM357.002 769.001l0.000976562 -187.998
c0 -58 7.16699 -112 21.5 -162s36 -95 65 -135s67.667 -71.333 116 -94s104.166 -34 167.499 -34c62.667 0 118 11.5 166 34.5s86.5 54.5 115.5 94.5s50.667 84.833 65 134.5s21.5 103.5 21.5 161.5v188c0 45.333 -4.5 88.5 -13.5 129.5s-23.333 79.667 -43 116
s-43.667 67.666 -72 93.999s-63.333 47.166 -105 62.499s-87.5 23 -137.5 23c-62 0 -117 -11.5 -165 -34.5s-86.5 -54.667 -115.5 -95s-50.667 -85.333 -65 -135s-21.5 -103.167 -21.5 -160.5z" />
    <glyph glyph-name="p" unicode="p" horiz-adv-x="1475" 
d="M1345 601l0.000976562 166c0 85.333 -11.333 164.833 -34 238.5s-55.5 138.334 -98.5 194.001s-98.333 99.334 -166 131.001s-144.167 47.5 -229.5 47.5c-178.667 0 -311.334 -70 -398.001 -210l-20 184h-199v-1870h236v678c88 -124 214.333 -186 379 -186
c88.667 0 167.5 16.833 236.5 50.5s124.5 79.667 166.5 138s73.667 124.666 95 198.999s32 154.166 32 239.499zM1109 767l-0.00195312 -165.999c0 -58.667 -6.5 -113.167 -19.5 -163.5s-33 -96.5 -60 -138.5s-64.167 -75 -111.5 -99s-102.666 -36 -165.999 -36
c-143.333 0 -248.666 68.667 -315.999 206v606c67.333 141.333 173.666 212 318.999 212c61.333 0 115 -10.833 161 -32.5s82.833 -51.834 110.5 -90.501s48.334 -83 62.001 -133s20.5 -105 20.5 -165z" />
    <glyph glyph-name="q" unicode="q" horiz-adv-x="1475" 
d="M130 601l-0.000976562 166c0 85.333 11.333 164.833 34 238.5s55.5 138.334 98.5 194.001s98.333 99.334 166 131.001s144.167 47.5 229.5 47.5c178.667 0 311.334 -70 398.001 -210l20 184h199v-1870h-236v678c-88 -124 -214.333 -186 -379 -186
c-88.667 0 -167.5 16.833 -236.5 50.5s-124.5 79.667 -166.5 138s-73.667 124.666 -95 198.999s-32 154.166 -32 239.499zM365.999 767l0.00195312 -165.999c0 -58.667 6.5 -113.167 19.5 -163.5s33 -96.5 60 -138.5s64.167 -75 111.5 -99s102.666 -36 165.999 -36
c143.333 0 248.666 68.667 315.999 206v606c-67.333 141.333 -173.666 212 -318.999 212c-61.333 0 -115 -10.833 -161 -32.5s-82.833 -51.834 -110.5 -90.501s-48.334 -83 -62.001 -133s-20.5 -105 -20.5 -165z" />
    <glyph glyph-name="r" unicode="r" horiz-adv-x="926" 
d="M896 1366l-46.001 -220.999c-115.333 16 -207 10.5 -275 -16.5s-121 -84.5 -159 -172.5v-956h-236v1352h220l13 -217c50.667 92 116.334 159.667 197.001 203s176 52.666 286 27.999z" />
    <glyph glyph-name="s" unicode="s" horiz-adv-x="1331" 
d="M675 -26l1.00293 2.99805c-146 0 -266.167 29.5 -360.5 88.5s-152.833 132.167 -175.5 219.5l174 87c19.333 -69.333 61.833 -122.666 127.5 -159.999s143.5 -56 233.5 -56c89.333 0 160 19.333 212 58s78 88.667 78 150c0 25.333 -3.5 48.333 -10.5 69
s-17.833 38.5 -32.5 53.5s-30.167 28 -46.5 39s-37.5 21 -63.5 30s-49.833 16.333 -71.5 22s-48.834 11.834 -81.501 18.501c-164.667 34.667 -288.334 82.5 -371.001 143.5s-124 140.5 -124 238.5c0 79.333 24 150 72 212s110 108.833 186 140.5s158.333 47.5 247 47.5h1
c132 0 242.333 -28.5 331 -85.5s143.667 -126.5 165 -208.5l-174 -87c-14.667 60 -53.334 107.833 -116.001 143.5s-131.667 53.5 -207 53.5c-78.667 0 -143.167 -18.167 -193.5 -54.5s-75.5 -87.833 -75.5 -154.5c0 -24.667 2.83301 -46.667 8.5 -66s15.5 -36 29.5 -50
s27.667 -25.5 41 -34.5s33 -17.5 59 -25.5s48.333 -14.167 67 -18.5s45.334 -10.166 80.001 -17.499c4.66699 -0.666992 8 -1.33398 10 -2.00098c168.667 -34.667 295.167 -83.667 379.5 -147s126.5 -144.333 126.5 -243c0 -84.667 -24.667 -158.5 -74 -221.5
s-113.333 -109.667 -192 -140s-165.334 -45.5 -260.001 -45.5z" />
    <glyph glyph-name="t" unicode="t" horiz-adv-x="850" 
d="M289 1679h195.999v-327h297v-172h-297v-831c0 -120.667 51.667 -181.334 155 -182.001c41.333 -0.666992 93 9 155 29v-177c-23.333 -13.333 -56.5 -24.166 -99.5 -32.499s-85.833 -12.5 -128.5 -12.5c-105.333 0 -184.666 32.5 -237.999 97.5s-80 157.5 -80 277.5v831
h-214v132l214 40z" />
    <glyph glyph-name="u" unicode="u" horiz-adv-x="1442" 
d="M1262 0l-220.001 -0.000976562l-7 221c-45.333 -79.333 -102.166 -140.333 -170.499 -183s-145.5 -64 -231.5 -64c-148 0 -261.333 38.5 -340 115.5s-118 193.167 -118 348.5v914h246v-909c0 -99.333 23 -170.666 69 -213.999s118.333 -65 217 -65
c148.667 0 255 64.667 319 194v994h236v-1352z" />
    <glyph glyph-name="v" unicode="v" horiz-adv-x="1307" 
d="M1006 1352l-315 -973l-24 -118h-22l-28 118l-316 973h-241l497 -1352h187l503 1352h-241z" />
    <glyph glyph-name="w" unicode="w" horiz-adv-x="1919" 
d="M1613 1352l-222 -940l-22 -133h-8l-27 135l-275 918h-198l-280 -922l-26 -131h-8l-21 131l-219 942h-247l383 -1352h198l284 924l34 135h9l33 -135l276 -924h199l383 1352h-246z" />
    <glyph glyph-name="x" unicode="x" horiz-adv-x="1287" 
d="M976 1352l-265 -426l-61 -112h-8l-61 112l-266 426h-242l458 -668l-471 -684h242l268 435l69 126h9l68 -124l268 -437h243l-471 684l459 668h-239z" />
    <glyph glyph-name="y" unicode="y" horiz-adv-x="1287" 
d="M990 1352l-345.998 -1091h-11l-26 118l-316 973h-241l486 -1330l-80 -210c-18.667 -48 -42.167 -86.5 -70.5 -115.5s-60.333 -47.833 -96 -56.5s-72.334 -11.334 -110.001 -8.00098s-78.834 12.333 -123.501 27v-172c280.667 -84 472 -7 574 231l607 1634h-247z" />
    <glyph glyph-name="z" unicode="z" horiz-adv-x="1294" 
d="M1152 1185l-749 -983v-20h791v-182h-1074v172l741 971v25h-733v184h1024v-167z" />
    <glyph glyph-name="braceleft" unicode="{" horiz-adv-x="870" 
d="M839 -308l-40 -137.001c-147.333 41.333 -259 107.5 -335 198.5s-114 215.167 -114 372.5v256c0 98 -21.833 173.667 -65.5 227s-108.834 80 -195.501 80v163c86.667 0 151.834 26.167 195.501 78.5s65.5 128.166 65.5 227.499v257c0 158 37.833 282.333 113.5 373
s187.5 156.667 335.5 198l40 -136c-168.667 -54 -253 -199 -253 -435v-257c0 -88.667 -17.833 -166.167 -53.5 -232.5s-88.5 -118.166 -158.5 -155.499c69.333 -37.333 122 -89.666 158 -156.999s54 -144.333 54 -231v-256c0 -114.667 20 -208.5 60 -281.5
s104.333 -123.833 193 -152.5z" />
    <glyph glyph-name="bar" unicode="|" horiz-adv-x="633" 
d="M428 1820v-2158h-223v2158h223z" />
    <glyph glyph-name="braceright" unicode="}" horiz-adv-x="870" 
d="M68 -445l-42.001 137c169.333 56 254 200.667 254 434v256c0 188.667 76.667 318 230 388c-153.333 68 -230 197.333 -230 388v257c0 234.667 -84.667 379.667 -254 435l42 136c96.667 -27.333 177.334 -64.333 242.001 -111s115.167 -108.5 151.5 -185.5
s54.5 -168.5 54.5 -274.5v-257c0 -204 87.333 -306 262 -306v-163c-88 0 -153.667 -26.5 -197 -79.5s-65 -128.833 -65 -227.5v-256c0 -156 -38.333 -280 -115 -372s-187.667 -158.333 -333 -199z" />
    <glyph glyph-name="asciitilde" unicode="~" horiz-adv-x="1738" 
d="M1414 938l165.999 -13.002c0 -71.333 -16.167 -138.666 -48.5 -201.999s-78 -114.5 -137 -153.5s-123.833 -58.5 -194.5 -58.5c-52 0 -103.167 10.167 -153.5 30.5s-95.333 44.833 -135 73.5l-117.5 86.5c-38.667 29 -80 53.667 -124 74s-87.667 30.5 -131 30.5
c-60 0 -110.5 -22.5 -151.5 -67.5s-61.5 -97.833 -61.5 -158.5l-166 12c0 110.667 36 205.334 108 284.001s162.333 118 271 118c41.333 0 85.833 -10.167 133.5 -30.5s93.334 -45 137.001 -74l130 -86.5c43 -28.667 87.5 -53.167 133.5 -73.5s88.333 -30.5 127 -30.5
c58.667 0 109 24.667 151 74s63 104.333 63 165z" />
    <glyph glyph-name="uni00A0" unicode="&#xa0;" horiz-adv-x="767" 
 />
    <glyph glyph-name="uni0E01" unicode="&#xe01;" horiz-adv-x="1480" 
d="M1300 1028l-0.00292969 -1028h-210v1028v1c0 36.667 -7.83301 69.334 -23.5 98.001s-36 51.667 -61 69s-54.833 31.666 -89.5 42.999s-69.167 19.166 -103.5 23.499s-70.5 6.5 -108.5 6.5c-41.333 0 -81.833 -3 -121.5 -9s-79.667 -16.167 -120 -30.5
s-74.333 -35.666 -102 -63.999s-45.167 -62.166 -52.5 -101.499c74.667 -30.667 136 -65 184 -103l-1 -961h-210v935c-42 20.667 -102.333 39.334 -181 56.001c8.66699 72.667 31.834 138 69.501 196s84.667 104.667 141 140s118 62.166 185 80.499s136.5 27.5 208.5 27.5
c69.333 0 138.333 -8.83301 207 -26.5s132.334 -42.667 191.001 -75s106.334 -75.166 143.001 -128.499s55 -112.333 55 -177z" />
    <glyph glyph-name="uni0E02" unicode="&#xe02;" horiz-adv-x="1426" 
d="M614 366l0.000976562 -1.00586c0 -64 16.667 -113.167 50 -147.5s79 -51.5 137 -51.5h48c56 0 101.167 17.5 135.5 52.5s51.5 84.167 51.5 147.5v1048h210v-1062c0 -106.667 -37.667 -192 -113 -256s-166.666 -96 -273.999 -96h-69c-68.667 0 -131.5 12.667 -188.5 38
s-104.167 65.5 -141.5 120.5s-56 120.167 -56 195.5v205c0 15.333 1 30.333 3 45s4 27.834 6 39.501s6.16699 24.834 12.5 39.501s10.666 25.834 12.999 33.501s8.5 19 18.5 34s16.167 24.833 18.5 29.5s9.83301 15.167 22.5 31.5s20 25.5 22 27.5s10.333 11.833 25 29.5
s22.334 26.834 23.001 27.501c18 24 32.167 44.333 42.5 61s20.166 39 29.499 67s14 56 14 84c-0.666992 40 -15 76.333 -43 109s-61.667 51.667 -101 57c27.333 -41.333 41 -86 41 -134c0 -65.333 -23.5 -121.333 -70.5 -168s-103.167 -70 -168.5 -70
s-121.166 23.333 -167.499 70s-69.5 102.667 -69.5 168c0 64 23 121.167 69 171.5s101.667 85.833 167 106.5c101.333 22 188.5 22.333 261.5 1s130.167 -59.166 171.5 -113.499s62.666 -118.833 63.999 -193.5c2 -98.667 -25.667 -186.667 -83 -264
c-44.667 -59.333 -74.334 -114.166 -89.001 -164.499s-22 -117.833 -22 -202.5v-115zM312.001 1024.99c32.667 0 60.167 11.167 82.5 33.5s33.5 49.5 33.5 81.5s-11.167 59.167 -33.5 81.5s-49.833 33.5 -82.5 33.5c-32 0 -59 -11.167 -81 -33.5s-33 -49.5 -33 -81.5
s11 -59.167 33 -81.5s49 -33.5 81 -33.5z" />
    <glyph glyph-name="uni0E03" unicode="&#xe03;" horiz-adv-x="1454" 
d="M1274 1412l-0.00292969 -1060c0 -106.667 -37.667 -192 -113 -256s-166.666 -96 -273.999 -96h-44c-68.667 0 -131.5 12.667 -188.5 38s-104.167 65.5 -141.5 120.5s-56 120.167 -56 195.5v121c0 45.333 9.16699 90.5 27.5 135.5s40.5 86.667 66.5 125l78.5 116
c26.333 39 48.5 82.167 66.5 129.5s27 95.333 27 144c0 28 -9.5 56.667 -28.5 86s-45.167 52.333 -78.5 69l-124 -89l-153 110c-43.333 -12.667 -80.333 -45.667 -111 -99c29.333 11.333 58 17 86 17c65.333 0 121.5 -23.333 168.5 -70s70.5 -102.667 70.5 -168
s-23.5 -121.5 -70.5 -168.5s-103.167 -70.5 -168.5 -70.5c-61.333 0 -114.833 21.167 -160.5 63.5s-71.167 94.166 -76.5 155.499h-1c-23.333 170 11.667 299.667 105 389c21.333 20 44.833 37 70.5 51s44.834 22.833 57.501 26.5s22.334 5.83398 29.001 6.50098l154 -116
l155 116c66 -24.667 120.667 -64.5 164 -119.5s65.333 -114.833 66 -179.5c0.666992 -52 -6.16602 -101.167 -20.499 -147.5s-31.833 -87.333 -52.5 -123l-62 -106c-20.667 -35 -38.334 -74.667 -53.001 -119s-22 -91.166 -22 -140.499v-133v-1
c0 -64 16.667 -113.167 50 -147.5s79 -51.5 137 -51.5h23c56 0 101.167 17.5 135.5 52.5s51.5 84.167 51.5 147.5v1046h210zM313.997 1096c-32 0 -59.167 -11.167 -81.5 -33.5s-33.5 -49.5 -33.5 -81.5c0 -32.667 11.167 -60 33.5 -82s49.5 -33 81.5 -33
c32.667 0 60 11 82 33s33 49.333 33 82c0 32 -11 59.167 -33 81.5s-49.333 33.5 -82 33.5z" />
    <glyph glyph-name="uni0E04" unicode="&#xe04;" horiz-adv-x="1577" 
d="M793 1431c54 0 108.337 -5 163.004 -15s108.667 -26.333 162 -49s100.5 -50.334 141.5 -83.001s74.167 -73.5 99.5 -122.5s38 -102.833 38 -161.5v-1001h-210v1009c0 44.667 -12.667 84.334 -38 119.001s-58.333 61.667 -99 81s-82.834 33.666 -126.501 42.999
s-87.167 14 -130.5 14c-39.333 0 -81 -5.5 -125 -16.5s-86.333 -26.667 -127 -47s-74.334 -48 -101.001 -83s-40 -74.167 -40 -117.5v-477l-8 -84l30 86l142 282l29 57c46.667 70.667 113.667 106 201 106c73.333 0 132.333 -22.167 177 -66.5s67 -102.833 67 -175.5
s-22.333 -131.5 -67 -176.5s-103.667 -67.5 -177 -67.5c-82.667 0 -148.667 34.667 -198 104c-26 -46.667 -61.167 -120.667 -105.5 -222s-74.5 -188.666 -90.5 -261.999v-106h-210v1021c0 68 18.333 129.167 55 183.5s84.667 97.5 144 129.5s123.666 56.333 192.999 73
s139.666 25 210.999 25zM794.004 844c-76 0 -114 -38.333 -114 -115s38 -115 114 -115c77.333 0 116 38.333 116 115s-38.667 115 -116 115z" />
    <glyph glyph-name="uni0E05" unicode="&#xe05;" horiz-adv-x="1577" 
d="M400 1004v-483.001l-10 -90l32 92l142 282l29 57c46.667 71.333 113.667 107 201 107c73.333 0 132.333 -22.333 177 -67s67 -103.334 67 -176.001c0 -73.333 -22.333 -132.333 -67 -177s-103.667 -67 -177 -67c-82.667 0 -148.667 34.667 -198 104
c-26 -46.667 -61.167 -120.667 -105.5 -222s-74.5 -188.666 -90.5 -261.999v-101h-210v1021c0 100.667 30.333 183.334 91 248.001s151 121 271 169c88 -87.333 168 -147.666 240 -180.999c69.333 35.333 149 96 239 182c110 -42 198.5 -100.5 265.5 -175.5
s100.5 -162.5 100.5 -262.5v-1001h-210v1009c0 135.333 -46.333 221.666 -139 258.999l-255 -178l-260 174c-88.667 -38 -133 -125 -133 -261zM794 840.999c-76 0 -114 -38.333 -114 -115s38 -115 114 -115c77.333 0 116 38.333 116 115s-38.667 115 -116 115z" />
    <glyph glyph-name="uni0E06" unicode="&#xe06;" horiz-adv-x="1576" 
d="M1186 1414l209.996 -0.000976562v-1414h-213c0 51.333 -11.167 101.833 -33.5 151.5s-53.166 94.5 -92.499 134.5s-89.166 72.333 -149.499 97s-125.5 37 -195.5 37v-285c0 -34 -13.5 -63.667 -40.5 -89s-58.167 -43.5 -93.5 -54.5s-70 -16.5 -104 -16.5
c-74 0 -138.5 25.333 -193.5 76s-82.5 113.667 -82.5 189c0 86.667 28.333 158 85 214s130 86.667 220 92v105c10 29.333 25.5 60.833 46.5 94.5s41.667 64.5 62 92.5s40.166 57.333 59.499 88s34.333 63 45 97s15 68.333 13 103c-1.33301 28 -11.333 56.667 -30 86
s-44.334 52.333 -77.001 69l-124 -89l-152 110c-44 -13.333 -81.333 -46 -112 -98c28 10.667 57 16 87 16c65.333 0 121.333 -23.333 168 -70s70 -102.667 70 -168s-23.333 -121.333 -70 -168s-102.667 -70 -168 -70c-62 0 -115.833 21 -161.5 63s-71.167 93.667 -76.5 155
h-1c-23.333 170 11.667 299.667 105 389c21.333 20 44.833 37 70.5 51s44.834 22.833 57.501 26.5s22.334 5.83398 29.001 6.50098l154 -116l155 116c64.667 -24 118 -63.333 160 -118s65.333 -115 70 -181c2.66699 -45.333 -3.5 -91.333 -18.5 -138
s-32.5 -86.5 -52.5 -119.5s-40.5 -71.833 -61.5 -116.5s-34.833 -85.667 -41.5 -123l2 -95c98.667 0 190.334 -20 275.001 -60s151.334 -96 200.001 -168v1098zM320.996 1088c-28.667 0 -53.332 -10.333 -73.999 -31s-31 -45.667 -31 -75s10.167 -54 30.5 -74
s45.166 -30 74.499 -30s54.166 10 74.499 30s30.5 44.667 30.5 74s-10.167 54.333 -30.5 75s-45.166 31 -74.499 31zM460.998 94.999c14.667 0.666992 24.832 7.83398 30.499 21.501s8.16699 36.167 7.5 67.5v237c-47.333 0 -86.166 -14.833 -116.499 -44.5
s-45.5 -68.834 -45.5 -117.501v-19c1.33301 -35.333 13.5 -68.333 36.5 -99s52.167 -46 87.5 -46z" />
    <glyph glyph-name="uni0E07" unicode="&#xe07;" horiz-adv-x="1112" 
d="M932 1189l-0.00195312 -1051h-3c-40.667 -52.667 -100.667 -98.667 -180 -138h-195c-77.333 130.667 -169 273 -275 427s-190.667 259.667 -254 317l90 174c50 -44 114.833 -119.333 194.5 -226s148 -203.5 205 -290.5s103.833 -161.167 140.5 -222.5h50
c8.66699 0.666992 14.334 4.33398 17.001 11.001v760c-7.33301 -1.33301 -22.666 -2 -45.999 -2c-72.667 0 -131.167 22.167 -175.5 66.5s-66.5 103.166 -66.5 176.499s22.167 132.166 66.5 176.499s102.833 66.5 175.5 66.5c75.333 0 136.833 -21.167 184.5 -63.5
s71.5 -102.166 71.5 -179.499v-2zM560.998 1191c0 -76.667 38.333 -115 115 -115s115 38.333 115 115s-38.333 115 -115 115s-115 -38.333 -115 -115z" />
    <glyph glyph-name="uni0E08" unicode="&#xe08;" horiz-adv-x="1407" 
d="M1227 1011l0.00292969 -872.005l-13 -13.5c-8 -8.33301 -16.5 -16.666 -25.5 -24.999s-20.333 -18.166 -34 -29.499s-30.334 -23.166 -50.001 -35.499s-40.834 -24.166 -63.501 -35.499h-173l-195 522c-42 -32 -93.667 -48 -155 -48c-72.667 0 -131.167 22.333 -175.5 67
s-66.5 103.667 -66.5 177c0 66.667 22 120.334 66 161.001s102.667 61 176 61c52 0 97.167 -9.66699 135.5 -29s67.166 -46.333 86.499 -81l236 -646h41v812c0 61.333 -16.667 113 -50 155s-76.666 72 -129.999 90s-115 27 -185 27
c-116.667 0 -210.334 -23.667 -281.001 -71s-113.667 -116 -129 -206l-151 93c13.333 52 37.5 100 72.5 144s77.333 81 127 111s105.5 53.333 167.5 70s126.667 25 194 25c56.667 0 112.334 -5.5 167.001 -16.5s106.667 -28.167 156 -51.5s92.666 -51.5 129.999 -84.5
s67 -72.667 89 -119s33 -96.833 33 -151.5zM518.003 601.995c76.667 0 115 38.667 115 116c0 76 -38.333 114 -115 114s-115 -38 -115 -114c0 -77.333 38.333 -116 115 -116z" />
    <glyph glyph-name="uni0E09" unicode="&#xe09;" horiz-adv-x="1585" 
d="M363 525c76 0 114 38.333 114 115c0 77.333 -38 116 -114 116s-114 -38.667 -114 -116c0 -76.667 38 -115 114 -115zM1203 108c42 0 73.833 11 95.5 33s32.5 53.667 32.5 95c0 86 -42.667 129 -128 129c-42 0 -74 -11 -96 -33s-33 -54 -33 -96c0 -41.333 11 -73 33 -95
s54 -33 96 -33zM1393 1002l0.000976562 -466c-8.66699 -19.333 -27.334 -42 -56.001 -68c40 -21.333 71.333 -52.166 94 -92.499s34 -86.833 34 -139.5c0 -78 -24 -141 -72 -189s-111.333 -72 -190 -72c-78 0 -141.167 24 -189.5 72s-72.5 111 -72.5 189
c0 46 12 90.333 36 133c-51.333 -8.66699 -103 -28.334 -155 -59.001s-97.333 -71.334 -136 -122.001s-61 -104 -67 -160v-29l-210 1v400c-6.66699 -1.33301 -22 -2 -46 -2c-73.333 0 -132.166 22.167 -176.499 66.5s-66.5 102.833 -66.5 175.5
c0 74 22.167 133.167 66.5 177.5s103.166 66.5 176.499 66.5c74 0 134.833 -22.333 182.5 -67s71.5 -103.667 71.5 -177v-332c71.333 72 156.5 128.333 255.5 169s195.833 58.667 290.5 54c8.66699 8.66699 15.334 18.334 20.001 29.001v431
c-3.33301 48 -17.833 90.333 -43.5 127s-58.334 65.667 -98.001 87s-82 37.166 -127 47.499s-91.167 15.5 -138.5 15.5c-52.667 0 -99.667 -3.16699 -141 -9.5s-84.333 -18.5 -129 -36.5s-82.834 -46.5 -114.501 -85.5s-54.5 -87.5 -68.5 -145.5l-148 95
c18 61.333 47 115 87 161s87.5 82.333 142.5 109s113.5 46.334 175.5 59.001s127.333 19 196 19c76 0 149.167 -8.33301 219.5 -25s135.833 -41.5 196.5 -74.5s109.334 -78.167 146.001 -135.5s55 -123 55 -197z" />
    <glyph glyph-name="uni0E0A" unicode="&#xe0a;" horiz-adv-x="1429" 
d="M1199 1555l189.002 -0.000976562c0 -193.333 -120 -321.333 -360 -384c145.333 -86 218 -178.333 218 -277v-542c0 -106.667 -37.667 -192 -113 -256s-166.666 -96 -273.999 -96h-69c-68.667 0 -131.5 12.667 -188.5 38s-104.167 65.5 -141.5 120.5
s-56 120.167 -56 195.5v205c0 29.333 2.83301 56.833 8.5 82.5s15.5 51.167 29.5 76.5s25.667 45 35 59s25.166 35 47.499 63s36.833 46.667 43.5 56c18 24 32.167 44.333 42.5 61s20.333 39 30 67s14.167 56 13.5 84c-0.666992 40 -15 76.333 -43 109
s-61.667 51.667 -101 57c27.333 -41.333 41 -86 41 -134c0 -65.333 -23.5 -121.333 -70.5 -168s-103.167 -70 -168.5 -70s-121.166 23.333 -167.499 70s-69.5 102.667 -69.5 168c0 45.333 14.667 91.333 44 138c14 22.667 31.5 43.5 52.5 62.5s41.5 33.667 61.5 44
s36.167 18 48.5 23s22.166 8.5 29.499 10.5c140 34.667 257.333 21.167 352 -40.5s143 -150.167 145 -265.5c1.33301 -100 -26.334 -188 -83.001 -264c-44.667 -59.333 -74.334 -114.166 -89.001 -164.499s-22 -117.833 -22 -202.5v-115v-1c0 -64 16.667 -113.167 50 -147.5
s79 -51.5 137 -51.5h48c56 0 101.167 17.5 135.5 52.5s51.5 84.167 51.5 147.5v509c0 112.667 -66 199 -198 259v95c118.667 28.667 207.5 69 266.5 121s90.5 120.333 94.5 205zM312.002 1025c32.667 0 60.167 11.167 82.5 33.5s33.5 49.5 33.5 81.5
s-11.167 59.167 -33.5 81.5s-49.833 33.5 -82.5 33.5c-32 0 -59 -11.167 -81 -33.5s-33 -49.5 -33 -81.5s11 -59.167 33 -81.5s49 -33.5 81 -33.5z" />
    <glyph glyph-name="uni0E0B" unicode="&#xe0b;" horiz-adv-x="1463" 
d="M321 1098c-32 0 -59.167 -11.334 -81.5 -34.001s-33.5 -50 -33.5 -82s11.167 -59 33.5 -81s49.5 -33 81.5 -33c32.667 0 60 10.833 82 32.5s33 48.834 33 81.501c0 32 -11.167 59.333 -33.5 82s-49.5 34 -81.5 34zM1281 893.999l-0.00195312 -542.002
c-0.666992 -71.333 -19.167 -134.166 -55.5 -188.499s-83.5 -95.166 -141.5 -122.499s-121.667 -41 -191 -41h-44c-68.667 0 -131.5 12.667 -188.5 38s-104.167 65.5 -141.5 120.5s-56 120.167 -56 195.5v122c0 44.667 9.66699 89.667 29 135s42.5 87.166 69.5 125.499
l80.5 116c26.667 39 48.5 82.167 65.5 129.5s24.167 95.333 21.5 144c-2 28.667 -12.167 57.667 -30.5 87s-43.833 52 -76.5 68l-124 -89l-152 110c-44 -13.333 -81.333 -46 -112 -98c28 10.667 57 16 87 16c65.333 0 121.333 -23.333 168 -70s70 -102.667 70 -168
s-23.333 -121.333 -70 -168s-102.667 -70 -168 -70c-62 0 -115.833 21 -161.5 63s-71.167 93.667 -76.5 155h-1c-23.333 170 11.667 299.667 105 389c21.333 20 44.833 37 70.5 51s44.834 22.833 57.501 26.5s22.334 5.83398 29.001 6.50098l154 -116l155 116
c64.667 -24 118 -63.333 160 -118s65.333 -115 70 -181c3.33301 -52 -1.5 -101.167 -14.5 -147.5s-30.167 -87.333 -51.5 -123l-64.5 -105.5c-21.667 -34.667 -40.334 -74.334 -56.001 -119.001s-23.5 -91.667 -23.5 -141v-134v-1c0 -63.333 16.667 -112.333 50 -147
s79.333 -52 138 -52h22c56 0 100.833 17.5 134.5 52.5s51.5 84.167 53.5 147.5v509c0.666992 55.333 -14.833 104.166 -46.5 146.499s-77.167 75.833 -136.5 100.5c0 26.667 -5.33301 62.334 -16 107.001c118 28 206.667 67.333 266 118s91 114.667 95 192v16h189v-21
c0 -90 -31.167 -165.5 -93.5 -226.5s-151.166 -106.5 -266.499 -136.5c145.333 -85.333 218.333 -177.666 219 -276.999z" />
    <glyph glyph-name="uni0E0C" unicode="&#xe0c;" horiz-adv-x="2126" 
d="M537 336c-76 0 -114 -38.333 -114 -115c0 -77.333 38 -116 114 -116s114 38.667 114 116c0 76.667 -38 115 -114 115zM1090 541l-0.00390625 474v1c0 45.333 -11.667 85.166 -35 119.499s-54.333 60.833 -93 79.5s-79.5 32.334 -122.5 41.001s-88.167 13 -135.5 13
c-41.333 0 -81.833 -3 -121.5 -9s-79.834 -16.167 -120.501 -30.5s-74.834 -35.666 -102.501 -63.999s-45.167 -62.166 -52.5 -101.499c74.667 -30.667 136 -65 184 -103v-500c10 2 25.333 3 46 3c72.667 0 131.334 -22.333 176.001 -67s67 -103.334 67 -176.001
c0 -74 -22.167 -133 -66.5 -177s-103.166 -66 -176.499 -66c-74 0 -134.833 22.167 -182.5 66.5s-71.5 103.166 -71.5 176.499l-2 714c-42 20.667 -102.333 39.334 -181 56.001c8.66699 72.667 31.834 138 69.501 196s84.667 104.667 141 140s118 62.166 185 80.499
s136.5 27.5 208.5 27.5c69.333 0 138.333 -8.83301 207 -26.5s132.334 -42.667 191.001 -75s106.334 -75.166 143.001 -128.499s55 -112.333 55 -177v-489c91.333 0 179.333 -21.333 264 -64s142 -95 172 -157v1096h210v-1414h-212c0 77.333 -16 147 -48 209
s-81.333 112 -148 150s-146 57 -238 57v-281c0 -34 -12.667 -63.667 -38 -89s-53.666 -43.5 -84.999 -54.5s-61.333 -16.5 -90 -16.5c-62 0 -117.167 25.5 -165.5 76.5s-72.5 113.833 -72.5 188.5c0 86.667 22.333 157.167 67 211.5s102.667 84.166 174 89.499zM1064 95
c18 0.666992 26.6689 30.333 26.002 89v232c-34.667 0 -62.5 -14 -83.5 -42s-31.5 -66.333 -31.5 -115v-19c1.33301 -34.667 10.666 -67.5 27.999 -98.5s37.666 -46.5 60.999 -46.5z" />
    <glyph glyph-name="uni0E0D" unicode="&#xe0d;" horiz-adv-x="2134" 
d="M537 336c-76 0 -114 -38.333 -114 -115c0 -77.333 38 -116 114 -116s114 38.667 114 116c0 76.667 -38 115 -114 115zM1300 379c0.666992 -64.667 19.6641 -116.334 56.9971 -155.001s85 -58 143 -58h47c56 0 102.833 19.667 140.5 59s57.5 90.666 59.5 153.999v1033h210
v-1047c-0.666992 -72 -19 -136.167 -55 -192.5s-83.167 -99.166 -141.5 -128.499s-121.833 -44 -190.5 -44h-94c-67.333 0 -129.333 13.833 -186 41.5s-103.5 69.667 -140.5 126s-56.833 122.5 -59.5 198.5v649v1c0 45.333 -11.667 85.166 -35 119.499
s-54.333 60.833 -93 79.5s-79.5 32.334 -122.5 41.001s-88.167 13 -135.5 13c-41.333 0 -81.833 -3 -121.5 -9s-79.834 -16.167 -120.501 -30.5s-74.834 -35.666 -102.501 -63.999s-45.167 -62.166 -52.5 -101.499c74.667 -30.667 136 -65 184 -103v-500c10 2 25.333 3 46 3
c72.667 0 131.334 -22.333 176.001 -67s67 -103.334 67 -176.001c0 -74 -22.167 -133 -66.5 -177s-103.166 -66 -176.499 -66c-74 0 -134.833 22.167 -182.5 66.5s-71.5 103.166 -71.5 176.499l-2 714c-42 20.667 -102.333 39.334 -181 56.001
c8.66699 72.667 31.834 138 69.501 196s84.667 104.667 141 140s118 62.166 185 80.499s136.5 27.5 208.5 27.5c69.333 0 138.333 -8.83301 207 -26.5s132.334 -42.667 191.001 -75s106.334 -75.166 143.001 -128.499s55 -112.333 55 -177v-649zM1774 -131
l189.998 0.00195312c-29.333 -132.667 -90 -232.334 -182 -299.001s-207.333 -100 -346 -100c-32.667 0 -64.667 2 -96 6s-64.333 11.667 -99 23s-65 25.833 -91 43.5s-47.5 41.667 -64.5 72s-25.5 65.166 -25.5 104.499c0 64.667 19 116 57 154s89.333 57 154 57
s115.834 -19 153.501 -57s56.5 -89.333 56.5 -154c0 -44.667 -12 -84 -36 -118c91.333 -6 162.833 12.5 214.5 55.5s89.834 113.833 114.501 212.5zM1271 -171.998c-73.333 0 -110 -36.333 -110 -109s36.667 -109 110 -109c72.667 0 109 36.333 109 109
s-36.333 109 -109 109z" />
    <glyph glyph-name="uni0E0E" unicode="&#xe0e;" horiz-adv-x="1550" 
d="M774 1435c69.333 0 138.333 -8.8418 207 -26.5088s132.334 -42.667 191.001 -75s106.334 -75.166 143.001 -128.499s55 -112.333 55 -177v-1422c-42.667 -66 -112.667 -99.333 -210 -100c-28.667 8 -73.167 38.833 -133.5 92.5s-101.166 86.834 -122.499 99.501
c-42 -63.333 -94.333 -111.333 -157 -144s-131.667 -49 -207 -49h-15c-46.667 22 -80.834 56 -102.501 102s-27.167 93.333 -16.5 142c14 58 46.333 101.667 97 131s107.334 44 170.001 44c52 0 109.667 -14.667 173 -44c5.33301 18.667 9.16602 37.667 11.499 57
s3.16602 33.666 2.49902 42.999v15h139l-1 -11c-1.33301 -7.33301 -2.83301 -16.666 -4.5 -27.999s-3.83398 -24.166 -6.50098 -38.499s-6.5 -30.666 -11.5 -48.999s-10.5 -36.166 -16.5 -53.499c20 -14 40 -28.833 60 -44.5s35.5 -28.167 46.5 -37.5l50 -43l44.5 -39v1364
v1c0 45.333 -11.667 85.166 -35 119.499s-54.333 60.833 -93 79.5s-79.5 32.334 -122.5 41.001s-88.167 13 -135.5 13c-41.333 0 -81.833 -3 -121.5 -9s-79.834 -16.167 -120.501 -30.5s-74.834 -35.666 -102.501 -63.999s-45.167 -62.166 -52.5 -101.499
c32.667 -13.333 71.167 -33.166 115.5 -59.499s79.166 -49.5 104.499 -69.5v-714c0 -73.333 -23.833 -132.166 -71.5 -176.499s-108.5 -66.5 -182.5 -66.5c-73.333 0 -132.166 22 -176.499 66s-66.5 103 -66.5 177c0 72.667 22.333 131.334 67 176.001
s103.334 67 176.001 67c20.667 0 36 -1 46 -3v457c-63.333 30.667 -136.333 55 -219 73c8.66699 72.667 31.834 138 69.501 196s84.667 104.667 141 140s118 62.166 185 80.499s136.5 27.5 208.5 27.5zM457 220.991c0 76.667 -38 115 -114 115s-114 -38.333 -114 -115
c0 -77.333 38 -116 114 -116s114 38.667 114 116zM557 -368.009c105.333 8 184.332 52 236.999 132c-44.667 20.667 -85 31 -121 31c-83.333 0 -130.666 -25 -141.999 -75c-4 -15.333 -3.33301 -31.333 2 -48s13.333 -30 24 -40z" />
    <glyph glyph-name="uni0E0F" unicode="&#xe0f;" horiz-adv-x="1550" 
d="M774 1432c69.333 0 138.33 -8.83691 206.997 -26.5039s132.334 -42.667 191.001 -75s106.334 -75.166 143.001 -128.499s55 -112.333 55 -177v-1421c-42.667 -66 -112.667 -99.333 -210 -100v1c-16 0.666992 -34.333 11 -55 31s-43.167 45.5 -67.5 76.5
s-41.833 51.5 -52.5 61.5l-116 -169h-30c-14 0 -27.333 4 -40 12s-22.5 16.667 -29.5 26s-17.167 23.666 -30.5 42.999c-8 12 -19 27.333 -33 46c-76.667 -86.667 -183.667 -130 -321 -130h-12c-43.333 18 -75.833 46.5 -97.5 85.5s-27.834 79.167 -18.501 120.5
c10 53.333 39.833 92.833 89.5 118.5s105.5 38.5 167.5 38.5c62.667 0 118.334 -15.667 167.001 -47c15.333 40.667 23 74.667 23 102h119c0 -6 -0.666992 -15.833 -2 -29.5s-6 -36.167 -14 -67.5s-18.667 -60.666 -32 -87.999c8 -8.66699 28 -35.334 60 -80.001l114 151
l28 3c16.667 0 32.334 -6.33301 47.001 -19s40.334 -40 77.001 -82c16.667 -20.667 36.334 -43 59.001 -67v8v1363v2c0 45.333 -11.667 85 -35 119s-54.333 60.333 -93 79s-79.5 32.334 -122.5 41.001s-88.167 13 -135.5 13c-41.333 0 -81.833 -3 -121.5 -9
s-79.834 -16.167 -120.501 -30.5s-74.834 -35.666 -102.501 -63.999s-45.167 -62.166 -52.5 -101.499c32.667 -13.333 71.167 -33.166 115.5 -59.499s79.166 -49.5 104.499 -69.5v-713c0 -73.333 -23.833 -132.333 -71.5 -177s-108.5 -67 -182.5 -67
c-73.333 0 -132.166 22.167 -176.499 66.5s-66.5 103.5 -66.5 177.5c0 72.667 22.167 131.167 66.5 175.5s103.166 66.5 176.499 66.5c24 0 39.333 -0.666992 46 -2v456c-66 32 -139 56.667 -219 74c8.66699 72.667 31.834 138 69.501 196s84.667 104.5 141 139.5
s118 61.667 185 80s136.5 27.5 208.5 27.5zM456.997 218.996c0 76.667 -38 115 -114 115s-114 -38.333 -114 -115c0 -78 38 -117 114 -117s114 39 114 117zM398.997 -380.004c96 2 170.667 33.667 224 95c-32.667 22 -69 33 -109 33c-40.667 0 -73.334 -5.66699 -98.001 -17
s-39 -27 -43 -47c-5.33301 -26.667 3.33398 -48 26.001 -64z" />
    <glyph glyph-name="uni0E10" unicode="&#xe10;" horiz-adv-x="1309" 
d="M575 1262c-66 0 -124.326 -19.1709 -174.993 -57.5039s-77.334 -88.833 -80.001 -151.5c14.667 0 38.667 0.333008 72 1c188 1.33301 328 -5.66699 420 -21c210 -36.667 315 -123.667 315 -261v-633l-13 -13.5c-8 -8.33301 -16.5 -16.666 -25.5 -24.999
s-20.333 -18.166 -34 -29.499s-30.334 -23.166 -50.001 -35.499s-40.834 -24.166 -63.501 -35.499h-172l-180 374c-45.333 -45.333 -104 -68 -176 -68c-72.667 0 -131.334 22.333 -176.001 67s-67 103.667 -67 177c0 72.667 22.167 131.167 66.5 175.5
s103.166 66.5 176.499 66.5c54.667 0 101.667 -12.833 141 -38.5s68 -60.834 86 -105.501l236 -464h41v584c-2.66699 19.333 -12.5 37 -29.5 53s-40 29.333 -69 40s-60.833 19.834 -95.5 27.501s-73.5 13.5 -116.5 17.5s-83.667 7.33301 -122 10s-79.5 4.16699 -123.5 4.5
s-80.833 0.5 -110.5 0.5s-60.167 -0.333008 -91.5 -1s-51 -1 -59 -1c0 94 20.333 180 61 258s97.5 139.833 170.5 185.5s154.167 68.5 243.5 68.5c22.667 0 45 -1 67 -3s46.167 -5.83301 72.5 -11.5l60 -13c13.667 -3 36.834 -9 69.501 -18s53.334 -14.5 62.001 -16.5
c18 -4 35.833 -6.16699 53.5 -6.5s33.167 1 46.5 4s26.5 7.16699 39.5 12.5s23.667 10.5 32 15.5s16.166 10.5 23.499 16.5s12.166 10.167 14.499 12.5l5.5 5.5l-1 -1l79 -143c-34 -39.333 -82.333 -65 -145 -77s-125.334 -10 -188.001 6
c-1.33301 0 -11.833 2.66699 -31.5 8s-33.834 9 -42.501 11l-45.5 10c-21.667 4.66699 -40 8 -55 10s-33.333 4 -55 6s-42.167 3 -61.5 3zM413.007 434.996c76 0 114 38.333 114 115s-38 115 -114 115c-77.333 0 -116 -38.333 -116 -115s38.667 -115 116 -115z
M950.007 -501.004l-12.9951 82.002l-1 11c-57.333 -2 -100.166 13 -128.499 45s-42.5 73.667 -42.5 125c0 50 15.667 91.333 47 124s72.666 49 123.999 49c57.333 0 103.5 -13.667 138.5 -41s52.5 -67 52.5 -119v-316c-21.333 -31.333 -49.5 -56.333 -84.5 -75
s-73.5 -26.334 -115.5 -23.001c-16.667 1.33301 -43.334 16.166 -80.001 44.499s-62.334 43.5 -77.001 45.5l-133 -89c-5.33301 0 -10.5 0.5 -15.5 1.5s-10 3.16699 -15 6.5l-12 8c-3 2 -7.16699 6.16699 -12.5 12.5l-10.5 12.5c-1.66699 2 -5.66699 7.5 -12 16.5
s-10.5 14.5 -12.5 16.5c-2.66699 3.33301 -7 9.83301 -13 19.5s-11 17.167 -15 22.5c-71.333 -78.667 -167.666 -118 -288.999 -118h-11c-38.667 16.667 -67.334 42 -86.001 76s-24.667 70.333 -18 109c6 33.333 21.5 61.166 46.5 83.499s53 37.833 84 46.5
s64.167 13 99.5 13c55.333 0 105.666 -14.333 150.999 -43c5.33301 14.667 9.66602 29.834 12.999 45.501s5.33301 27.5 6 35.5l1 12h108c-2.66699 -56 -17.334 -112 -44.001 -168c6 -6.66699 24.333 -30.667 55 -72l101 73c12.667 6 30.5 3.66699 53.5 -7
s48.5 -25.167 76.5 -43.5s48.333 -29.833 61 -34.5zM241.012 -534.002c87.333 2 155 30.667 203 86c-31.333 20 -64.333 30 -99 30c-35.333 0 -64.166 -5.16699 -86.499 -15.5s-35.5 -24.5 -39.5 -42.5c-2.66699 -10.667 -1.83398 -21.5 2.49902 -32.5
s10.833 -19.5 19.5 -25.5zM1025.01 -238.002c0 59.333 -29.668 89 -89.001 89c-57.333 0 -86 -29.667 -86 -89c0 -30.667 6.83301 -52.834 20.5 -66.501s35.834 -20.5 66.501 -20.5s53 6.83301 67 20.5s21 35.834 21 66.501z" />
    <glyph glyph-name="uni0E11" unicode="&#xe11;" horiz-adv-x="1721" 
d="M666 499l-0.00488281 -120.999l-6 -117l28 119c4 16.667 17 59.334 39 128.001s53.167 156.334 93.5 263.001s82.666 208.667 126.999 306s92.333 181.166 144 251.499s98.167 105.5 139.5 105.5c42.667 0 88 -10.667 136 -32s88.5 -48.166 121.5 -80.499
s50.5 -62.833 52.5 -91.5v-1230h-210v1169c0 10 -1.5 18.833 -4.5 26.5s-8.5 14.5 -16.5 20.5s-14.167 10.167 -18.5 12.5s-12.166 5.66602 -23.499 9.99902s-17.333 6.83301 -18 7.5c-25.333 0 -62.166 -41.833 -110.499 -125.5s-97.833 -184.834 -148.5 -303.501
l-146.5 -356.5c-47 -119 -85.5 -220.167 -115.5 -303.5l-45 -125v-32h-227l-1 475c0 44.667 8.5 89.667 25.5 135s37.5 87.166 61.5 125.499l71.5 116c23.667 39 43 82.167 58 129.5s21.167 95.333 18.5 144c-4.66699 74 -30 125.667 -76 155l-124 -89l-153 110
c-43.333 -12.667 -80.333 -45.667 -111 -99c29.333 11.333 58 17 86 17c65.333 0 121.5 -23.333 168.5 -70s70.5 -102.667 70.5 -168s-23.5 -121.5 -70.5 -168.5s-103.167 -70.5 -168.5 -70.5c-61.333 0 -114.833 21.167 -160.5 63.5s-71.167 94.166 -76.5 155.499h-1
c-23.333 170 11.667 299.667 105 389c21.333 20 44.833 37 70.5 51s44.834 22.833 57.501 26.5s22.334 5.83398 29.001 6.50098l154 -116l155 116c57.333 -23.333 102.333 -62.333 135 -117s49.334 -115.334 50.001 -182.001c0 -52 -5.5 -101.167 -16.5 -147.5
s-24.667 -87.333 -41 -123l-49 -106c-16.333 -35 -30.166 -74.667 -41.499 -119s-17 -91.166 -17 -140.499zM312.995 1096c-32 0 -59.167 -11.167 -81.5 -33.5s-33.5 -49.5 -33.5 -81.5c0 -32.667 11.167 -60 33.5 -82s49.5 -33 81.5 -33c32.667 0 60 11 82 33
s33 49.333 33 82c0 32 -11 59.167 -33 81.5s-49.333 33.5 -82 33.5z" />
    <glyph glyph-name="uni0E12" unicode="&#xe12;" horiz-adv-x="2223" 
d="M680 730c0 -76.667 38 -115 114 -115c77.333 0 116 38.333 116 115s-38.667 115 -116 115c-76 0 -114 -38.333 -114 -115zM1187 533v477.999c0 135.333 -46.333 221.666 -139 258.999l-255 -178l-260 174c-88.667 -38 -133 -125 -133 -261v-790
c31.333 32 64.166 63.333 98.499 94l121 104.5l100.5 85.5c-112 31.333 -168 108.333 -168 231c0 73.333 22 132 66 176s102.667 66 176 66c74 0 133.167 -22 177.5 -66s66.5 -102.667 66.5 -176c0 -30 -5.16699 -59.667 -15.5 -89s-22.166 -54.5 -35.499 -75.5
s-33 -44.667 -59 -71s-47.667 -46.666 -65 -60.999l-76 -61l-71 -56.5l-118 -99.5c-28 -24.333 -61.333 -56.333 -100 -96s-71.334 -78.167 -98.001 -115.5v-3h-210v1022c0 100.667 30.167 183.167 90.5 247.5s150.833 120.5 271.5 168.5
c88 -87.333 168 -147.666 240 -180.999c69.333 35.333 149 96 239 182c110 -42 198.5 -100.333 265.5 -175s100.5 -162 100.5 -262v-473c92 0 179.667 -20.5 263 -61.5s141 -91.5 173 -151.5v1096h210v-1414h-212c0 116 -39 213 -117 291s-183.667 117 -317 117v-273
c0 -34 -12.667 -63.667 -38 -89s-53.666 -43.5 -84.999 -54.5s-61.333 -16.5 -90 -16.5c-62 0 -117.167 25.5 -165.5 76.5s-72.5 113.833 -72.5 188.5c0 84 22.333 152.5 67 205.5s102.667 82.167 174 87.5zM1161 94.999c17.333 0.666992 26 30.333 26 89v224
c-34.667 0 -62.5 -13.333 -83.5 -40s-31.5 -63 -31.5 -109v-19c0 -34 8.83301 -67 26.5 -99s38.5 -47.333 62.5 -46z" />
    <glyph glyph-name="uni0E13" unicode="&#xe13;" horiz-adv-x="2160" 
d="M1923 466c40 -21.333 71.1611 -51.999 93.4941 -91.999s33.5 -86.333 33.5 -139c0 -78 -24.167 -141 -72.5 -189s-111.833 -72 -190.5 -72c-77.333 0 -140.166 24 -188.499 72s-72.5 111 -72.5 189c0 44.667 12.333 89 37 133
c-73.333 -12 -133.166 -49.333 -179.499 -112s-74.166 -139.334 -83.499 -230.001v-26h-210v1015v1c0 45.333 -11.667 85.166 -35 119.499s-54.333 60.833 -93 79.5s-79.5 32.334 -122.5 41.001s-88.167 13 -135.5 13c-41.333 0 -81.833 -3 -121.5 -9
s-79.834 -16.167 -120.501 -30.5s-74.834 -35.666 -102.501 -63.999s-45.167 -62.166 -52.5 -101.499c74.667 -30.667 136 -65 184 -103v-500c10 2 25.333 3 46 3c72.667 0 131.334 -22.333 176.001 -67s67 -103.334 67 -176.001c0 -74 -22.167 -133 -66.5 -177
s-103.166 -66 -176.499 -66c-74 0 -134.833 22.167 -182.5 66.5s-71.5 103.166 -71.5 176.499l-2 714c-42 20.667 -102.333 39.334 -181 56.001c8.66699 72.667 31.834 138 69.501 196s84.667 104.667 141 140s118 62.166 185 80.499s136.5 27.5 208.5 27.5
c69.333 0 138.333 -8.83301 207 -26.5s132.334 -42.667 191.001 -75s106.334 -75.166 143.001 -128.499s55 -112.333 55 -177v-722c44 75.333 105.667 132.666 185 171.999s166.666 56.666 261.999 51.999c8.66699 8.66699 15.334 18.334 20.001 29.001v853h210v-877
c-10 -22 -28 -45 -54 -69zM536.994 336.001c-76 0 -114 -38.333 -114 -115c0 -77.333 38 -116 114 -116s114 38.667 114 116c0 76.667 -38 115 -114 115zM1786.99 106.001c42 0 74 11.167 96 33.5s33 54.166 33 95.499c0 42 -11 74 -33 96s-54 33 -96 33
c-85.333 0 -128 -43 -128 -129c0 -41.333 10.833 -73.166 32.5 -95.499s53.5 -33.5 95.5 -33.5z" />
    <glyph glyph-name="uni0E14" unicode="&#xe14;" horiz-adv-x="1577" 
d="M1038 732c0 -32 -4.99609 -62.832 -14.9961 -92.499s-22 -55.667 -36 -78s-33.5 -46.5 -58.5 -72.5s-47.167 -47 -66.5 -63l-78 -64c-32.667 -26.667 -57.667 -47.667 -75 -63c-20.667 -18.667 -54.667 -47.667 -102 -87s-87.5 -74.833 -120.5 -106.5
s-61.833 -64.167 -86.5 -97.5v-8h-210v1021c0 68 18.333 129.167 55 183.5s84.667 97.5 144 129.5s123.666 56.333 192.999 73s139.666 25 210.999 25c54 0 108.333 -5 163 -15s108.667 -26.333 162 -49s100.5 -50.334 141.5 -83.001s74.167 -73.5 99.5 -122.5
s38 -102.833 38 -161.5v-1001h-210v1009c0 44.667 -12.667 84.334 -38 119.001s-58.333 61.667 -99 81s-82.834 33.666 -126.501 42.999s-87.167 14 -130.5 14c-39.333 0 -81 -5.5 -125 -16.5s-86.333 -26.667 -127 -47s-74.334 -48 -101.001 -83s-40 -74.167 -40 -117.5
v-784c32 34 67.833 68.833 107.5 104.5l99 86.5l113.5 92c-112 31.333 -168 108.333 -168 231c0 73.333 22.167 132.166 66.5 176.499s102.833 66.5 175.5 66.5c74 0 133.167 -22.167 177.5 -66.5s66.5 -103.166 66.5 -176.499zM680.004 732.001c0 -76 38 -114 114 -114
c77.333 0 116 38 116 114c0 37.333 -9.83301 66 -29.5 86s-48.5 30 -86.5 30c-76 0 -114 -38.667 -114 -116z" />
    <glyph glyph-name="uni0E15" unicode="&#xe15;" horiz-adv-x="1577" 
d="M400 1l-209.999 -0.00195312v1021c0 100.667 30.333 183.334 91 248.001s151 121 271 169c88 -87.333 168 -147.666 240 -180.999c69.333 35.333 149 96 239 182c110 -42 198.5 -100.5 265.5 -175.5s100.5 -162.5 100.5 -262.5v-1001h-210v1009
c0 135.333 -46.333 221.666 -139 258.999l-255 -178l-260 174c-88.667 -38 -133 -125 -133 -261v-790c31.333 32 64.166 63.333 98.499 94l121 104.5l100.5 85.5c-112 31.333 -168 108.333 -168 231c0 72.667 22 131.167 66 175.5s102.667 66.5 176 66.5
c74 0 133.167 -22 177.5 -66s66.5 -102.667 66.5 -176c0 -32 -5.16699 -63 -15.5 -93s-22.333 -56 -36 -78s-33.167 -46.167 -58.5 -72.5s-47.666 -47.666 -66.999 -63.999l-77.5 -64.5l-73.5 -62c-20.667 -18.667 -54.834 -47.667 -102.501 -87s-88 -74.833 -121 -106.5
s-61.833 -64.167 -86.5 -97.5v-3zM680.001 728.998c0 -76.667 38 -115 114 -115c77.333 0 116 38.333 116 115s-38.667 115 -116 115c-76 0 -114 -38.333 -114 -115z" />
    <glyph glyph-name="uni0E16" unicode="&#xe16;" horiz-adv-x="1480" 
d="M538 336c-77.333 0 -116 -38.333 -116 -115c0 -77.333 38.667 -116 116 -116c75.333 0 113 38.667 113 116c0 76.667 -37.667 115 -113 115zM282 221l-1.00293 713.995c-42 20.667 -102.333 39.334 -181 56.001c8.66699 72.667 31.834 138 69.501 196
s84.667 104.667 141 140s118 62.166 185 80.499s136.5 27.5 208.5 27.5c69.333 0 138.333 -8.83301 207 -26.5s132.334 -42.667 191.001 -75s106.334 -75.166 143.001 -128.499s55 -112.333 55 -177v-1028h-210v1015v1c0 45.333 -11.667 85.166 -35 119.499
s-54.333 60.833 -93 79.5s-79.5 32.334 -122.5 41.001s-88.167 13 -135.5 13c-41.333 0 -81.833 -3 -121.5 -9s-79.667 -16.167 -120 -30.5s-74.333 -35.666 -102 -63.999s-45.167 -62.166 -52.5 -101.499c73.333 -30 134.333 -64.333 183 -103v-500c10 2 25.667 3 47 3
c72.667 0 131.167 -22.167 175.5 -66.5s66.5 -103.166 66.5 -176.499c0 -74 -22 -133 -66 -177s-102.667 -66 -176 -66c-74 0 -135.167 22.333 -183.5 67s-72.5 103.334 -72.5 176.001z" />
    <glyph glyph-name="uni0E17" unicode="&#xe17;" horiz-adv-x="1673" 
d="M619 32l-0.000976562 -31.999h-210v950c-9.33301 -1.33301 -24.666 -2 -45.999 -2c-74.667 0 -133.834 21.833 -177.501 65.5s-65.5 102.167 -65.5 175.5c0 74 22 133.167 66 177.5s103 66.833 177 67.5h2c40.667 0 78.334 -7.66699 113.001 -23s63.5 -36.333 86.5 -63
s38.833 -57 47.5 -91c2 -10 3.5 -20.333 4.5 -31s1.5 -22.667 1.5 -36v-573l-6 -117l28 122c26 104.667 53.167 200.167 81.5 286.5s54.333 156.666 78 210.999s47.834 102.333 72.501 144s45.334 72.667 62.001 93s33.334 37 50.001 50s27.667 20.667 33 23
s9.66602 3.83301 12.999 4.5h2c101.333 0 193.5 -18 276.5 -54s144.5 -86 184.5 -150v-1230h-210v1149c-9.33301 18.667 -22 34.5 -38 47.5s-34.833 23.333 -56.5 31s-42.834 13.5 -63.501 17.5s-44.667 7.33301 -72 10c-66.667 -35.333 -178.334 -324 -335.001 -866
c-38.667 -134 -71.667 -253 -99 -357zM362.999 1075c76.667 0 115 38.333 115 115c0 77.333 -38.333 116 -115 116c-76 0 -114 -38.667 -114 -116c0 -76.667 38 -115 114 -115z" />
    <glyph glyph-name="uni0E18" unicode="&#xe18;" horiz-adv-x="1329" 
d="M942 379l0.00390625 382.998c0.666992 30 -17.333 56 -54 78s-84.667 38.167 -144 48.5s-121.333 18.5 -186 24.5s-130.5 9 -197.5 9s-120 -0.5 -159 -1.5s-68.833 -2.16699 -89.5 -3.5c0.666992 51.333 6.16699 100.666 16.5 147.999s27.5 93.5 51.5 138.5s54 84 90 117
s81.667 59.5 137 79.5s117.666 30 186.999 30c32.667 0 85.834 -7.5 159.501 -22.5s124.167 -24.5 151.5 -28.5c26.667 -4.66699 52.167 -4.66699 76.5 0s44.666 10 60.999 16s31.333 13.667 45 23s23.167 16.333 28.5 21s8.66602 8 9.99902 10l-1 -1l84 -143
c-57.333 -76 -172.333 -104.667 -345 -86c-26.667 2.66699 -72.834 10.834 -138.501 24.501s-109.5 20.5 -131.5 20.5c-50.667 0 -94 -6 -130 -18s-63.333 -28.333 -82 -49s-32 -42.667 -40 -66s-11.667 -48.666 -11 -75.999c22 -0.666992 55.167 -1.33398 99.5 -2.00098
s82.833 -1.5 115.5 -2.5s72.167 -2.66699 118.5 -5s87 -6.16602 122 -11.499s72.5 -12 112.5 -20s74 -18.5 102 -31.5s54 -28.333 78 -46s42.167 -39.167 54.5 -64.5s18.5 -53.666 18.5 -84.999v-422c0 -72 -18 -136.167 -54 -192.5s-83.333 -99.166 -142 -128.499
s-122.334 -44 -191.001 -44h-181c-67.333 0 -129.333 13.833 -186 41.5s-103.5 69.667 -140.5 126s-56.833 122.5 -59.5 198.5v379h210v-366v-1c0 -64 18.833 -115.333 56.5 -154s85.5 -58 143.5 -58h134c56 0 103.333 19.667 142 59s58 90.666 58 153.999z" />
    <glyph glyph-name="uni0E19" unicode="&#xe19;" horiz-adv-x="1588" 
d="M363 1075c76.667 0 115 38.333 115 115c0 77.333 -38.333 116 -115 116c-76 0 -114 -38.667 -114 -116c0 -76.667 38 -115 114 -115zM619 28v-28.001h-210v950c-6.66699 -1.33301 -22 -2 -46 -2c-73.333 0 -132.166 22.167 -176.499 66.5s-66.5 102.833 -66.5 175.5
c0 74 22.167 133.167 66.5 177.5s103.166 66.5 176.499 66.5c74 0 135 -22.333 183 -67s72 -103.667 72 -177v-882c70.667 71.333 157.5 127.5 260.5 168.5s202.167 59.167 297.5 54.5c8.66699 8.66699 15.334 18.334 20.001 29.001v852h210v-876
c-8.66699 -19.333 -27.334 -42 -56.001 -68c40 -21.333 71.333 -52.166 94 -92.499s34 -86.833 34 -139.5c0 -78 -24 -141 -72 -189s-111.333 -72 -190 -72c-78 0 -141.167 24 -189.5 72s-72.5 111 -72.5 189c0 46 12 90.333 36 133
c-52 -8.66699 -104.833 -28.334 -158.5 -59.001s-101 -71.5 -142 -122.5s-64.5 -104.167 -70.5 -159.5zM1216 107.999c42 0 73.833 11 95.5 33s32.5 53.667 32.5 95c0 86 -42.667 129 -128 129c-42 0 -74 -11 -96 -33s-33 -54 -33 -96c0 -41.333 11 -73 33 -95
s54 -33 96 -33z" />
    <glyph glyph-name="uni0E1A" unicode="&#xe1a;" horiz-adv-x="1657" 
d="M409 366l-0.000976562 584c-6.66699 -1.33301 -21.667 -2 -45 -2c-74 0 -133.167 22 -177.5 66s-66.5 102.667 -66.5 176c0 74 22.167 133.167 66.5 177.5s103.5 66.5 177.5 66.5s135 -22.333 183 -67s72 -103.667 72 -177v-811v-1c0.666992 -64 19.667 -115.333 57 -154
s85 -58 143 -58h248c56 0 102.833 19.667 140.5 59s57.5 90.666 59.5 153.999v1033h210v-1047c-0.666992 -72 -19.167 -136.167 -55.5 -192.5s-83.666 -99.166 -141.999 -128.499s-121.833 -44 -190.5 -44h-293c-67.333 -0 -129.5 13.833 -186.5 41.5s-104 69.667 -141 126
s-56.833 122.5 -59.5 198.5zM248.999 1190c0 -76.667 38.333 -115 115 -115s115 38.333 115 115c0 77.333 -38.333 116 -115 116s-115 -38.667 -115 -116z" />
    <glyph glyph-name="uni0E1B" unicode="&#xe1b;" horiz-adv-x="1657" 
d="M409 366l-0.000976562 584c-6.66699 -1.33301 -21.667 -2 -45 -2c-74 0 -133.167 22 -177.5 66s-66.5 102.667 -66.5 176c0 74 22.167 133.167 66.5 177.5s103.5 66.5 177.5 66.5s135 -22.333 183 -67s72 -103.667 72 -177v-811v-1c0.666992 -64 19.667 -115.333 57 -154
s85 -58 143 -58h248c56 0 102.833 19.667 140.5 59s57.5 90.666 59.5 153.999v1441h210v-1455c-0.666992 -72 -19.167 -136.167 -55.5 -192.5s-83.666 -99.166 -141.999 -128.499s-121.833 -44 -190.5 -44h-293c-67.333 -0 -129.5 13.833 -186.5 41.5s-104 69.667 -141 126
s-56.833 122.5 -59.5 198.5zM248.999 1190c0 -76.667 38.333 -115 115 -115s115 38.333 115 115c0 77.333 -38.333 116 -115 116s-115 -38.667 -115 -116z" />
    <glyph glyph-name="uni0E1C" unicode="&#xe1c;" horiz-adv-x="1576" 
d="M330 1190c0 -77.333 38 -116 114 -116s114 38.667 114 116s-38 116 -114 116s-114 -38.667 -114 -116zM191 99l-0.999023 1091c0 73.333 23.833 132.333 71.5 177s108.5 67 182.5 67c73.333 0 132.166 -22.167 176.499 -66.5s66.5 -103.5 66.5 -177.5
s-22.167 -133.167 -66.5 -177.5s-103.166 -66.5 -176.499 -66.5c-22.667 0 -37.334 1.33301 -44.001 4v-695l341 651h92l353 -651v1159h210v-1315c-15.333 -28 -41 -53.833 -77 -77.5s-71.333 -37.5 -106 -41.5h-28l-395 765l-388 -765h-28c-34.667 4 -70 17.833 -106 41.5
s-61.667 49.5 -77 77.5z" />
    <glyph glyph-name="uni0E1D" unicode="&#xe1d;" horiz-adv-x="1576" 
d="M330 1190c0 -77.333 38 -116 114 -116s114 38.667 114 116s-38 116 -114 116s-114 -38.667 -114 -116zM191 99l-0.999023 1091c0 73.333 23.833 132.333 71.5 177s108.5 67 182.5 67c73.333 0 132.166 -22.167 176.499 -66.5s66.5 -103.5 66.5 -177.5
s-22.167 -133.167 -66.5 -177.5s-103.166 -66.5 -176.499 -66.5c-22.667 0 -37.334 1.33301 -44.001 4v-695l341 651h92l353 -651v1699h210v-1855c-15.333 -28 -41 -53.833 -77 -77.5s-71.333 -37.5 -106 -41.5h-28l-395 765l-388 -765h-28c-34.667 4 -70 17.833 -106 41.5
s-61.667 49.5 -77 77.5z" />
    <glyph glyph-name="uni0E1E" unicode="&#xe1e;" horiz-adv-x="1732" 
d="M363 1074c76.667 0 115 38.333 115 115c0 77.333 -38.333 116 -115 116c-76 0 -114 -38.667 -114 -116c0 -76.667 38 -115 114 -115zM620 -20h-27.998c-34.667 4 -70 17.833 -106 41.5s-61.667 49.5 -77 77.5v851c-6.66699 -2.66699 -22 -4 -46 -4
c-72.667 0 -131.334 22.333 -176.001 67s-67 103.334 -67 176.001c0 74 22.167 133 66.5 177s103.166 66 176.499 66c74 0 135 -22.333 183 -67s72 -103.334 72 -176.001v-768l14 24l297 931h95l303 -928l15 -27v993h210v-1315c-15.333 -28 -41 -53.833 -77 -77.5
s-71.333 -37.5 -106 -41.5h-28l-357 1148h-14z" />
    <glyph glyph-name="uni0E1F" unicode="&#xe1f;" horiz-adv-x="1732" 
d="M363 1074c76.667 0 115 38.333 115 115c0 77.333 -38.333 116 -115 116c-76 0 -114 -38.667 -114 -116c0 -76.667 38 -115 114 -115zM620 -19l-27.998 -1c-34.667 4 -70 17.833 -106 41.5s-61.667 49.5 -77 77.5v851c-6.66699 -2.66699 -22 -4 -46 -4
c-72.667 0 -131.334 22.333 -176.001 67s-67 103.334 -67 176.001c0 74 22.167 133 66.5 177s103.166 66 176.499 66c74 0 135 -22.333 183 -67s72 -103.334 72 -176.001v-768l14 24l297 931h95l303 -928l15 -27v1534h210v-1856c-15.333 -28 -41 -53.833 -77 -77.5
s-71.333 -37.5 -106 -41.5l-28 1l-357 1147h-14z" />
    <glyph glyph-name="uni0E20" unicode="&#xe20;" horiz-adv-x="1550" 
d="M343 336c-76 0 -114 -38.333 -114 -115c0 -77.333 38 -116 114 -116s114 38.667 114 116c0 76.667 -38 115 -114 115zM389 461l-0.00195312 456.995c-63.333 30.667 -136.333 55 -219 73c8.66699 72.667 31.834 138 69.501 196s84.667 104.667 141 140
s118 62.166 185 80.499s136.5 27.5 208.5 27.5c69.333 0 138.333 -8.83301 207 -26.5s132.334 -42.667 191.001 -75s106.334 -75.166 143.001 -128.499s55 -112.333 55 -177v-1028h-210v1015v1c0 45.333 -11.667 85.166 -35 119.499s-54.333 60.833 -93 79.5
s-79.5 32.334 -122.5 41.001s-88.167 13 -135.5 13c-41.333 0 -81.833 -3 -121.5 -9s-79.834 -16.167 -120.501 -30.5s-74.834 -35.666 -102.501 -63.999s-45.167 -62.166 -52.5 -101.499c32.667 -13.333 71.167 -33.166 115.5 -59.499s79.166 -49.5 104.499 -69.5v-714
c0 -73.333 -23.833 -132.166 -71.5 -176.499s-108.5 -66.5 -182.5 -66.5c-73.333 0 -132.166 22 -176.499 66s-66.5 103 -66.5 177c0 72.667 22.333 131.334 67 176.001s103.334 67 176.001 67c20.667 0 36 -1 46 -3z" />
    <glyph glyph-name="uni0E21" unicode="&#xe21;" horiz-adv-x="1579" 
d="M1188 1411l210.003 -0.00195312v-1412h-210v11c1.33301 55.333 -8.66699 107.5 -30 156.5s-50.5 91.5 -87.5 127.5s-79.833 67.833 -128.5 95.5s-99.334 49.334 -152.001 65.001s-106 26.167 -160 31.5v-344c-1.33301 -31.333 -13.666 -59.833 -36.999 -85.5
s-51 -45.167 -83 -58.5s-64.333 -20 -97 -20c-81.333 0 -149.333 28 -204 84s-84.334 126.667 -89.001 212c-2 41.333 2.66699 81.833 14 121.5s28.833 76.834 52.5 111.501s55.667 64.667 96 90s86.166 42.333 137.499 51v302c-6.66699 -1.33301 -17.334 -2 -32.001 -2
c-48.667 0 -91.5 10 -128.5 30s-65.5 48.333 -85.5 85s-30 79 -30 127c0 74 22.167 133.167 66.5 177.5s103.5 66.5 177.5 66.5c73.333 0 132 -22.167 176 -66.5s66 -103.5 66 -177.5v-538c105.333 -10 208 -36.667 308 -80s183.333 -102 250 -176v1015zM273.003 1190
c0 -37.333 9.83203 -65.833 29.499 -85.5s48.334 -29.5 86.001 -29.5s66.167 9.83301 85.5 29.5s29 48.167 29 85.5c0 77.333 -38.333 116 -115 116s-115 -38.667 -115 -116zM262.502 280.998c2.33301 -41.333 18.501 -77.999 48.501 -109.999s66.333 -49.333 109 -52v359
c-50 -14.667 -89.333 -40.834 -118 -78.501s-41.834 -77.167 -39.501 -118.5z" />
    <glyph glyph-name="uni0E22" unicode="&#xe22;" horiz-adv-x="1454" 
d="M320 1190c0 -77.333 38.667 -116 116 -116c75.333 0 113 38.667 113 116s-37.667 116 -113 116c-77.333 0 -116 -38.667 -116 -116zM207 366v125.999c12 86.667 84 156.667 216 210c-140 41.333 -221 107 -243 197v291c0 72.667 24.167 131.5 72.5 176.5
s109.5 67.5 183.5 67.5c73.333 0 132 -22.167 176 -66.5s66 -103.5 66 -177.5s-22 -133.167 -66 -177.5s-102.667 -66.5 -176 -66.5c-24 0 -39.333 1.33301 -46 4v-40c60.667 -83.333 163.667 -127.666 309 -132.999v-135c-106 0 -200.333 -47.667 -283 -143h1v-120v-1
c0.666992 -64 19.667 -115.333 57 -154s85 -58 143 -58h247c57.333 0 105 19.167 143 57.5s57 90.166 57 155.499v1033h210v-1047c0 -72 -18 -136.167 -54 -192.5s-83.333 -99.166 -142 -128.499s-122.334 -44 -191.001 -44h-294c-50 0 -98 8.16699 -144 24.5
s-87.167 39.5 -123.5 69.5s-65.166 68.5 -86.499 115.5s-32 99.167 -32 156.5z" />
    <glyph glyph-name="uni0E23" unicode="&#xe23;" horiz-adv-x="1228" 
d="M1015 789l-0.00195312 -569.998c0 -73.333 -24 -132.333 -72 -177s-109 -67 -183 -67c-73.333 0 -132 22.167 -176 66.5s-66 103.5 -66 177.5c0 72.667 22 131.167 66 175.5s102.667 66.5 176 66.5c24 0 39.333 -0.666992 46 -2v304c0 15.333 -4.33301 29.666 -13 42.999
s-22 24.833 -40 34.5s-37 18.5 -57 26.5s-45.5 14.667 -76.5 20s-59.333 10 -85 14s-57.667 7.33301 -96 10s-70.333 4.66699 -96 6s-58.667 2.33301 -99 3s-70.333 1 -90 1h-83.5c0 48.667 6.16699 97 18.5 145s31.5 93.833 57.5 137.5s57.333 82.167 94 115.5
s81.334 60 134.001 80s109.667 30 171 30c33.333 0 86.333 -9.5 159 -28.5s125 -28.833 157 -29.5c80.667 -0.666992 138.334 23.333 173.001 72l74 -147c-17.333 -27.333 -48 -49.333 -92 -66s-87.667 -24.667 -131 -24c-30 0 -83.667 9.33301 -161 28s-137 28 -179 28
c-74.667 0 -135.667 -20.167 -183 -60.5s-71 -89.5 -71 -147.5c35.333 0 63.333 -0.166992 84 -0.5s50.834 -1 90.501 -2s72.167 -2.66699 97.5 -5s56.833 -5.5 94.5 -9.5s69 -9.5 94 -16.5l82.5 -24c30 -9 54.833 -20.167 74.5 -33.5s38.167 -28.333 55.5 -45
s30.166 -35.834 38.499 -57.501s12.5 -45.5 12.5 -71.5zM874.998 219.002c0 76.667 -38.333 115 -115 115c-76 0 -114 -38.333 -114 -115c0 -78 38 -117 114 -117c76.667 0 115 39 115 117z" />
    <glyph glyph-name="uni0E24" unicode="&#xe24;" horiz-adv-x="1480" 
d="M537 336c-76 0 -114 -38.333 -114 -115c0 -77.333 38 -116 114 -116s114 38.667 114 116c0 76.667 -38 115 -114 115zM283 221l-2.00293 713.999c-42 20.667 -102.333 39.334 -181 56.001c8.66699 72.667 31.834 138 69.501 196s84.667 104.667 141 140
s118 62.166 185 80.499s136.5 27.5 208.5 27.5c69.333 0 138.333 -8.83301 207 -26.5s132.334 -42.667 191.001 -75s106.334 -75.166 143.001 -128.499s55 -112.333 55 -177v-1592h-210v1579v1c0 45.333 -11.667 85.166 -35 119.499s-54.333 60.833 -93 79.5
s-79.5 32.334 -122.5 41.001s-88.167 13 -135.5 13c-41.333 0 -81.833 -3 -121.5 -9s-79.834 -16.167 -120.501 -30.5s-74.834 -35.666 -102.501 -63.999s-45.167 -62.166 -52.5 -101.499c74.667 -30.667 136 -65 184 -103v-500c10 2 25.333 3 46 3
c72.667 0 131.334 -22.333 176.001 -67s67 -103.334 67 -176.001c0 -74 -22.167 -133 -66.5 -177s-103.166 -66 -176.499 -66c-74 0 -134.833 22.167 -182.5 66.5s-71.5 103.166 -71.5 176.499z" />
    <glyph glyph-name="uni0E25" unicode="&#xe25;" horiz-adv-x="1495" 
d="M476 335c-76.667 0 -115 -38.333 -115 -115c0 -77.333 38.333 -116 115 -116c76 0 114 38.667 114 116c0 76.667 -38 115 -114 115zM221 220l-0.000976562 450.002c5.33301 60 29.166 112 71.499 156s92.166 76 149.499 96s116.666 30 177.999 30
c86.667 0 169.334 -18.833 248.001 -56.5s144.334 -90.834 197.001 -159.501c18.667 -42.667 32 -75.334 40 -98.001v353c-3.33301 48 -16.833 90.333 -40.5 127s-54 65.667 -91 87s-77 37.166 -120 47.499s-88.167 15.5 -135.5 15.5c-46 0 -90.167 -4.66699 -132.5 -14
s-83 -24.166 -122 -44.499s-72.167 -49.166 -99.5 -86.499s-45.333 -81.333 -54 -132l-150 93c16 60 45 113.5 87 160.5s90.333 83.667 145 110s109.834 46.166 165.501 59.499s109.167 20 160.5 20c60 0 118 -5 174 -15s109.833 -26.167 161.5 -48.5
s96.667 -49.833 135 -82.5s69 -73.5 92 -122.5s34.5 -103.5 34.5 -163.5v-1002h-210v71c-6.66699 242.667 -63 429 -169 559c-26 32 -54.333 59 -85 81s-60.5 38.167 -89.5 48.5s-54.667 17.333 -77 21s-43.833 5.5 -64.5 5.5c-29.333 0 -56.666 -3 -81.999 -9
s-48.833 -18.167 -70.5 -36.5s-34.167 -41.833 -37.5 -70.5v-210c6.66699 1.33301 22 2 46 2c73.333 0 132 -22 176 -66s66 -102.667 66 -176c0 -74 -22 -133.167 -66 -177.5s-102.667 -66.5 -176 -66.5c-74 0 -135 22.333 -183 67s-72 103.667 -72 177z" />
    <glyph glyph-name="uni0E26" unicode="&#xe26;" horiz-adv-x="1550" 
d="M343 336c-76 0 -114 -38.333 -114 -115c0 -77.333 38 -116 114 -116s114 38.667 114 116c0 76.667 -38 115 -114 115zM389 461l-0.00195312 456.995c-63.333 30.667 -136.333 55 -219 73c8.66699 72.667 31.834 138 69.501 196s84.667 104.667 141 140
s118 62.166 185 80.499s136.5 27.5 208.5 27.5c69.333 0 138.333 -8.83301 207 -26.5s132.334 -42.667 191.001 -75s106.334 -75.166 143.001 -128.499s55 -112.333 55 -177v-1588h-210v1575v1c0 45.333 -11.667 85.166 -35 119.499s-54.333 60.833 -93 79.5
s-79.5 32.334 -122.5 41.001s-88.167 13 -135.5 13c-41.333 0 -81.833 -3 -121.5 -9s-79.834 -16.167 -120.501 -30.5s-74.834 -35.666 -102.501 -63.999s-45.167 -62.166 -52.5 -101.499c32.667 -13.333 71.167 -33.166 115.5 -59.499s79.166 -49.5 104.499 -69.5v-714
c0 -73.333 -23.833 -132.166 -71.5 -176.499s-108.5 -66.5 -182.5 -66.5c-73.333 0 -132.166 22 -176.499 66s-66.5 103 -66.5 177c0 72.667 22.333 131.334 67 176.001s103.334 67 176.001 67c20.667 0 36 -1 46 -3z" />
    <glyph glyph-name="uni0E27" unicode="&#xe27;" horiz-adv-x="1254" 
d="M1074 1022v-803.001c0 -73.333 -24 -132.333 -72 -177s-109 -67 -183 -67c-73.333 0 -132.166 22.167 -176.499 66.5s-66.5 103.5 -66.5 177.5c0 72.667 22.167 131.167 66.5 175.5s103.166 66.5 176.499 66.5c24 0 39.333 -0.666992 46 -2v531
c0 90 -28.667 158.833 -86 206.5s-134.333 71.5 -231 71.5c-60 0 -115.333 -9.5 -166 -28.5s-94 -50 -130 -93s-56.667 -94.833 -62 -155.5l-150 93c5.33301 40 21 80.333 47 121s60 78.334 102 113.001s94.333 62.667 157 84s130 32 202 32
c66.667 0 131 -8.83301 193 -26.5s118 -43 168 -76s90 -76.333 120 -130s45 -113.5 45 -179.5zM934 218.999c0 76.667 -38.333 115 -115 115c-76 0 -114 -38.333 -114 -115c0 -78 38 -117 114 -117c76.667 0 115 39 115 117z" />
    <glyph glyph-name="uni0E28" unicode="&#xe28;" horiz-adv-x="1580" 
d="M1054 1095l-102.997 -0.00195312c48.667 35.333 89 68.666 121 99.999c-77.333 46.667 -170.333 70 -279 70c-39.333 0 -81 -5.5 -125 -16.5s-86.333 -26.667 -127 -47s-74.334 -48 -101.001 -83s-40 -74.167 -40 -117.5v-474l-8 -91l30 90l142 282l29 57
c46.667 70.667 113.667 106 201 106c73.333 0 132.333 -22.167 177 -66.5s67 -102.833 67 -175.5s-22.333 -131.5 -67 -176.5s-103.667 -67.5 -177 -67.5c-82.667 0 -148.667 34.667 -198 104c-26 -46.667 -61.167 -120.667 -105.5 -222s-74.5 -188.666 -90.5 -261.999v-106
h-210v1021c0 68 18.333 129.167 55 183.5s84.667 97.5 144 129.5s123.666 56.333 192.999 73s139.666 25 210.999 25c143.333 0 271.333 -31 384 -93c36 68.667 54 141.334 54 218.001h200c-8 -123.333 -52.333 -226.666 -133 -309.999c66 -70.667 99 -152.667 99 -246
v-1001h-210v1009c0 44.667 -14.333 85.667 -43 123c-15.333 -8 -30.5 -15 -45.5 -21s-26.167 -10 -33.5 -12zM794.003 843.998c-76 0 -114 -38.333 -114 -115s38 -115 114 -115c77.333 0 116 38.333 116 115s-38.667 115 -116 115z" />
    <glyph glyph-name="uni0E29" unicode="&#xe29;" horiz-adv-x="1660" 
d="M1726 1002c-14.667 -80 -43.668 -152.166 -87.001 -216.499s-97.333 -116.833 -162 -157.5v-263c-0.666992 -72 -19.167 -136.167 -55.5 -192.5s-83.666 -99.166 -141.999 -128.499s-121.833 -44 -190.5 -44h-293c-67.333 0 -129.5 13.833 -186.5 41.5
s-104 69.667 -141 126s-56.833 122.5 -59.5 198.5v584c-6.66699 -1.33301 -21.667 -2 -45 -2c-74 0 -133.167 22 -177.5 66s-66.5 102.667 -66.5 176c0 74 22.167 133.167 66.5 177.5s103.5 66.5 177.5 66.5s135 -22.333 183 -67s72 -103.667 72 -177v-811v-1
c0.666992 -64 19.667 -115.333 57 -154s85 -58 143 -58h248c56 0 102.833 19.667 140.5 59s57.5 90.666 59.5 153.999v172c-26 -4 -52.667 -6 -80 -6c-116 0 -212.333 28.333 -289 85c-76 56 -114 124.667 -114 206c0 58.667 18 106.5 54 143.5s83.333 55.5 142 55.5
s105.667 -18 141 -54s53 -83 53 -141c0 -36.667 -5.83301 -66.834 -17.5 -90.501s-30.5 -47.167 -56.5 -70.5c56 -16 111.667 -19.333 167 -10v743h210v-623c52 60 78.333 131 79 213h170zM979.999 742.001c64.667 0 97 31.001 97 93.001c0 63.333 -32.333 95 -97 95
c-33.333 0 -57.333 -7.66699 -72 -23s-22 -39.333 -22 -72s7.33301 -56.334 22 -71.001s38.667 -22 72 -22zM363.999 1075c76.667 0 115 38.333 115 115c0 77.333 -38.333 116 -115 116s-115 -38.667 -115 -116c0 -76.667 38.333 -115 115 -115z" />
    <glyph glyph-name="uni0E2A" unicode="&#xe2a;" horiz-adv-x="1495" 
d="M1254 1211c39.333 -61.333 58.9971 -131.333 58.9971 -210v-1002h-209v71c-8 245.333 -64.333 431.666 -169 558.999c-85.333 104 -191 156 -317 156c-29.333 0 -56.666 -3 -81.999 -9s-48.833 -18.167 -70.5 -36.5s-34.167 -41.833 -37.5 -70.5v-210
c6.66699 1.33301 22.334 2 47.001 2c72.667 0 131 -22.167 175 -66.5s66 -102.833 66 -175.5c0 -74 -22 -133.167 -66 -177.5s-102.333 -66.5 -175 -66.5c-74 0 -135 22.333 -183 67s-72 103.667 -72 177l-1 450c4.66699 60 28.334 112 71.001 156s92.667 76 150 96
s116.666 30 177.999 30c86.667 0 169.334 -18.833 248.001 -56.5s144.334 -90.834 197.001 -159.501l17 -41.5l23 -56.5v353c0 28.667 -8 60.334 -24 95.001c-13.333 -6.66699 -28 -13.334 -44 -20.001s-29 -11.667 -39 -15l-14 -5l-103 13
c62.667 42.667 110.334 78.334 143.001 107.001c-70.667 68 -173 102 -307 102c-46 0 -90 -4.66699 -132 -14s-82.5 -24.166 -121.5 -44.499s-72.167 -49.166 -99.5 -86.499s-45.333 -81.333 -54 -132l-149 93c16 60 45 113.5 87 160.5s90.333 83.667 145 110
s109.667 46.166 165 59.499s108.666 20 159.999 20c177.333 0 321 -38.667 431 -116l6 8c41.333 78 60.666 154.333 57.999 229h200c0 -132.667 -52.333 -247 -157 -343zM474.997 334c-76.667 0 -115 -38.333 -115 -115c0 -77.333 38.333 -116 115 -116
c75.333 0 113 38.667 113 116c0 76.667 -37.667 115 -113 115z" />
    <glyph glyph-name="uni0E2B" unicode="&#xe2b;" horiz-adv-x="1675" 
d="M1399 1014c45.333 -24.667 76.668 -52.6641 94.001 -83.9971v-930h-210v891c-28.667 33.333 -57.334 54.666 -86.001 63.999c-31.333 -3.33301 -72.5 -37.333 -123.5 -102s-101.833 -142 -152.5 -232l-145.5 -269c-46.333 -89.333 -84.166 -165 -113.499 -227l-43 -93
v-32h-210v950c-6.66699 -1.33301 -22 -2 -46 -2c-73.333 0 -132.166 22.167 -176.499 66.5s-66.5 102.833 -66.5 175.5c0 74 22.167 133.167 66.5 177.5s103.166 66.5 176.499 66.5c74 0 135 -22.333 183 -67s72 -103.667 72 -177v-823l-6 -70l21 71
c3.33301 9.33301 8.16602 21.666 14.499 36.999s19.833 45.666 40.5 90.999s41.667 88.5 63 129.5s47.833 86.5 79.5 136.5s62.667 93 93 129s63.833 66.333 100.5 91s71.667 37 105 37c-29.333 21.333 -52.166 48.333 -68.499 81s-24.5 67.667 -24.5 105
c0 69.333 21 125 63 167s97.667 63 167 63c71.333 0 127.666 -19.833 168.999 -59.5s62 -96.5 62 -170.5c0 -83.333 -32.667 -147 -98 -191zM363.002 1075c76.667 0 115 38.333 115 115c0 77.333 -38.333 116 -115 116c-76 0 -114 -38.667 -114 -116
c0 -76.667 38 -115 114 -115zM1266 1096c72 0 108 36.333 108 109s-36 109 -108 109c-72.667 0 -109 -36.333 -109 -109s36.333 -109 109 -109z" />
    <glyph glyph-name="uni0E2C" unicode="&#xe2c;" horiz-adv-x="1739" 
d="M363 1074c76.667 0 115 38.333 115 115c0 77.333 -38.333 116 -115 116c-76 0 -114 -38.667 -114 -116c0 -76.667 38 -115 114 -115zM1552 1218l0.000976562 -1119c-15.333 -28 -41 -53.833 -77 -77.5s-71.333 -37.5 -106 -41.5l-28 2l-357 866h-14l-350 -866l-28 -2
c-34.667 4 -70 17.833 -106 41.5s-61.667 49.5 -77 77.5v851c-6.66699 -2.66699 -22 -4 -46 -4c-72.667 0 -131.334 22.333 -176.001 67s-67 103.334 -67 176.001c0 74 22.167 133 66.5 177s103.166 66 176.499 66c74 0 135 -22.333 183 -67s72 -103.334 72 -176.001v-828
l14 14l297 691h95l303 -688l15 -17v737c-39.333 -12 -78.666 -18 -117.999 -18c-82.667 0 -152.5 20.667 -209.5 62s-85.5 92.333 -85.5 153c0 60 28.5 110.833 85.5 152.5s126.833 62.5 209.5 62.5c56.667 0 108.334 -10.5 155.001 -31.5s82 -49.167 106 -84.5
c37.333 52 58.666 117 63.999 195h175c-18.667 -158 -76 -281.667 -172 -371zM1062 1295c0 -19.333 15.501 -38 46.501 -56s69.5 -27 115.5 -27c43.333 0 80.166 8.5 110.499 25.5s46.833 34.833 49.5 53.5l-3 5l1 1c1.33301 0.666992 2 1.33398 2 2.00098
c-2 18.667 -18.167 36.167 -48.5 52.5s-67.5 24.5 -111.5 24.5c-46 0 -84.5 -8.83301 -115.5 -26.5s-46.5 -35.834 -46.5 -54.501z" />
    <glyph glyph-name="uni0E2D" unicode="&#xe2d;" horiz-adv-x="1495" 
d="M455 578c75.333 0 113 38 113 114c0 78 -37.667 117 -113 117c-76.667 0 -115 -39 -115 -117c0 -76 38.333 -114 115 -114zM1315 1002l0.00195312 -636.996c0 -54 -10.667 -104.167 -32 -150.5s-49.666 -85 -84.999 -116s-76.5 -55.167 -123.5 -72.5
s-96.167 -26 -147.5 -26h-342c-50 0 -97.667 8.16699 -143 24.5s-85.833 39.5 -121.5 69.5s-64.5 68.5 -86.5 115.5s-34 99.167 -36 156.5l2 326c0.666992 73.333 24.834 132.333 72.501 177s108.5 67 182.5 67c73.333 0 132 -22.167 176 -66.5s66 -103.5 66 -177.5
c0 -73.333 -22 -132 -66 -176s-102.667 -66 -176 -66c-24.667 0 -40.334 0.666992 -47.001 2v-73v-1c0 -64 18.833 -115.333 56.5 -154s85.5 -58 143.5 -58h297c56.667 0 104.167 19.667 142.5 59s57.5 90.666 57.5 153.999v612c0 29.333 -4 56.5 -12 81.5
s-19 46.833 -33 65.5s-30.833 35.334 -50.5 50.001s-40.667 27 -63 37s-46.5 18.333 -72.5 25s-51.833 11.334 -77.5 14.001s-51.834 4 -78.501 4c-38 0 -74.833 -2.66699 -110.5 -8s-71.5 -14.833 -107.5 -28.5s-67.833 -30.667 -95.5 -51s-51.834 -46.833 -72.501 -79.5
s-34.667 -69.334 -42 -110.001l-150 93c14 45.333 35.167 87.166 63.5 125.499s61 71.166 98 98.499s78.333 50.5 124 69.5s93 33.167 142 42.5s99.167 14 150.5 14c32.667 0 65 -1.5 97 -4.5s63.833 -7.83301 95.5 -14.5s62.167 -14.834 91.5 -24.501
s57.5 -21.334 84.5 -35.001s52 -29 75 -46s44 -36.333 63 -58s35.167 -45 48.5 -70s23.666 -52.667 30.999 -83s11 -62.5 11 -96.5z" />
    <glyph glyph-name="uni0E2E" unicode="&#xe2e;" horiz-adv-x="1484" 
d="M1257 1201c26 -48.667 40 -99.334 42 -152.001c2 -30 3 -45.667 3 -47v-637c-0.666992 -72 -19.167 -136.167 -55.5 -192.5s-83.666 -99.166 -141.999 -128.499s-121.833 -44 -190.5 -44h-342c-67.333 -0 -129.333 13.833 -186 41.5s-103.5 69.667 -140.5 126
s-56.833 122.5 -59.5 198.5l1 282c0.666992 73.333 24.834 132.166 72.501 176.499s108.5 66.5 182.5 66.5c73.333 0 132 -22 176 -66s66 -103 66 -177c0 -73.333 -22.167 -132.166 -66.5 -176.499s-102.833 -66.5 -175.5 -66.5c-20.667 0 -36 1 -46 3v-30
c0.666992 -64 19.667 -115.333 57 -154s85 -58 143 -58h296c56 0 102.833 19.667 140.5 59s57.5 90.666 59.5 153.999v612l-4 28v2c-106.667 -48 -238 -72 -394 -72c-130.667 0 -244 16.667 -340 50c-122.667 46.667 -184 110.334 -184 191.001c0 45.333 17.667 84 53 116
s79 57 131 75c95.333 35.333 208.666 53 339.999 53c193.333 0 341.666 -35 444.999 -105c14.667 22 27.667 53.167 39 93.5s17.333 75.833 18 106.5h187c-2 -57.333 -15.5 -116.833 -40.5 -178.5s-53.5 -111.5 -85.5 -149.5zM694 1101c64 0 133.666 7.83301 208.999 23.5
s120 35.5 134 59.5c-22.667 32 -68.667 54 -138 66s-137.666 18 -204.999 18c-176.667 0 -298 -26 -364 -78c16 -28 63.5 -49.833 142.5 -65.5s152.833 -23.5 221.5 -23.5zM441.999 532c76 0 114 38.667 114 116s-38 116 -114 116c-76.667 0 -115 -38.667 -115 -116
s38.333 -116 115 -116z" />
    <glyph glyph-name="uni0E2F" unicode="&#xe2f;" horiz-adv-x="1442" 
d="M412 975c26 -11.333 53.167 -20.0049 81.5 -26.0049s57.166 -9 86.499 -9c49.333 0 97 8.33301 143 25c43.333 16 83.666 38.667 120.999 68s69 63.666 95 102.999c52.667 78 79 164.667 79 260c42.667 0 81.5 -4 116.5 -12s60.333 -16.5 76 -25.5s23.5 -16.5 23.5 -22.5
v-1336h-213v1005c-46.667 -69.333 -108.334 -122.666 -185.001 -159.999c-71.333 -34.667 -148.666 -52 -231.999 -52h-10c-91.333 2 -170.666 24 -237.999 66c-11.333 7.33301 -22.166 15 -32.499 23s-20.166 16.667 -29.499 26s-18 19 -26 29
c-26.667 32.667 -46.667 70.334 -60 113.001c-4.66699 14 -8.66699 28.333 -12 43s-5.83301 29.5 -7.5 44.5s-2.5 30.167 -2.5 45.5v6c0 10 0.666992 19.667 2 29s3 18.333 5 27c4.66699 17.333 11.667 34 21 50c10 16 21.667 30.667 35 44s27.833 24.666 43.5 33.999
s32.334 16.333 50.001 21s36.167 7 55.5 7c9.33301 0 18.833 -0.5 28.5 -1.5s18.834 -2.83301 27.501 -5.5c18 -4.66699 34.833 -11.667 50.5 -21s30.5 -20.666 44.5 -33.999c21.333 -20.667 37.166 -43.334 47.499 -68.001s15.5 -52 15.5 -82
c0 -19.333 -2 -37.666 -6 -54.999c-2.66699 -8.66699 -5.5 -17.167 -8.5 -25.5s-6.83301 -16.166 -11.5 -23.499c-8.66699 -16 -19.334 -30.667 -32.001 -44s-26.667 -24.666 -42 -33.999c-14.667 -9.33301 -30.334 -16.666 -47.001 -21.999
c-17.333 -5.33301 -35 -8.66602 -53 -9.99902zM398 1085c73.333 0 110 35.332 110 105.999c0 70 -36.667 105 -110 105c-32.667 0 -58.167 -9.16699 -76.5 -27.5s-27.5 -44.166 -27.5 -77.499c0 -70.667 34.667 -106 104 -106z" />
    <glyph glyph-name="uni0E30" unicode="&#xe30;" horiz-adv-x="1067" 
d="M790 452l178.003 0.000976562c-19.333 -131.333 -74.5 -237 -165.5 -317s-193.167 -120 -306.5 -120c-35.333 0 -69.833 1.66699 -103.5 5s-70.5 10.666 -110.5 21.999s-74.667 25.833 -104 43.5s-53.833 42.334 -73.5 74.001s-29.5 68.5 -29.5 110.5
c0 62.667 18.5 112.5 55.5 149.5s86.833 55.5 149.5 55.5s112.5 -18.5 149.5 -55.5s55.5 -86.833 55.5 -149.5c0 -39.333 -10 -75.333 -30 -108c38 -6.66699 75.667 -5.83398 113 2.49902s72.166 23.5 104.499 45.5s59.166 54 80.499 96s33.666 90.667 36.999 146z
M280.003 360.001c-30.667 0 -53.334 -7.33301 -68.001 -22s-22 -37.334 -22 -68.001s7.33301 -53.334 22 -68.001s37.334 -22 68.001 -22s53.334 7.33301 68.001 22s22 37.334 22 68.001s-7.33301 53.334 -22 68.001s-37.334 22 -68.001 22zM790.003 1378
l178.002 0.00195312c-12.667 -88 -43 -165.667 -91 -233s-105.167 -118.333 -171.5 -153s-136.166 -52 -209.499 -52c-35.333 0 -69.833 1.66699 -103.5 5s-70.5 10.666 -110.5 21.999s-74.667 25.833 -104 43.5s-53.833 42.334 -73.5 74.001s-29.5 68.5 -29.5 110.5
c0 62.667 18.5 112.5 55.5 149.5s86.833 55.5 149.5 55.5s112.5 -18.333 149.5 -55s55.5 -86.667 55.5 -150c0 -38.667 -10 -74.334 -30 -107.001c38 -6.66699 75.667 -5.83398 113 2.49902s72.166 23.5 104.499 45.5s59.166 54 80.499 96s33.666 90.667 36.999 146z
M280.005 1285c-30.667 0 -53.334 -7.16699 -68.001 -21.5s-22 -37.166 -22 -68.499s7.33301 -54.166 22 -68.499s37.334 -21.5 68.001 -21.5s53.334 7.16699 68.001 21.5s22 37.166 22 68.499s-7.33301 54.166 -22 68.499s-37.334 21.5 -68.001 21.5z" />
    <glyph glyph-name="uni0E31" unicode="&#xe31;" 
d="M-40 2098l177.999 0.00292969c-16 -88 -54.167 -165.667 -114.5 -233s-132.666 -118.333 -216.999 -153s-172.833 -52 -265.5 -52c-35.333 0 -69.833 1.66699 -103.5 5s-70.5 10.666 -110.5 21.999s-74.667 25.833 -104 43.5s-53.833 42.334 -73.5 74.001
s-29.5 68.5 -29.5 110.5c0 62.667 18.5 112.5 55.5 149.5s86.833 55.5 149.5 55.5c63.333 0 113.333 -18.333 150 -55s55 -86.667 55 -150c0 -38.667 -10 -74.334 -30 -107.001c105.333 -12.667 201.833 7.16602 289.5 59.499s144.5 129.166 170.5 230.499zM-675.001 2005
c-31.333 0 -54.166 -7.16699 -68.499 -21.5s-21.5 -37.166 -21.5 -68.499s7.16699 -54.166 21.5 -68.499s37.166 -21.5 68.499 -21.5s54.166 7.16699 68.499 21.5s21.5 37.166 21.5 68.499s-7.16699 54.166 -21.5 68.499s-37.166 21.5 -68.499 21.5z" />
    <glyph glyph-name="uni0E32" unicode="&#xe32;" horiz-adv-x="1217" 
d="M1037 0l-208.001 0.00195312v990c0 91.333 -25.167 160.5 -75.5 207.5s-122.833 70.5 -217.5 70.5c-58 0 -112.167 -10.667 -162.5 -32s-92.166 -53.333 -125.499 -96s-52.333 -92.334 -57 -149.001l-151 93c7.33301 41.333 24.333 82.5 51 123.5s60.667 78.5 102 112.5
s92 61.5 152 82.5s123.667 31.5 191 31.5c90 0 172.167 -14.833 246.5 -44.5s135.333 -76.334 183 -140.001s71.5 -139.5 71.5 -227.5v-1022z" />
    <glyph glyph-name="uni0E33" unicode="&#xe33;" horiz-adv-x="1217" 
d="M-396 2092c72 0 129.5 -21.667 172.5 -65s64.5 -101 64.5 -173s-21.5 -129.667 -64.5 -173s-100.5 -65 -172.5 -65s-129.833 21.667 -173.5 65s-65.5 101 -65.5 173s21.833 129.667 65.5 173s101.5 65 173.5 65zM-397 1739c40 0 69.502 9.33301 88.502 28
s28.5 48 28.5 88c0 40.667 -9.5 70.667 -28.5 90s-48.5 29 -88.5 29c-40.667 0 -70.834 -9.66699 -90.501 -29s-29.5 -49.333 -29.5 -90c0 -40 9.66699 -69.333 29 -88s49.666 -28 90.999 -28zM1037 0l-208.001 0.00195312v990c0 91.333 -25.167 160.5 -75.5 207.5
s-122.833 70.5 -217.5 70.5c-58 0 -112.167 -10.667 -162.5 -32s-92.166 -53.333 -125.499 -96s-52.333 -92.334 -57 -149.001l-151 93c7.33301 41.333 24.333 82.5 51 123.5s60.667 78.5 102 112.5s92 61.5 152 82.5s123.667 31.5 191 31.5
c90 0 172.167 -14.833 246.5 -44.5s135.333 -76.334 183 -140.001s71.5 -139.5 71.5 -227.5v-1022z" />
    <glyph glyph-name="uni0E34" unicode="&#xe34;" 
d="M-155 1638c-235.333 36 -444.832 56.668 -628.499 62.001s-380.5 -4.33398 -590.5 -29.001c26 142 82.5 252.5 169.5 331.5s199.833 120.833 338.5 125.5c86 2.66699 164.5 -5.83301 235.5 -25.5s135 -51 192 -94s108.167 -94.5 153.5 -154.5s88.666 -132 129.999 -216z
M-388.999 1791c-62.667 65.333 -133.832 115.333 -213.499 150s-161.834 50.667 -246.501 48c-78.667 -2.66699 -147 -21.5 -205 -56.5s-102 -77.5 -132 -127.5c261.333 20.667 527 16 797 -14z" />
    <glyph glyph-name="uni0E35" unicode="&#xe35;" 
d="M-155 1638c-235.333 36 -444.833 56.668 -628.5 62.001s-380.5 -4.33398 -590.5 -29.001c26 142 82.5 252.5 169.5 331.5s199.833 120.833 338.5 125.5c193.333 6.66699 352 -53.666 476 -181l-11 55v164h191v-426c16.667 -28.667 35 -62.667 55 -102zM-389 1791
c-62.667 65.333 -133.832 115.333 -213.499 150s-161.834 50.667 -246.501 48c-78.667 -2.66699 -147 -21.5 -205 -56.5s-102 -77.5 -132 -127.5c261.333 20.667 527 16 797 -14z" />
    <glyph glyph-name="uni0E36" unicode="&#xe36;" 
d="M-284 1878c53.333 -66.667 102.667 -146.665 148 -239.998c-235.333 36 -444.833 56.667 -628.5 62s-380.5 -4.33398 -590.5 -29.001c26 142 82.333 252.5 169 331.5s199.334 120.833 338.001 125.5c99.333 4 188.333 -8 267 -36
c3.33301 60.667 24.166 109.167 62.499 145.5s88.5 54.5 150.5 54.5c64.667 0 116.5 -19.5 155.5 -58.5s58.5 -90.833 58.5 -155.5c0 -49.333 -11.5 -91.333 -34.5 -126s-54.833 -59.334 -95.5 -74.001zM-367.999 2185c-37.333 0 -64.5 -8.66699 -81.5 -26
s-25.5 -44 -25.5 -80c0 -36.667 8.5 -63.334 25.5 -80.001s44.167 -25 81.5 -25c36.667 0 63.667 8.33301 81 25s26 43.334 26 80.001c0 70.667 -35.667 106 -107 106zM-1168 1805c262 20.667 528.002 16 798.002 -14c-62.667 65.333 -133.834 115.333 -213.501 150
s-161.834 50.667 -246.501 48c-78.667 -2.66699 -147.167 -21.5 -205.5 -56.5s-102.5 -77.5 -132.5 -127.5z" />
    <glyph glyph-name="uni0E37" unicode="&#xe37;" 
d="M-211 1735c20 -29.333 38.332 -62.333 54.999 -99c-236.667 36 -446.5 56.833 -629.5 62.5s-379.833 -3.83301 -590.5 -28.5c26.667 140 83.5 249.333 170.5 328s199.167 118 336.5 118c62.667 0 122 -12.333 178 -37v120h167v-188
c54.667 -29.333 103.334 -61 146.001 -95v283h167v-464zM-1189 1804c262 20.667 528.334 16 799.001 -14c-63.333 62 -134.833 109.5 -214.5 142.5s-161.834 48.167 -246.501 45.5c-78 -2.66699 -146.333 -20.667 -205 -54s-103 -73.333 -133 -120z" />
    <glyph glyph-name="uni0E38" unicode="&#xe38;" 
d="M-373 -138c57.333 0 103.5 -13.667 138.5 -41s52.5 -67 52.5 -119v-363h-191v181c-57.333 -2 -100.166 13 -128.499 45s-42.5 73.667 -42.5 125c0 50 15.667 91.167 47 123.5s72.666 48.5 123.999 48.5zM-284 -310c0 59.333 -29.668 89 -89.001 89
c-57.333 0 -86 -29.667 -86 -89c0 -30.667 6.83301 -53 20.5 -67s35.834 -21 66.501 -21s53 7 67 21s21 36.333 21 67z" />
    <glyph glyph-name="uni0E39" unicode="&#xe39;" 
d="M-691 -599l-0.000976562 135.001c-56.667 -2.66699 -99.5 10.666 -128.5 39.999s-43.5 70 -43.5 122c0 51.333 14.833 91.5 44.5 120.5s69.834 43.5 120.501 43.5c53.333 0 95.5 -12.833 126.5 -38.5s48.833 -63.167 53.5 -112.5v-247c48 -37.333 100.333 -37.333 157 0
v380h178v-443c-174 -104 -343.333 -104 -508 0zM-698.001 -388.999c29.333 0 50.499 7 63.499 21s19.5 36 19.5 66c0 29.333 -6.5 50.5 -19.5 63.5s-34.167 19.5 -63.5 19.5s-50.666 -6.5 -63.999 -19.5s-20 -34.167 -20 -63.5c0 -58 28 -87 84 -87z" />
    <glyph glyph-name="uni0E3A" unicode="&#xe3a;" 
d="M-426 -271c0 30 10.833 55.667 32.5 77s47.5 32 77.5 32s55.5 -10.667 76.5 -32s31.5 -47 31.5 -77s-10.5 -55.833 -31.5 -77.5s-46.5 -32.5 -76.5 -32.5s-55.833 10.833 -77.5 32.5s-32.5 47.5 -32.5 77.5z" />
    <glyph glyph-name="uni0E3F" unicode="&#xe3f;" horiz-adv-x="1484" 
d="M430 852v-660h207v660h-207zM205 0l-0.000976562 1820h432v245h187v-251c314 -32 471 -191.667 471 -479c0 -90 -25.167 -166.667 -75.5 -230s-115.166 -112.333 -194.499 -147c96.667 -26.667 174 -77.334 232 -152.001s87 -168.334 87 -281.001
c0 -80 -12.333 -151.833 -37 -215.5s-60 -116.834 -106 -159.501s-100.667 -76.167 -164 -100.5s-134.333 -39.833 -213 -46.5v-193h-187v190h-432zM636.999 1044v582h-207v-582h207zM823.999 198.003c86 14 154.001 48.8311 204.001 104.498s75 128.834 75 219.501
c0 97.333 -23.833 173.333 -71.5 228s-116.834 87.334 -207.501 98.001v-650zM824 1056c71.333 16.667 127.5 48.668 168.5 96.001s61.5 108.666 61.5 183.999c0 55.333 -9.16699 102.5 -27.5 141.5s-44.333 69.5 -78 91.5s-75.167 37.667 -124.5 47v-560z" />
    <glyph glyph-name="uni0E40" unicode="&#xe40;" horiz-adv-x="808" 
d="M535 461c73.333 0 132.166 -22.167 176.499 -66.5s66.5 -102.833 66.5 -175.5c0 -74 -22.167 -133.167 -66.5 -177.5s-103.166 -66.5 -176.499 -66.5c-74 0 -135 22.333 -183 67s-72 103.667 -72 177v1195h209v-955c6.66699 1.33301 22 2 46 2zM535 102
c76 0 114 39 114 117c0 76.667 -38 115 -114 115c-76.667 0 -115 -38.333 -115 -115c0 -78 38.333 -117 115 -117z" />
    <glyph glyph-name="uni0E41" unicode="&#xe41;" horiz-adv-x="1435" 
d="M535 461c73.333 0 132.166 -22.167 176.499 -66.5s66.5 -102.833 66.5 -175.5c0 -74 -22.167 -133.167 -66.5 -177.5s-103.166 -66.5 -176.499 -66.5c-74 0 -135 22.333 -183 67s-72 103.667 -72 177v1195h209v-955c6.66699 1.33301 22 2 46 2zM535 102
c76 0 114 39 114 117c0 76.667 -38 115 -114 115c-76.667 0 -115 -38.333 -115 -115c0 -78 38.333 -117 115 -117zM1162 461c73.333 0 132.166 -22.167 176.499 -66.5s66.5 -102.833 66.5 -175.5c0 -74 -22.167 -133.167 -66.5 -177.5s-103.166 -66.5 -176.499 -66.5
c-74 0 -134.833 22.333 -182.5 67s-71.5 103.667 -71.5 177v1195h208v-955c6.66699 1.33301 22 2 46 2zM1162 102c76 0 114 39 114 117c0 76.667 -38 115 -114 115s-114 -38.333 -114 -115c0 -78 38 -117 114 -117z" />
    <glyph glyph-name="uni0E42" unicode="&#xe42;" horiz-adv-x="1088" 
d="M739 1514l0.00488281 -1055c6.66699 1.33301 22 2 46 2c73.333 0 132.166 -22.167 176.499 -66.5s66.5 -102.833 66.5 -175.5c0 -74 -22.167 -133.167 -66.5 -177.5s-103.166 -66.5 -176.499 -66.5c-74 0 -135 22.333 -183 67s-72 103.667 -72 177v1317
c-4 30 -32 58 -84 84s-112.667 46.667 -182 62s-142 26.666 -218 33.999c2.66699 44 14.167 88.333 34.5 133s47.166 85.167 80.499 121.5s74.666 66 123.999 89s101.333 34.5 156 34.5c19.333 0 40.166 -1.33301 62.499 -4s48.5 -7.16699 78.5 -13.5l74 -16
c19.333 -4.33301 49 -11.5 89 -21.5l84 -21c18 -4 35.667 -6.16699 53 -6.5s32.666 1 45.999 4s26.333 7.16699 39 12.5s23 10.5 31 15.5s15.667 10.5 23 16.5s12.166 10.333 14.499 13s4.16602 4.66699 5.49902 6l87 -135c-23.333 -28 -54.5 -49.833 -93.5 -65.5
s-79.167 -23.667 -120.5 -24s-83.333 3.5 -126 11.5c-4 1.33301 -27.5 7.66602 -70.5 18.999l-101 26c-24.333 6 -54.333 12.167 -90 18.5s-64.167 9.5 -85.5 9.5c-93.333 0 -157.666 -42 -192.999 -126c327.333 -50 491 -149.667 491 -299zM785.005 102.002
c76 0 114 39 114 117c0 76.667 -38 115 -114 115c-76.667 0 -115 -38.333 -115 -115c0 -78 38.333 -117 115 -117z" />
    <glyph glyph-name="uni0E43" unicode="&#xe43;" horiz-adv-x="1152" 
d="M880 460c73.333 0 131.997 -22.001 175.997 -66.001s66 -102.667 66 -176c0 -74 -22 -133.167 -66 -177.5s-102.667 -66.5 -176 -66.5s-134.166 22.5 -182.499 67.5s-72.5 103.833 -72.5 176.5l1 1582c0 140.667 -73.333 211 -220 211c-112 1.33301 -186 -55 -222 -169
c32 16.667 62.667 24.334 92 23.001c74 0 132.167 -21 174.5 -63s63.5 -99.333 63.5 -172c0 -70 -21.833 -127.167 -65.5 -171.5s-101.167 -66.5 -172.5 -66.5c-182.667 0 -274 113.333 -274 340c0 130 34.833 230.833 104.5 302.5s168.834 107.5 297.501 107.5
c131.333 0.666992 234.833 -28.333 310.5 -87s115.834 -143.667 120.501 -255v-1342c6.66699 1.33301 21.667 2 45 2zM275.997 1749c-43.333 0 -73.5 -9.5 -90.5 -28.5s-25.5 -49.167 -25.5 -90.5c0 -77.333 38.667 -116 116 -116c79.333 0 119 38.667 119 116
c0 40.667 -9 70.667 -27 90s-48.667 29 -92 29zM879.997 100.999c76.667 0 115 39 115 117c0 76 -38.333 114 -115 114c-76 0 -114 -38 -114 -114c0 -78 38 -117 114 -117z" />
    <glyph glyph-name="uni0E44" unicode="&#xe44;" horiz-adv-x="1066" 
d="M794 461c73.333 0 132 -22.1719 176 -66.5049s66 -102.833 66 -175.5c0 -74 -22 -133.167 -66 -177.5s-102.667 -66.5 -176 -66.5c-74 0 -135 22.333 -183 67s-72 103.667 -72 177v1247c0 17.333 20.5 98.333 61.5 243s56.833 226.334 47.5 245.001h-93l-160 -434h-161
l-15.5 50.5c-6.33301 21 -19.166 59.833 -38.499 116.5s-38 108.334 -56 155.001s-38.333 93.334 -61 140.001s-43 79 -61 97l159 98c20.667 -26 45 -80.667 73 -164s50.667 -160.333 68 -231l27 -105l179 468h141c70.667 -7.33301 120.667 -35.666 150 -84.999
s37.666 -109.333 24.999 -180l-29 -129.5c-14 -61.667 -25.167 -113.167 -33.5 -154.5s-12.5 -69.666 -12.5 -84.999l-1 -1052c6.66699 1.33301 22 2 46 2zM794 101.995c76.667 0 115 39 115 117c0 76.667 -38.333 115 -115 115c-76 0 -114 -38.333 -114 -115
c0 -78 38 -117 114 -117z" />
    <glyph glyph-name="uni0E45" unicode="&#xe45;" horiz-adv-x="1216" 
d="M1036 -561l-207.999 0.000976562v1551c0 91.333 -25.167 160.5 -75.5 207.5s-122.833 70.5 -217.5 70.5c-90 0 -167.667 -24.333 -233 -73s-102.666 -116.667 -111.999 -204l-150 91c8 44 25.333 86.667 52 128s60.667 78.833 102 112.5s91.666 60.667 150.999 81
s122.666 30.5 189.999 30.5c90 0 172.167 -14.833 246.5 -44.5s135.333 -76.334 183 -140.001s71.5 -139.5 71.5 -227.5v-1583z" />
    <glyph glyph-name="uni0E46" unicode="&#xe46;" horiz-adv-x="1845" 
d="M699 624c-46 0 -86.1699 9.49707 -120.503 28.4971s-60.833 44 -79.5 75s-32.167 67 -40.5 108s-11.333 83.333 -9 127s9.16602 87.5 20.499 131.5c20.667 83.333 55.334 153.333 104.001 210s120 104 214 142c62 -68.667 127.667 -127.667 197 -177
c73.333 42.667 143.333 100.334 210 173.001c62.667 -17.333 117.334 -43.666 164.001 -78.999s83 -76.333 109 -123s45.333 -94.667 58 -144s19 -100.666 19 -153.999v-1503l-210 2v1501c0 36 -1 66.667 -3 92s-6.16699 54.5 -12.5 87.5s-17.166 61.833 -32.499 86.5
s-34.666 44.667 -57.999 60c-22 -19.333 -43.5 -36.666 -64.5 -51.999s-41.667 -28.5 -62 -39.5s-36.333 -19.333 -48 -25s-26.667 -12.167 -45 -19.5s-28.5 -11.333 -30.5 -12c-2.66699 1.33301 -11.667 5.5 -27 12.5s-28 13.333 -38 19l-41 24
c-17.333 10.333 -35.333 22.666 -54 36.999s-38 30.5 -58 48.5c-64 -38.667 -108.333 -96 -133 -172c20 7.33301 43.667 11 71 11c67.333 0 124 -22 170 -66s69 -101.333 69 -172s-23 -128 -69 -172s-102.667 -66 -170 -66zM698.997 965.997c-70 0 -105 -34.667 -105 -104
s35 -104 105 -104s105 34.667 105 104s-35 104 -105 104z" />
    <glyph glyph-name="uni0E47" unicode="&#xe47;" 
d="M-626 1769c-2.66699 9.33301 -3.99414 20 -3.99414 32c0 47.333 15.167 86.666 45.5 117.999s70.166 47 119.499 47c50 0 90 -16 120 -48s45 -71 45 -117c0 -50.667 -18 -93.834 -54 -129.501s-78.667 -53.5 -128 -53.5c-24.667 -1.33301 -55.167 5.83398 -91.5 21.501
s-69.5 33.167 -99.5 52.5s-60.5 36.833 -91.5 52.5s-54.833 22.834 -71.5 21.501c-65.333 0 -100.333 -46.667 -105 -140h-119c-50 25.333 -92.167 64.833 -126.5 118.5s-51.5 108.5 -51.5 164.5c-1.33301 48.667 14.667 95.167 48 139.5s76.333 79.333 129 105
s105.667 37.834 159 36.501c32.667 0 85.167 -2.5 157.5 -7.5s120.833 -7.5 145.5 -7.5c127.333 -1.33301 191 37.667 191 117h168c-5.33301 -38 -14.333 -71.167 -27 -99.5s-28.667 -51.333 -48 -69s-38.5 -31.5 -57.5 -41.5s-41.167 -18.667 -66.5 -26
c-34.667 -8.66699 -105.334 -12.334 -212.001 -11.001c-130.667 6 -214.334 9 -251.001 9c-44 0 -86.333 -14.167 -127 -42.5s-61 -62.5 -61 -102.5c0 -65.333 29.333 -122 88 -170c16.667 50 37 86.333 61 109s59 34 105 34c13.333 -2 27.166 -5.5 41.499 -10.5
s26.166 -9.5 35.499 -13.5s21.833 -11 37.5 -21s26.167 -16.833 31.5 -20.5s16.666 -12 33.999 -25zM-464.994 1718c24 0 44 7.83203 60 23.499s24 34.834 24 57.501c0 24 -8 44.333 -24 61s-36 25 -60 25c-23.333 0 -43 -8.16699 -59 -24.5s-24 -36.833 -24 -61.5
c0 -22 8.16699 -41 24.5 -57s35.833 -24 58.5 -24z" />
    <glyph glyph-name="uni0E48" unicode="&#xe48;" 
d="M-230 2279h-199v441h199v-441z" />
    <glyph glyph-name="uni0E49" unicode="&#xe49;" 
d="M-135 2835h189.001c-18.667 -97.333 -55.334 -183.333 -110.001 -258s-122.667 -134.834 -204 -180.5c-81.333 -45.667 -171.666 -80 -270.999 -103s-206.333 -34.5 -321 -34.5v109c34.667 1.33301 73.167 15.333 115.5 42s69.5 53.667 81.5 81
c-14.667 -4 -30.334 -6 -47.001 -6c-57.333 0 -106.166 20.167 -146.499 60.5s-60.5 88.833 -60.5 145.5c0 56 20.333 104.167 61 144.5s89.334 60.5 146.001 60.5c55.333 0 103.166 -19.167 143.499 -57.5s60.5 -84.833 60.5 -139.5c0 -46 -8.33301 -93.667 -25 -143
s-39.667 -93 -69 -131c42.667 8 82.667 18 120 30s76.166 29 116.499 51s75.333 47.5 105 76.5s55.167 65.167 76.5 108.5s34.333 91.333 39 144zM-791.999 2691c0 -31.333 7.33203 -54.166 21.999 -68.5c14.667 -14.333 37.334 -21.5 68.001 -21.5c60 0 90 30 90 90
s-30 90 -90 90s-90 -30 -90 -90z" />
    <glyph glyph-name="uni0E4A" unicode="&#xe4a;" 
d="M-41 2724h145.999c-8.66699 -144.667 -60.167 -256.167 -154.5 -334.5s-213.833 -118.5 -358.5 -120.5c32.667 92 49 167.333 49 226c0 37.333 -7.5 69.166 -22.5 95.5c-15 26.333 -29.167 39.5 -42.5 39.5l-137 -84l-144 84c-34 -9.33301 -53.667 -34.666 -59 -76
c43.333 -2 79.833 -17.5 109.5 -46.5s44.5 -64.167 44.5 -105.5c0 -42 -15.5 -77.667 -46.5 -107s-66.833 -44 -107.5 -44c-50.667 0 -92.667 18.833 -126 56.5s-50 81.5 -50 131.5c0 90.667 20.333 163.334 61 218c40.667 54.667 100.334 89 179.001 103l139 -105l142 105
c64 -10.667 114.167 -39.834 150.5 -87.5c36.333 -47.667 54.5 -106.834 54.5 -177.5c0 -18.667 -7 -45 -21 -79c67.333 25.333 117 62.666 149 112c32 49.333 47 114.666 45 196zM-764.001 2320c23.333 0 43.166 8 59.499 24s24.5 35.333 24.5 58s-8.16699 42.334 -24.5 59
c-16.333 16.667 -36.166 25 -59.499 25c-22 0 -41 -8.33301 -57 -25s-24 -36.334 -24 -59c0 -22.667 8 -42 24 -58s35 -24 57 -24z" />
    <glyph glyph-name="uni0E4B" unicode="&#xe4b;" 
d="M-98 2430h-148v-154h-168v154h-151v151h151v147h168v-147h148v-151z" />
    <glyph glyph-name="uni0E4C" unicode="&#xe4c;" 
d="M-615 2195c-56.667 0 -105.168 20.167 -145.501 60.5s-60.5 88.5 -60.5 144.5c0 39.333 11 75.333 33 108s50.667 58.667 86 78c25.333 14 57 23.833 95 29.5s74.667 8 110 7s72.333 0.333008 111 4s73.167 9.83398 103.5 18.5c30.333 8.66699 57.333 25.834 81 51.5
c23.667 25.667 40.167 59.834 49.5 102.5l151 -33c-6 -43.333 -18.667 -81.666 -38 -115c-19.333 -33.333 -41.166 -59.5 -65.499 -78.5s-54 -35 -89 -48s-66.833 -22.167 -95.5 -27.5s-61 -9.66602 -97 -13l-42 -2c12 -27.333 18 -54.666 18 -82
c0 -56 -20.167 -104.167 -60.5 -144.5s-88.5 -60.5 -144.5 -60.5zM-615.001 2490c-31.333 0 -54.166 -7.33301 -68.499 -22s-21.5 -37.334 -21.5 -68c0 -30.667 7.16699 -53.334 21.5 -68c14.333 -14.667 37.166 -22 68.499 -22c60 0 90 30 90 90s-30 90 -90 90z" />
    <glyph glyph-name="uni0E4D" unicode="&#xe4d;" 
d="M-371 2092c72 0 129.5 -21.667 172.5 -65s64.5 -101 64.5 -173s-21.5 -129.667 -64.5 -173s-100.5 -65 -172.5 -65s-129.833 21.667 -173.5 65s-65.5 101 -65.5 173s21.833 129.667 65.5 173s101.5 65 173.5 65zM-372 1739c40 0 69.502 9.33301 88.502 28
s28.5 48 28.5 88c0 40.667 -9.5 70.667 -28.5 90s-48.5 29 -88.5 29c-40.667 0 -70.834 -9.66699 -90.501 -29s-29.5 -49.333 -29.5 -90c0 -40 9.66699 -69.333 29 -88s49.666 -28 90.999 -28z" />
    <glyph glyph-name="uni0E4E" unicode="&#xe4e;" 
d="M-512 1834l71.998 -133c-72.667 -43.333 -154 -65 -244 -65c-91.333 0 -165.333 20.667 -222 62s-85 92 -85 152c0 84 43.333 140 130 168c-63.333 24 -95 66 -95 126c0 63.333 23.667 114 71 152s111 55.667 191 53c19.333 0 37 -0.333008 53 -1
c12.667 0 28.834 -0.666992 48.501 -2s36.834 -1.66602 51.501 -1c30.667 0.666992 60.667 5.33398 90 14c30 10 57.667 25.667 83 47l-4 -72c-65.333 -84.667 -171 -126.334 -317 -125c-82 0 -123 -21.667 -123 -65c0 -24 12.333 -40.333 37 -49
c24 -8.66699 74.333 -13 151 -13v-130c-140.667 0 -211 -34 -211 -102c0 -45.333 50.333 -68 151 -68c62.667 0 120 17.333 172 52z" />
    <glyph glyph-name="uni0E4F" unicode="&#xe4f;" horiz-adv-x="1442" 
d="M719 1189c94.667 0 183.332 -24.333 265.999 -73s148.334 -114.167 197.001 -196.5s73 -170.833 73 -265.5c0 -94 -24.5 -182 -73.5 -264s-114.833 -147.333 -197.5 -196s-171 -73 -265 -73s-181.833 24.333 -263.5 73s-146.5 114.167 -194.5 196.5
s-72 170.833 -72 265.5s24.167 183 72.5 265s113.333 147.167 195 195.5s169.167 72.5 262.5 72.5zM718.998 262c108 0 200.999 39 278.999 117s117 170.333 117 277c0 105.333 -39.667 197 -119 275s-171.666 117 -276.999 117c-107.333 0 -199.166 -38.5 -275.499 -115.5
s-114.5 -169.167 -114.5 -276.5c0 -108 38.167 -200.667 114.5 -278s168.166 -116 275.499 -116zM718.997 861c54.667 0 102.833 -20.667 144.5 -62s62.5 -89 62.5 -143c0 -56 -20.5 -104.5 -61.5 -145.5s-89.5 -61.5 -145.5 -61.5c-54 0 -101.333 20.5 -142 61.5
s-61 89.5 -61 145.5c0 57.333 19.667 105.833 59 145.5s87.333 59.5 144 59.5z" />
    <glyph glyph-name="uni0E50" unicode="&#xe50;" horiz-adv-x="1610" 
d="M802 1101c80.667 0 158.831 -14.332 234.498 -42.999s142 -67.667 199 -117s102.667 -109.166 137 -179.499s51.5 -144.5 51.5 -222.5c0 -104.667 -29 -200.5 -87 -287.5s-134.5 -154.667 -229.5 -203s-196.833 -72.5 -305.5 -72.5
c-107.333 0 -208.166 24.5 -302.499 73.5s-170.166 117 -227.499 204s-86 182.167 -86 285.5c0 77.333 17 151.166 51 221.499s79.167 130.166 135.5 179.499s122 88.5 197 117.5s152.5 43.5 232.5 43.5zM1234 540.001c0 108.667 -43.168 201.001 -129.501 277.001
s-187.166 114 -302.499 114c-74.667 0 -144.834 -17 -210.501 -51s-118.667 -81.333 -159 -142s-60.5 -126.667 -60.5 -198c0 -72.667 20 -139.334 60 -200.001s92.833 -108.167 158.5 -142.5s136.167 -51.5 211.5 -51.5c116.667 0 217.834 38.167 303.501 114.5
s128.5 169.5 128.5 279.5z" />
    <glyph glyph-name="uni0E51" unicode="&#xe51;" horiz-adv-x="1747" 
d="M972 275c-1.33301 1.33301 -3.99805 3.33203 -7.99805 5.99902c-36 -20 -73.667 -30 -113 -30c-60.667 0 -112.5 21.5 -155.5 64.5s-64.5 94.5 -64.5 154.5s21.833 111.833 65.5 155.5s95.167 65.5 154.5 65.5c87.333 0 155 -29.333 203 -88s69.333 -139 64 -241
c-2.66699 -99.333 -42.5 -186 -119.5 -260s-165.833 -111 -266.5 -111c-98 0 -188.833 23.5 -272.5 70.5s-150.167 111.5 -199.5 193.5s-74 171.667 -74 269c0 87.333 20 168.5 60 243.5s92.5 136.833 157.5 185.5s138.167 86.667 219.5 114s164.333 41 249 41
c94.667 0 184 -14.5 268 -43.5s157.167 -69.5 219.5 -121.5s111.5 -117 147.5 -195s54 -163.667 54 -257c0 -196 -79.667 -383 -239 -561l-168 32c150.667 178.667 226 355 226 529c0 90 -23.833 169.167 -71.5 237.5s-109.5 119.833 -185.5 154.5s-160.333 53 -253 55
c-83.333 2 -162.833 -14.5 -238.5 -49.5s-137.334 -85.333 -185.001 -151s-71.5 -138.5 -71.5 -218.5c0 -107.333 33.667 -198.166 101 -272.499s152.666 -111.5 255.999 -111.5c122 0 202 46.667 240 140zM851.002 361.999c30.667 0 56.667 10.667 78 32s32 47.333 32 78
s-10.333 56.5 -31 77.5s-47 31.5 -79 31.5c-29.333 0 -54.833 -10.833 -76.5 -32.5s-32.5 -47.5 -32.5 -77.5s10.833 -55.667 32.5 -77s47.167 -32 76.5 -32z" />
    <glyph glyph-name="uni0E52" unicode="&#xe52;" horiz-adv-x="1850" 
d="M459 1295l-0.00390625 -1139h877c26.667 0 52.334 13.5 77.001 40.5s37 54.5 37 82.5v506c0 56.667 -11.667 102 -35 136s-53 51 -89 51c-43.333 0 -77 -12.5 -101 -37.5s-36.333 -61.833 -37 -110.5h-94c-3.33301 44.667 -17.5 80.5 -42.5 107.5
s-56.833 40.5 -95.5 40.5c-45.333 0 -80.666 -13.333 -105.999 -40s-38 -65.667 -38 -117v-96c30.667 12.667 60.334 19 89.001 19c60.667 0 112.5 -21.667 155.5 -65s64.5 -95 64.5 -155s-21.5 -111.667 -64.5 -155s-94.5 -65 -154.5 -65c-187.333 0 -281 111.333 -281 334
v153c0 89.333 27.167 165 81.5 227s126.5 93 216.5 93c94.667 0 169 -45 223 -135c40 90 113 135 219 135c84.667 0 152.167 -28.5 202.5 -85.5s75.5 -135.167 75.5 -234.5v-559c0 -60.667 -28 -113.167 -84 -157.5s-118 -66.5 -186 -66.5h-1097v1260
c0 10 -0.5 19.5 -1.5 28.5s-2.83301 18 -5.5 27s-5.16699 17 -7.5 24s-5.83301 14.833 -10.5 23.5l-11 20.5c-2.66699 5 -7 11.667 -13 20s-10.167 14 -12.5 17l-13 17c-6.33301 8.33301 -10.166 13.166 -11.499 14.499l140 117c38 -27.333 69.667 -66.5 95 -117.5
s38 -103.833 38 -158.5zM900.996 412.001c31.333 0 57.333 10.167 78 30.5s31 45.833 31 76.5s-10.667 57 -32 79s-47 33 -77 33c-29.333 0 -55 -11 -77 -33s-33 -48 -33 -78s10.833 -55.5 32.5 -76.5s47.5 -31.5 77.5 -31.5z" />
    <glyph glyph-name="uni0E53" unicode="&#xe53;" horiz-adv-x="1821" 
d="M210 311l0.000976562 375c0 142.667 32.667 248.167 98 316.5s168 102.5 308 102.5c126 0 227 -67.667 303 -203c66 135.333 164.667 203 296 203c264.667 0 397 -139.667 397 -419v-686h-178v686c0 197.333 -73 296 -219 296c-62 0 -111.333 -27.167 -148 -81.5
s-55 -128.5 -55 -222.5v-678h-181v678c0 94.667 -19.333 169 -58 223s-91 81 -157 81c-145.333 0 -218 -98.667 -218 -296v-288c29.333 12 59.666 18 90.999 18c60.667 0 112.334 -21.5 155.001 -64.5s64 -94.833 64 -155.5c0 -60 -21.333 -111.667 -64 -155
s-94.334 -65 -155.001 -65c-186 0 -279 111.667 -279 335zM489.001 89c29.333 0 54.833 10.833 76.5 32.5s32.5 47.5 32.5 77.5s-10.833 56 -32.5 78s-47.167 33 -76.5 33c-30.667 0 -56.834 -11 -78.501 -33s-32.5 -48 -32.5 -78s10.833 -55.833 32.5 -77.5
s47.834 -32.5 78.501 -32.5z" />
    <glyph glyph-name="uni0E54" unicode="&#xe54;" horiz-adv-x="1861" 
d="M1056 342l-4.00488 -12.999c40.667 -42.667 90.5 -78.834 149.5 -108.501s121.833 -44.5 188.5 -44.5c108.667 0 195.334 -14.667 260.001 -44l-95 -148c-73.333 30.667 -155.666 46 -246.999 46c-18.667 0 -104.5 -7.66699 -257.5 -23s-239.5 -23 -259.5 -23
c-112 0 -213.667 21.833 -305 65.5s-164.166 106.834 -218.499 189.501s-81.5 177.667 -81.5 285c0 78 15.667 151.667 47 221s73.166 128.333 125.499 177s113.833 87.167 184.5 115.5s144.334 42.5 221.001 42.5h286c90.667 0.666992 164 8.83398 220 24.501
s103 41.167 141 76.5c40.667 38 70.334 85.833 89.001 143.5s33.334 130.834 44.001 219.501l168 -5c-12.667 -114.667 -35.5 -211.334 -68.5 -290.001s-82.167 -142.334 -147.5 -191.001c-52 -38.667 -116.667 -70.334 -194 -95.001s-164 -37 -260 -37h-274
c-73.333 0 -140.5 -19.5 -201.5 -58.5s-108.167 -89 -141.5 -150s-50 -125.5 -50 -193.5c0 -113.333 39.333 -204.666 118 -273.999s178 -104 298 -104c48.667 0 137 9 265 27v16c-50 30.667 -96 73.167 -138 127.5s-64.333 109.166 -67 164.499
c-4 90 16.667 162.333 62 217s110.333 82 195 82c59.333 0 111 -22 155 -66s66 -95.667 66 -155c0 -60.667 -21.667 -112.667 -65 -156s-95.333 -65 -156 -65c-24 0 -41.333 1.33301 -52 4zM1108 451.001c30.667 0 56.667 10.499 78 31.499s32 46.5 32 76.5
c0 30.667 -10.667 56.834 -32 78.501s-47.333 32.5 -78 32.5c-29.333 0 -54.833 -10.667 -76.5 -32s-32.5 -47.333 -32.5 -78c0 -30 10.667 -55.667 32 -77s47 -32 77 -32z" />
    <glyph glyph-name="uni0E55" unicode="&#xe55;" horiz-adv-x="1861" 
d="M764 1078l89.9971 0.00195312c-15.333 30.667 -23 64 -23 100c0 60.667 21.333 112.667 64 156s95 65 157 65c60.667 0 112.334 -21.667 155.001 -65s64 -95.333 64 -156c0 -26.667 -5 -53 -15 -79c50 12.667 91 33.5 123 62.5s62 65.5 90 109.5
c13.333 22.667 24.833 50.667 34.5 84s16.167 60.333 19.5 81s8.33301 54 15 100l174 -5c-9.33301 -93.333 -25.666 -174.333 -48.999 -243s-58 -126 -104 -172c-118 -126.667 -290.333 -190 -517 -190h-274c-54 0.666992 -103.5 -7.83301 -148.5 -25.5
s-82.333 -40.5 -112 -68.5s-54.667 -60.167 -75 -96.5s-35 -72.5 -44 -108.5s-13.5 -71.333 -13.5 -106c0 -108.667 38.5 -198.667 115.5 -270s177.167 -107 300.5 -107c50.667 0 139 11 265 33v9c-56 34 -103.667 79.667 -143 137s-60 110 -62 158
c-3.33301 90 17.667 162 63 216s110 81 194 81c59.333 0 111 -21.833 155 -65.5s66 -94.834 66 -153.501c0 -61.333 -21.667 -114 -65 -158s-95.333 -66 -156 -66c-20 0 -37.333 2.33301 -52 7l-4 -16c40.667 -42 90.667 -77.667 150 -107s122 -44 188 -44
c110 0 196.667 -14.333 260 -43l-95 -148c-74.667 29.333 -157 44 -247 44c-19.333 0 -105.5 -7.33301 -258.5 -22s-239.167 -22 -258.5 -22c-112 0 -213.667 21.667 -305 65s-164.166 106.166 -218.499 188.499s-81.5 176.833 -81.5 283.5c0 104 26.5 198.833 79.5 284.5
s123.667 152.5 212 200.5s183.833 72 286.5 72zM1108 451.002c30.667 0 56.667 10.5 78 31.5s32 46.5 32 76.5c0 30.667 -10.667 56.834 -32 78.501s-47.333 32.5 -78 32.5c-29.333 0 -54.833 -10.833 -76.5 -32.5s-32.5 -47.834 -32.5 -78.501c0 -30 10.667 -55.5 32 -76.5
s47 -31.5 77 -31.5zM1052 1070c29.333 0 54.833 10.667 76.5 32s32.5 47.333 32.5 78c0 30 -10.667 55.667 -32 77s-47 32 -77 32c-30.667 0 -57 -10.667 -79 -32s-33 -47 -33 -77c0 -30.667 11 -56.667 33 -78s48.333 -32 79 -32z" />
    <glyph glyph-name="uni0E56" unicode="&#xe56;" horiz-adv-x="1628" 
d="M845 1021c80 0 156.001 -12.667 228.001 -38s135.167 -60.5 189.5 -105.5s97.5 -100.667 129.5 -167s48 -138.5 48 -216.5c0 -97.333 -25.667 -186 -77 -266s-119.333 -142 -204 -186s-176.334 -66 -275.001 -66c-129.333 0 -230.666 32 -303.999 96
c-79.333 69.333 -119 149 -119 239c0 62 21.167 114.333 63.5 157s94.833 64 157.5 64c61.333 0 113.166 -21.5 155.499 -64.5s63.5 -95.167 63.5 -156.5c0 -71.333 -28.333 -128.333 -85 -171c20.667 -17.333 43.334 -26 68.001 -26c102 0 188.833 37.5 260.5 112.5
s107.5 164.167 107.5 267.5c0 106 -39.333 194.5 -118 265.5s-174 106.5 -286 106.5c-165.333 0 -335.333 -59 -510 -177l-47 67c-60 336 -142.333 590 -247 762l159 56c87.333 -156.667 149.666 -383 186.999 -679l11 -10c50.667 32.667 120.167 63.5 208.5 92.5
s166.833 43.5 235.5 43.5zM602.001 236c20.667 -20.667 47 -30.999 79 -30.999s58.333 10.333 79 31s31.167 46.667 31.5 78s-10.5 57.333 -32.5 78s-48 31 -78 31c-9.33301 0 -18.666 -1.16699 -27.999 -3.5s-18.333 -5.83301 -27 -10.5s-16.667 -10.334 -24 -17.001
c-22 -20.667 -32.833 -46.5 -32.5 -77.5s11.166 -57.167 32.499 -78.5z" />
    <glyph glyph-name="uni0E57" unicode="&#xe57;" horiz-adv-x="2140" 
d="M1741 354l0.00585938 834.998c0 50.667 6.83301 93.334 20.5 128.001s33.5 70.334 59.5 107.001c17.333 22.667 27 35 29 37l178 -67c-0.666992 -2 -7 -10.667 -19 -26c-26.667 -32.667 -46.834 -64.667 -60.501 -96s-20.5 -70 -20.5 -116v-854
c-10.667 -51.333 -35 -98 -73 -140s-83.333 -75.667 -136 -101s-109.167 -44.166 -169.5 -56.499s-119.5 -17.5 -177.5 -15.5v686c5.33301 98.667 -7.33398 172.667 -38.001 222s-79.334 73.666 -146.001 72.999c-63.333 0 -113.5 -27.167 -150.5 -81.5
s-55.5 -128.833 -55.5 -223.5v-155h-180v155c0 94 -19.667 168.333 -59 223s-91.666 82 -156.999 82c-126.667 0 -189.334 -98.333 -188.001 -295v-277c29.333 12 59.666 18 90.999 18c60.667 0 112.334 -21.5 155.001 -64.5s64 -94.833 64 -155.5
c0 -60 -21.333 -111.667 -64 -155s-94.334 -65 -155.001 -65c-186 0 -279 111.667 -279 335v364c0 140 32.5 245 97.5 315s162.5 104.667 292.5 104c117.333 0 213.666 -67.667 288.999 -203c66 135.333 165.667 203 299 203c254 0 375.333 -139.667 364 -419v-531
c68 3.33301 114.167 20.333 138.5 51s41.166 83.667 50.499 159zM489.006 88.998c29.333 0 54.834 10.833 76.501 32.5s32.5 47.5 32.5 77.5s-10.833 56 -32.5 78s-47.167 33 -76.5 33c-30.667 0 -56.834 -11 -78.501 -33s-32.5 -48.333 -32.5 -79
c0 -29.333 11 -54.833 33 -76.5s48 -32.5 78 -32.5z" />
    <glyph glyph-name="uni0E58" unicode="&#xe58;" horiz-adv-x="2001" 
d="M1515 668c82 0 146 -26.6699 192 -80.0029s67.333 -125.333 64 -216c-2 -55.333 -9.5 -106.166 -22.5 -152.499s-31.667 -88 -56 -125s-56.5 -66 -96.5 -87s-85.667 -31.5 -137 -31.5c-86 0 -176.333 37.333 -271 112l-79.5 65.5c-39 32.333 -68.333 56 -88 71
s-43.667 29.833 -72 44.5s-52.833 22 -73.5 22c-31.333 0 -54 -17.333 -68 -52s-21 -76.334 -21 -125.001l3 -114l-22 -21c-104.667 0 -201.167 22.667 -289.5 68s-159 109.5 -212 192.5s-79.5 176.167 -79.5 279.5c0 78 15.667 151.667 47 221s73.166 128.333 125.499 177
s113.833 87.167 184.5 115.5s144.334 42.5 221.001 42.5h316c84.667 0 154.834 8.66699 210.501 26s106.5 44.333 152.5 81c38 32 65.333 78.5 82 139.5s29.667 135.167 39 222.5l180 -10c-14 -113.333 -38 -209.666 -72 -288.999s-83.333 -143.666 -148 -192.999
c-50 -38 -113.833 -69.333 -191.5 -94s-164.5 -37 -260.5 -37h-304c-54 0 -103.5 -8.5 -148.5 -25.5s-82.333 -39.333 -112 -67s-54.667 -59.334 -75 -95.001s-35 -71.5 -44 -107.5s-13.5 -71.667 -13.5 -107c0 -84.667 23.5 -158.5 70.5 -221.5
s111.833 -108.167 194.5 -135.5c2.66699 97.333 24.5 172 65.5 224s97.5 78 169.5 78c40.667 0 82.667 -11.167 126 -33.5s83.666 -51.166 120.999 -86.499c4 -3.33301 15.167 -14 33.5 -32s30.5 -29.667 36.5 -35l34.5 -32c17 -16 29.833 -27 38.5 -33
s20.834 -15 36.501 -27s29 -20.667 40 -26l37.5 -18c14 -6.66699 27.5 -11.167 40.5 -13.5s26.167 -3.5 39.5 -3.5c45.333 0 82.166 11.167 110.499 33.5s45.833 54.5 52.5 96.5c-35.333 -18.667 -71 -28 -107 -28c-61.333 0 -113 21.833 -155 65.5s-64 96.167 -66 157.5
c-2 58.667 19.167 109.834 63.5 153.501s96.833 65.5 157.5 65.5zM1515 341.997c30 0 55.833 10.5 77.5 31.5s32.5 46.5 32.5 76.5c0 30.667 -10.833 56.834 -32.5 78.501s-47.5 32.5 -77.5 32.5c-30.667 0 -56.834 -10.833 -78.501 -32.5s-32.5 -47.834 -32.5 -78.501
c0 -30 10.833 -55.5 32.5 -76.5s47.834 -31.5 78.501 -31.5z" />
    <glyph glyph-name="uni0E59" unicode="&#xe59;" horiz-adv-x="2001" 
d="M250 311l-40.0059 324.002c4 307.333 142 461 414 461c111.333 0 216 -65 314 -195c0.666992 1.33301 7.16699 11.5 19.5 30.5s20 30.5 23 34.5l23 30.5c12.333 16.333 21.5 27.166 27.5 32.499l28 25.5c12.667 11.667 23.834 19.5 33.501 23.5s21.334 8 35.001 12
s27.5 6 41.5 6c18.667 0 37.167 -3 55.5 -9s34.666 -13 48.999 -21s29.333 -19.833 45 -35.5s28.334 -29.167 38.001 -40.5s21.334 -27.5 35.001 -48.5s23.5 -36.667 29.5 -47l27 -48c12 -21.667 19.667 -35.167 23 -40.5c12 -20.667 21.167 -36 27.5 -46
s14.833 -19.833 25.5 -29.5s21 -14.5 31 -14.5c22 0 41.167 8.83301 57.5 26.5s29.166 44.167 38.499 79.5s16.833 70.666 22.5 105.999s9.33398 80.333 11.001 135s2.66699 99.834 3 135.501s0 81.667 -1 138s-1.5 94.5 -1.5 114.5l181 -1
c0 -207.333 -5.33301 -357.333 -16 -450c-27.333 -244 -101.333 -387.333 -222 -430c-26.667 -9.33301 -55.667 -14 -87 -14c-22 0 -44.167 6.5 -66.5 19.5s-42.666 30.333 -60.999 52s-34.166 42.167 -47.499 61.5s-25.333 39.333 -36 60c-44 83.333 -79.333 138 -106 164
c-19.333 18.667 -36.666 28.334 -51.999 29.001c-60.667 0 -106 -72.667 -136 -218c26 -50 78.667 -179.5 158 -388.5s123.333 -323.833 132 -344.5h-192l-87.5 250c-18.333 52 -48 131 -89 237s-80.833 202.667 -119.5 290c-22.667 51.333 -53 97.666 -91 138.999
s-79 62 -123 62c-148 0 -222 -111.333 -222 -334l39 -237c26 14 55.667 21 89 21c60.667 0 112.667 -21.5 156 -64.5s65 -95.167 65 -156.5c0 -60.667 -21.5 -112.334 -64.5 -155.001s-95.167 -64 -156.5 -64c-88 0 -154.833 27.167 -200.5 81.5
s-72.167 137.833 -79.5 250.5zM529.994 91.002c30.667 0 56.834 10.5 78.501 31.5s32.5 46.5 32.5 76.5s-10.833 56 -32.5 78s-47.834 33 -78.501 33c-29.333 0 -55 -11 -77 -33s-33 -48 -33 -78s10.833 -55.5 32.5 -76.5s47.5 -31.5 77.5 -31.5z" />
    <glyph glyph-name="uni0E5A" unicode="&#xe5a;" horiz-adv-x="1872" 
d="M412 975c14.667 -5.33301 29 -10.168 43 -14.501s27.667 -8.16602 41 -11.499s26.666 -6 39.999 -8s26.333 -3.66699 39 -5s25 -2 37 -2c38.667 0 75.334 5 110.001 15c87.333 25.333 157.5 78.5 210.5 159.5s79.5 176.833 79.5 287.5h198v-1396h-195v1005
c-44.667 -66.667 -106 -118.5 -184 -155.5s-159 -55.167 -243 -54.5c-22.667 0 -45 1.66699 -67 5c-102.667 16.667 -184.167 58.167 -244.5 124.5s-90.5 154.5 -90.5 264.5c0 59.333 21 109.5 63 150.5s92.333 61.5 151 61.5c58 0 107.833 -20.833 149.5 -62.5
s62.5 -91.5 62.5 -149.5c0 -57.333 -19.333 -106.333 -58 -147s-86 -63 -142 -67zM400 1085c28.667 0 53.833 10.167 75.5 30.5s32.5 45.5 32.5 75.5c0 28 -10.5 52.5 -31.5 73.5s-46.5 31.5 -76.5 31.5c-30.667 0 -56 -10 -76 -30s-30 -45 -30 -75
c0 -29.333 10.333 -54.333 31 -75s45.667 -31 75 -31zM1664 1399v-1399h-186v1399h186z" />
    <glyph glyph-name="uni0E5B" unicode="&#xe5b;" horiz-adv-x="2466" 
d="M1962 812l-198.002 -0.000976562l-128 -181l-107 181l-123 -263l-102 267l-113 -306l-146 279c-20 -177.333 -71.667 -316.333 -155 -417c-82 -102 -180.667 -153 -296 -153c-111.333 0 -206 50.333 -284 151c-77.333 100.667 -118.666 232 -123.999 394
c0 157.333 30.667 285.333 92 384c60.667 97.333 143.334 146 248.001 146c84.667 0 152.667 -33.333 204 -100c52 -67.333 78 -152.666 78 -255.999c0 -104.667 -24.333 -184.334 -73 -239.001c-36 -48.667 -79.333 -73 -130 -73c-45.333 0 -82.666 18 -111.999 54
s-44 81.333 -44 136c0 52 14 96.333 42 133c28.667 37.333 66.667 56 114 56c38 0 67.667 -12 89 -36c0 68.667 -15.833 123.334 -47.5 164.001s-71.834 61 -120.501 61c-66.667 0 -122.334 -37.333 -167.001 -112c-43.333 -72.667 -65 -166.667 -65 -282
c0 -140.667 28.333 -256 85 -346c56 -88.667 127.667 -133 215 -133c102.667 0 188.334 60 257.001 180c70 120.667 105 275.667 105 465v39l-5 61l54 63l173 -398l118 339l122 -295l106 219l118 -200l87 116l229 2c115.333 -6 216 3.33301 302 28
c-64.667 -61.333 -164 -104 -298 -128zM531.998 815.999c0 -28 6.66699 -50.834 20 -68.501s30 -26.5 50 -26.5c22 0 39.667 8.5 53 25.5s20 40.167 20 69.5c0 28.667 -6.66699 52.334 -20 71.001s-31 28 -53 28c-20 0 -36.667 -9.5 -50 -28.5s-20 -42.5 -20 -70.5z" />
    <glyph glyph-name="endash" unicode="&#x2013;" horiz-adv-x="1348" 
d="M232 825h886v-177h-886v177z" />
    <glyph glyph-name="emdash" unicode="&#x2014;" horiz-adv-x="1756" 
d="M1524 825v-177h-1292v177h1292z" />
    <glyph glyph-name="quoteleft" unicode="&#x2018;" horiz-adv-x="521" 
d="M140 1256v253.999c0 108.667 17.333 193.334 52 254.001c36 61.333 89 109.333 159 144l30 -60c-57.333 -37.333 -94 -80 -110 -128c-14.667 -44.667 -22 -114.667 -22 -210h116v-254h-225z" />
    <glyph glyph-name="quoteright" unicode="&#x2019;" horiz-adv-x="521" 
d="M381 1908l0.000976562 -254c0 -109.333 -17.667 -194 -53 -254c-34.667 -60 -87.334 -108 -158.001 -144l-30 60c56 38 91.333 80.667 106 128c16 48 24 118 24 210h-116v254h227z" />
    <glyph glyph-name="quotedblleft" unicode="&#x201c;" horiz-adv-x="926" 
d="M542 1239v253c0 108.667 18 193 54 253c36 61.333 88.667 109 158 143l32 -60c-57.333 -35.333 -94 -77.333 -110 -126c-14.667 -44.667 -22 -114.667 -22 -210h126v-253h-238zM140 1239v253c0 193.333 70.333 325.333 211 396c8 -13.333 19 -33.333 33 -60
c-57.333 -35.333 -94 -77.333 -110 -126c-15.333 -47.333 -23 -117.333 -23 -210h127v-253h-238z" />
    <glyph glyph-name="quotedblright" unicode="&#x201d;" horiz-adv-x="923" 
d="M381 1888l0.000976562 -254c0 -109.333 -17.667 -194 -53 -254c-34.667 -60 -87.334 -108 -158.001 -144l-30 60c56 38 91.333 80.667 106 128c16 48 24 118 24 210h-126v254h237zM784.001 1888v-254.001c0 -108 -18 -192.667 -54 -254
c-34.667 -60 -87.334 -108 -158.001 -144l-30 60c56.667 38.667 92.334 81.334 107.001 128.001c15.333 46 23 116 23 210h-124v254v0v0v0v0v0v0h1v0v0v0v0h1v0v0h1v0v0h1v0h1v0h1v0h1v0h1v0h1v0h1v0h1v0h1v0h1h1v0h1h1v0h1h1h1v0h1h1h1h1h1h1v0h1h1h1h1h1h1h1h1h1h1h1h1h1
h1h1h1h1h1h1h1h1h1h1h1h1h1h1h1h1h1h1h1h1h1h1h1h1h1h1h1h1h1h1h1h1h1h1h1h1h1h1h1h1h1h1h1h1h1h1h1h1h1h1h1h1h1h1h1h1h1h1h1h1h1h1h1h1h1h1h1h1h1h1h1h1h1h1h1h1h1h1h1h1h1h1h1h1h1h1h1h1h1h1h1h1h1h1h1h1h1h1h1h1h1h1h1h1h1h1h1h1h1h1h1h1h1h1h1h1h1h1h1h1h1h1h1h1h1h1h1
h1h1h1h1h1h1h1h1h1h1h1h1h1h1h1h1h1h1h1h1h1h1h1h1h1h1h1h1h1h1h1h1h1h1h1h1h1h1h1h1h1h1h1h1h1h1h1h1h1h1h1h1h1h1h1h1h1h1h1h1h1h10z" />
    <glyph glyph-name="bullet" unicode="&#x2022;" horiz-adv-x="1178" 
d="M594 191c-96.667 0 -181 35.002 -253 105.002c-72.667 71.333 -109 154.666 -109 249.999c0 96 36 179.333 108 250c71.333 70.667 156 106 254 106c93.333 0 175.333 -35.333 246 -106c72 -70.667 108 -153.334 108 -248.001s-36 -178 -108 -250
c-71.333 -71.333 -153.333 -107 -246 -107z" />
    <glyph glyph-name="ellipsis" unicode="&#x2026;" horiz-adv-x="1688" 
d="M300 159c22.667 0 43.167 -9.16699 61.5 -27.5s27.5 -38.833 27.5 -61.5s-9.16699 -43.167 -27.5 -61.5s-38.833 -27.5 -61.5 -27.5c-24.667 0 -45.834 9 -63.501 27s-26.5 38.667 -26.5 62s8.83301 44 26.5 62s38.834 27 63.501 27zM845 -19
c-23.333 0 -44 9.16699 -62 27.5s-27 38.833 -27 61.5s9 43.167 27 61.5s38.667 27.5 62 27.5s44 -9.16699 62 -27.5s27 -38.833 27 -61.5c0 -23.333 -8.66699 -44 -26 -62s-38.333 -27 -63 -27zM1390 159c22.667 0 43 -9 61 -27s27 -38.667 27 -62
c0 -22.667 -9 -43.167 -27 -61.5s-38.333 -27.5 -61 -27.5c-24.667 0 -45.667 9 -63 27s-26 38.667 -26 62s8.66699 44 26 62s38.333 27 63 27z" />
    <glyph glyph-name="Euro" unicode="&#x20ac;" horiz-adv-x="1640" 
d="M1122 714l0.000976562 -195h-576c16 -68 40.667 -127.833 74 -179.5s77 -93.334 131 -125.001s114.667 -47.834 182 -48.501c86 0 157.333 12.667 214 38s100 59.5 130 102.5s54.667 99.5 74 169.5l173 -97c-28 -130 -94.833 -230.667 -200.5 -302
s-235.5 -105.666 -389.5 -102.999c-160 0 -294.5 50.333 -403.5 151s-178.5 232 -208.5 394h-242v195h227v315h-227v195h231c12 118 44.667 223.833 98 317.5s125.666 167.834 216.999 222.501s194 82 308 82c152.667 0 281.5 -36 386.5 -108s171.833 -172.667 200.5 -302
l-174 -97c-28.667 106 -74 184.667 -136 236s-154.667 77 -278 77c-57.333 0 -109.833 -11.333 -157.5 -34s-88 -53.667 -121 -93s-59.833 -84.5 -80.5 -135.5s-34.667 -106.167 -42 -165.5h590v-195h-595v-315h595z" />
    <glyph glyph-name="uni0E0D.descless" unicode="&#xee0d;" horiz-adv-x="2137" 
d="M537 336c-76 0 -114 -38.333 -114 -115c0 -77.333 38 -116 114 -116s114 38.667 114 116c0 76.667 -38 115 -114 115zM1300 379c0.666992 -64.667 19.6641 -116.334 56.9971 -155.001s85 -58 143 -58h47c56 0 102.833 19.667 140.5 59s57.5 90.666 59.5 153.999v1033h210
v-1047c-0.666992 -72 -19 -136.167 -55 -192.5s-83.167 -99.166 -141.5 -128.499s-121.833 -44 -190.5 -44h-94c-67.333 0 -129.333 13.833 -186 41.5s-103.5 69.667 -140.5 126s-56.833 122.5 -59.5 198.5v649v1c0 45.333 -11.667 85.166 -35 119.499
s-54.333 60.833 -93 79.5s-79.5 32.334 -122.5 41.001s-88.167 13 -135.5 13c-41.333 0 -81.833 -3 -121.5 -9s-79.834 -16.167 -120.501 -30.5s-74.834 -35.666 -102.501 -63.999s-45.167 -62.166 -52.5 -101.499c74.667 -30.667 136 -65 184 -103v-500c10 2 25.333 3 46 3
c72.667 0 131.334 -22.333 176.001 -67s67 -103.334 67 -176.001c0 -74 -22.167 -133 -66.5 -177s-103.166 -66 -176.499 -66c-74 0 -134.833 22.167 -182.5 66.5s-71.5 103.166 -71.5 176.499l-2 714c-42 20.667 -102.333 39.334 -181 56.001
c8.66699 72.667 31.834 138 69.501 196s84.667 104.667 141 140s118 62.166 185 80.499s136.5 27.5 208.5 27.5c69.333 0 138.333 -8.83301 207 -26.5s132.334 -42.667 191.001 -75s106.334 -75.166 143.001 -128.499s55 -112.333 55 -177v-649z" />
    <glyph glyph-name="uni0E10.descless" unicode="&#xee10;" horiz-adv-x="1309" 
d="M575 1262c-66 0 -124.326 -19.1709 -174.993 -57.5039s-77.334 -88.833 -80.001 -151.5c14.667 0 38.667 0.333008 72 1c188 1.33301 328 -5.66699 420 -21c210 -36.667 315 -123.667 315 -261v-633l-13 -13.5c-8 -8.33301 -16.5 -16.666 -25.5 -24.999
s-20.333 -18.166 -34 -29.499s-30.334 -23.166 -50.001 -35.499s-40.834 -24.166 -63.501 -35.499h-172l-180 374c-45.333 -45.333 -104 -68 -176 -68c-72.667 0 -131.334 22.333 -176.001 67s-67 103.667 -67 177c0 72.667 22.167 131.167 66.5 175.5
s103.166 66.5 176.499 66.5c54.667 0 101.667 -12.833 141 -38.5s68 -60.834 86 -105.501l236 -464h41v584c-2.66699 19.333 -12.5 37 -29.5 53s-40 29.333 -69 40s-60.833 19.834 -95.5 27.501s-73.5 13.5 -116.5 17.5s-83.667 7.33301 -122 10s-79.5 4.16699 -123.5 4.5
s-80.833 0.5 -110.5 0.5s-60.167 -0.333008 -91.5 -1s-51 -1 -59 -1c0 94 20.333 180 61 258s97.5 139.833 170.5 185.5s154.167 68.5 243.5 68.5c22.667 0 45 -1 67 -3s46.167 -5.83301 72.5 -11.5l60 -13c13.667 -3 36.834 -9 69.501 -18s53.334 -14.5 62.001 -16.5
c18 -4 35.833 -6.16699 53.5 -6.5s33.167 1 46.5 4s26.5 7.16699 39.5 12.5s23.667 10.5 32 15.5s16.166 10.5 23.499 16.5s12.166 10.167 14.499 12.5l5.5 5.5l-1 -1l79 -143c-34 -39.333 -82.333 -65 -145 -77s-125.334 -10 -188.001 6
c-1.33301 0 -11.833 2.66699 -31.5 8s-33.834 9 -42.501 11l-45.5 10c-21.667 4.66699 -40 8 -55 10s-33.333 4 -55 6s-42.167 3 -61.5 3zM413.007 434.996c76 0 114 38.333 114 115s-38 115 -114 115c-77.333 0 -116 -38.333 -116 -115s38.667 -115 116 -115z" />
    <glyph glyph-name="uni0E48.nik" unicode="&#xee48;" 
d="M-269 2229h-199v421h199v-421zM-371 2092c72 0 129.5 -21.667 172.5 -65s64.5 -101 64.5 -173s-21.5 -129.667 -64.5 -173s-100.5 -65 -172.5 -65s-129.833 21.667 -173.5 65s-65.5 101 -65.5 173s21.833 129.667 65.5 173s101.5 65 173.5 65zM-372 1739
c40 0 69.502 9.33301 88.502 28s28.5 48 28.5 88c0 40.667 -9.5 70.667 -28.5 90s-48.5 29 -88.5 29c-40.667 0 -70.834 -9.66699 -90.501 -29s-29.5 -49.333 -29.5 -90c0 -40 9.66699 -69.333 29 -88s49.666 -28 90.999 -28z" />
    <glyph glyph-name="uni0E49.nik" unicode="&#xee49;" 
d="M85 2760h188.997c-18.667 -97.333 -56 -183.333 -112 -258s-125.667 -134.834 -209 -180.5c-83.333 -45.667 -175.666 -80 -276.999 -103s-210.666 -34.5 -327.999 -34.5v128c34 0.666992 72.333 12.334 115 35c42.667 22.667 70 45.667 82 69c-15.333 -4 -31 -6 -47 -6
c-57.333 0 -106.166 20.167 -146.499 60.5s-60.5 88.833 -60.5 145.5c0 56 20.333 104.167 61 144.5s89.334 60.5 146.001 60.5c55.333 0 103.166 -19.167 143.499 -57.5s60.5 -84.833 60.5 -139.5c0 -46 -6.5 -93.5 -19.5 -142.5s-31.167 -92.167 -54.5 -129.5
c42 8 81.667 18 119 30s76 29 116 51s74.833 47.5 104.5 76.5s55.167 65 76.5 108s35 90.5 41 142.5zM-592.003 2616c0 -30.667 7.33203 -53.334 21.999 -68c14.667 -14.667 37.334 -22 68.001 -22c60 0 90 30 90 90s-30 90 -90 90s-90 -30 -90 -90zM-371.004 2092
c72 0 129.5 -21.667 172.5 -65s64.5 -101 64.5 -173s-21.5 -129.667 -64.5 -173s-100.5 -65 -172.5 -65s-129.833 21.667 -173.5 65s-65.5 101 -65.5 173s21.833 129.667 65.5 173s101.5 65 173.5 65zM-372.004 1739c40 0 69.502 9.33301 88.502 28s28.5 48 28.5 88
c0 40.667 -9.5 70.667 -28.5 90s-48.5 29 -88.5 29c-40.667 0 -70.834 -9.66699 -90.501 -29s-29.5 -49.333 -29.5 -90c0 -40 9.66699 -69.333 29 -88s49.666 -28 90.999 -28z" />
    <glyph glyph-name="uni0E4A.nik" unicode="&#xee4a;" 
d="M165 2650h146c-8.66699 -144.667 -60 -256.167 -154 -334.5s-213.333 -118.5 -358 -120.5c32.667 92 49 167.333 49 226c0 37.333 -7.66699 69.166 -23 95.5c-15.333 26.333 -29.666 39.5 -42.999 39.5c-28.667 -50 -74.334 -78 -137.001 -84
c-30.667 2.66699 -58.834 11.334 -84.501 26c-25.667 14.667 -45.5 34 -59.5 58c-34 -9.33301 -53.667 -34.666 -59 -76c43.333 -2 79.833 -17.333 109.5 -46s44.5 -63.667 44.5 -105c0 -42 -15.5 -77.667 -46.5 -107s-66.833 -44 -107.5 -44
c-50.667 0 -92.667 18.667 -126 56s-50 81 -50 131c0 82.667 20.833 153.5 62.5 212.5s100.834 95.167 177.501 108.5c12 -26 31.5 -49.333 58.5 -70s53.833 -32.334 80.5 -35c21.333 -2 49 10 83 36s54 49 60 69c62 -10 111.5 -40.833 148.5 -92.5
s55.5 -109.167 55.5 -172.5c0 -18.667 -6 -45 -18 -79c66 25.333 114.833 62.666 146.5 112c31.667 49.333 46.5 114.666 44.5 196zM-558 2246c23.333 0 43.167 8.16699 59.5 24.5s24.5 35.833 24.5 58.5s-8 42.167 -24 58.5s-36 24.5 -60 24.5
c-22 0 -41 -8.16699 -57 -24.5s-24 -35.833 -24 -58.5s8 -42.167 24 -58.5s35 -24.5 57 -24.5zM-370.999 2092c72 0 129.5 -21.667 172.5 -65s64.5 -101 64.5 -173s-21.5 -129.667 -64.5 -173s-100.5 -65 -172.5 -65s-129.833 21.667 -173.5 65s-65.5 101 -65.5 173
s21.833 129.667 65.5 173s101.5 65 173.5 65zM-371.999 1739c40 0 69.502 9.33301 88.502 28s28.5 48 28.5 88c0 40.667 -9.5 70.667 -28.5 90s-48.5 29 -88.5 29c-40.667 0 -70.834 -9.66699 -90.501 -29s-29.5 -49.333 -29.5 -90c0 -40 9.66699 -69.333 29 -88
s49.666 -28 90.999 -28z" />
    <glyph glyph-name="uni0E4B.nik" unicode="&#xee4b;" 
d="M-131 2359h-149v-154h-168v154h-151v151h151v146h168v-146h149v-151zM-371 2092c72 0 129.5 -21.667 172.5 -65s64.5 -101 64.5 -173s-21.5 -129.667 -64.5 -173s-100.5 -65 -172.5 -65s-129.833 21.667 -173.5 65s-65.5 101 -65.5 173s21.833 129.667 65.5 173
s101.5 65 173.5 65zM-372 1739c40 0 69.502 9.33301 88.502 28s28.5 48 28.5 88c0 40.667 -9.5 70.667 -28.5 90s-48.5 29 -88.5 29c-40.667 0 -70.834 -9.66699 -90.501 -29s-29.5 -49.333 -29.5 -90c0 -40 9.66699 -69.333 29 -88s49.666 -28 90.999 -28z" />
    <glyph glyph-name=".null" 
 />
    <glyph glyph-name="nonmarkingreturn" horiz-adv-x="853" 
 />
  </font>
</defs>
</svg>
